<svg xmlns="http://www.w3.org/2000/svg" xmlns:xlink="http://www.w3.org/1999/xlink" viewBox="0 0 32.81 33"><defs><style>.cls-1{fill:#69c;}.cls-2{fill:url(#radial-gradient);}.cls-3,.cls-4{fill:none;stroke:#000;stroke-miterlimit:10;}.cls-3{stroke-width:2px;}.cls-4{stroke-width:0.5px;}.cls-5{font-size:2.27px;font-family:Arial-Black, Arial Black;font-weight:800;}</style><radialGradient id="radial-gradient" cx="16.84" cy="16.97" r="12.67" gradientTransform="translate(1.32 1.68) scale(0.89 0.9)" gradientUnits="userSpaceOnUse"><stop offset="0.74" stop-color="#fff" stop-opacity="0"/><stop offset="0.76" stop-color="#fff" stop-opacity="0.01"/><stop offset="0.77" stop-color="#fff" stop-opacity="0.04"/><stop offset="0.79" stop-color="#fff" stop-opacity="0.1"/><stop offset="0.79" stop-color="#fff" stop-opacity="0.18"/><stop offset="0.8" stop-color="#fff" stop-opacity="0.28"/><stop offset="0.81" stop-color="#fff" stop-opacity="0.4"/><stop offset="0.82" stop-color="#fff" stop-opacity="0.5"/><stop offset="0.82" stop-color="#dbc01f"/><stop offset="0.83" stop-color="#f1dc3a"/><stop offset="0.84" stop-color="#f5e13f"/><stop offset="0.84" stop-color="#455560"/><stop offset="0.84" stop-color="#465661"/><stop offset="0.86" stop-color="#77838b"/><stop offset="0.88" stop-color="#a0a9ae"/><stop offset="0.9" stop-color="#c3c8cb"/><stop offset="0.93" stop-color="#dde0e2"/><stop offset="0.95" stop-color="#f0f1f2"/><stop offset="0.97" stop-color="#fbfcfc"/><stop offset="1" stop-color="#fff"/></radialGradient></defs><title>Asset 11</title><g id="Layer_2" data-name="Layer 2"><g id="Layer_1-2" data-name="Layer 1"><ellipse class="cls-1" cx="16.14" cy="16.56" rx="15.33" ry="15.43"/><ellipse class="cls-2" cx="16.35" cy="16.92" rx="11.3" ry="11.37"/><ellipse class="cls-3" cx="16.4" cy="16.5" rx="15.4" ry="15.5"/><ellipse class="cls-4" cx="16.64" cy="11.49" rx="2.53" ry="2.55"/><text class="cls-5" transform="matrix(1.18, 0.01, -0.01, 1, 14.68, 12.27)">10</text><path d="M15.69,17.88l-.16,0-.07,0-.07,0-.14-.06-.06,0-.06,0-.06,0L15,17.57l0-.05s0,0-.05-.05l-.08-.11,0-.05,0-.06s0-.08,0-.13,0,0,0-.06v-.13a.2.2,0,0,1,0-.07.69.69,0,0,1,0-.13s0,0,0-.06a.25.25,0,0,0,0-.07l0-.06s0-.05,0-.07l.06-.13.15-.26L14.76,16l-.33-.14-.33-.13-.33-.13-.33-.13-.33-.12-.33-.13-.34-.12L12.11,15l-.34-.12-.33-.11-.34-.11-.34-.1-.68-.2-.35-.09-.35-.08.32.17a3.07,3.07,0,0,0,.31.17c.21.11.42.22.64.32L11,15l.32.16.32.14.32.15.33.14.33.14.32.13.33.13.33.14.33.12.08,0a.64.64,0,0,0,0,.07,1.37,1.37,0,0,0,0,.23h0l-.09,0-.21-.09-.26-.1L13,16.18,12.69,16l-.38-.14-.4-.15-.39-.15a3,3,0,0,0-.38-.15l-.37-.08-.33-.06a3.47,3.47,0,0,0-.53,0h-.2l0,.06.05,0,.12.09a3.2,3.2,0,0,0,.45.26l.31.14A3,3,0,0,0,11,16c.13,0,.26.06.4.09l.41.08.41.09.39.09.38.07.33.07.28.05.22,0,.11,0v.2a.25.25,0,0,0,0,.08l-.09,0-.2-.05-.26-.06-.31-.08-.35-.08-.37-.08L12,16.42l-.38-.09-.37-.08a2.19,2.19,0,0,0-.36,0h-.32a2.59,2.59,0,0,0-.48.06l-.14,0H9.86v.06l0,0,.13.07a2.53,2.53,0,0,0,.45.19,2.8,2.8,0,0,0,.31.09,1.81,1.81,0,0,0,.35.07c.12,0,.25,0,.37,0h.4l.39,0,.38,0,.35,0h.9l0,.15,0,.14-.49-.06-.27,0-.3,0-.33,0-.34,0-.34,0-.33,0h-.31l-.27,0a3.78,3.78,0,0,0-.42.1l-.12,0h-.05v.05l.05,0,.13,0a3.53,3.53,0,0,0,.41.1l.27,0,.31,0,.33,0,.34,0,.34,0,.32,0,.31,0,.27,0,.51-.05s0,.07,0,.11l.07.14-.4,0-.23,0-.26,0-.28,0-.29,0-.28,0-.28,0-.25.06-.23.08-.32.16-.09.06,0,0v0h0l.11,0a2.6,2.6,0,0,0,.36,0h.23l.26,0,.27-.08.28-.08L13,18l.26-.07.25-.08.23-.06.41-.13.06.09.1.11L14,17.9l-.16,0-.17.06-.19.06-.19.06-.2.06-.18.06-.16.09-.13.11a.94.94,0,0,0-.1.1l-.08.1,0,.06,0,0,0,0h.38l.16,0a.49.49,0,0,0,.17-.06l.17-.11.17-.11.17-.11a.91.91,0,0,0,.16-.11l.16-.1.13-.09.25-.18.08.07.11.07-.16.12-.22.15-.23.18-.12.08-.12.09-.09.11-.06.1a.69.69,0,0,0,0,.1.92.92,0,0,0,0,.09.18.18,0,0,0,0,.06v0l0,0h0l.06,0,.09,0,.1,0,.11-.07.1-.08.09-.12.09-.12.18-.24.15-.21a1.12,1.12,0,0,1,.12-.17l.11.05.06,0-.11.16-.11.19c-.05.07-.08.14-.13.22l-.06.11a.41.41,0,0,0-.09.22s0,.07,0,.1,0,.07,0,.1a.64.64,0,0,0,0,.07.11.11,0,0,0,0,.06h0l0,0h0l0,0,.06-.05.07-.06.07-.09a.93.93,0,0,0,.05-.1.5.5,0,0,0,0-.12s0-.09,0-.13a2,2,0,0,0,.05-.24c0-.08,0-.16,0-.22a1.06,1.06,0,0,0,0-.2l0,0,.07,0,.07,0h0a.85.85,0,0,0,0,.17c0,.06,0,.13-.05.2a2,2,0,0,0,0,.24l0,.12a.52.52,0,0,0,0,.11.37.37,0,0,0,0,.11l0,.1a.2.2,0,0,0,0,.08.16.16,0,0,0,0,.07l0,0v0h0v0l0,0,0-.06a.2.2,0,0,0,0-.08.3.3,0,0,0,0-.1.37.37,0,0,0,0-.11s0-.08,0-.12l0-.12,0-.23c0-.08,0-.15,0-.21a1.57,1.57,0,0,0,0-.16h0l.13,0h.11v.34c0,.06,0,.13,0,.2V19a.67.67,0,0,0,.07.17l0,.06,0,.05,0,0h0v0s0,0,0,0a.08.08,0,0,0,0-.06.64.64,0,0,0,0-.07.54.54,0,0,0,0-.18.3.3,0,0,0,0-.1l0-.1c0-.07-.05-.13-.07-.19s0-.12-.06-.17a1.14,1.14,0,0,1-.06-.14h.36c0,.08,0,.16,0,.24s0,.16,0,.24,0,.16.05.24c0-.08,0-.16,0-.24a1.94,1.94,0,0,0,0-.24L16,18v-.1l-.13,0-.15,0m-.06.37h-.25l-.13,0a.53.53,0,0,1-.12,0h-.06l-.06,0-.07,0-.06,0-.07,0-.06,0a2.2,2.2,0,0,1-.25-.17,1.5,1.5,0,0,1-.2-.23,1.66,1.66,0,0,1-.13-.27,1.53,1.53,0,0,1-.07-.29,2.44,2.44,0,0,1,0-.27,2,2,0,0,1,0-.25c0-.07,0-.14.05-.2l0,0,.05,0,.08,0,0,.08a.29.29,0,0,0,0,.09.44.44,0,0,0,0,.1,1.49,1.49,0,0,0,0,.21.34.34,0,0,0,0,.1.31.31,0,0,0,0,.1v.11l0,.1a1.54,1.54,0,0,0,.08.19.41.41,0,0,1,.05.09l.06.08.14.15.08.06.08.06.08.05.08,0L15,18l.09,0,.09,0,.09,0,.09,0h.35s0,.07,0,.11h-.13M23,15.3h-.15a3.31,3.31,0,0,0-.52,0l-.34.06-.37.08a3,3,0,0,0-.38.15l-.39.15-.39.15L20,16l-.36.14-.31.13-.27.1-.21.09-.09,0h0a1.37,1.37,0,0,0,0-.23s0,0,0-.07l.07,0,.33-.12.33-.14.33-.13.33-.13.32-.14.33-.14.32-.15.33-.14.32-.16.32-.15.63-.32.32-.17.31-.17-.35.08-.34.09-.69.2-.34.1-.33.11-.34.11-.34.12-.33.11-.33.12-.34.13-.33.12-.33.13-.33.13-.33.13L18,16l-.28.11.14.26c0,.05.05.09.07.13l0,.07a.14.14,0,0,0,0,.06.14.14,0,0,1,0,.07s0,0,0,.06,0,.09,0,.13v.2s0,0,0,.06a.5.5,0,0,1,0,.13l0,.06,0,.05a1,1,0,0,1-.08.11s0,0,0,.05l-.05.05-.06.05,0,0-.07,0-.06,0-.14.06-.07,0-.07,0-.15,0-.16,0-.12,0V18l0,.48c0,.08,0,.16,0,.24s0,.16,0,.24a2,2,0,0,0,.05-.24,2,2,0,0,0,0-.24,2,2,0,0,0,0-.24h.36l-.05.14-.07.17-.06.19,0,.1a.17.17,0,0,0,0,.1.55.55,0,0,0,0,.18.64.64,0,0,0,0,.07s0,.05,0,.06,0,0,0,0v0h0s0,0,0,0l0-.05,0-.06a.44.44,0,0,0,.07-.17V18.8a1.41,1.41,0,0,0,0-.2,1.28,1.28,0,0,0,0-.19c0-.07,0-.12,0-.15h.12l.12,0h0s0,.09,0,.16,0,.13,0,.21a1.57,1.57,0,0,0,0,.23.5.5,0,0,1,0,.12.5.5,0,0,0,0,.12.36.36,0,0,0,0,.11l0,.1,0,.08a.21.21,0,0,1,0,.06l0,0v0h0v0l0,0,0-.07a.59.59,0,0,1,0-.08.3.3,0,0,0,0-.1.2.2,0,0,0,0-.11.52.52,0,0,0,0-.11.5.5,0,0,1,0-.12c0-.08,0-.16,0-.24s0-.14,0-.2,0-.14,0-.17h0l.07,0,.07,0,0,0s0,.11,0,.2,0,.14,0,.22,0,.16.05.24a.59.59,0,0,1,0,.13.53.53,0,0,0,0,.12.31.31,0,0,0,.05.1l.06.09.07.06.06.05.05,0h0l0,0h0s0,0,0-.06a.14.14,0,0,0,0-.07.31.31,0,0,0,0-.1.34.34,0,0,0,0-.1.5.5,0,0,0,0-.12l-.06-.1-.07-.11-.12-.22-.12-.19-.1-.16.05,0,.11-.05a1.12,1.12,0,0,1,.12.17l.16.21a1.88,1.88,0,0,0,.18.24.83.83,0,0,1,.08.12l.09.12.11.08a.41.41,0,0,0,.11.07l.1,0,.08,0,.06,0h0l0,0v0s0,0,0-.06a.51.51,0,0,0,0-.09.93.93,0,0,0,0-.1.53.53,0,0,0-.06-.1.31.31,0,0,0-.09-.11l-.11-.09-.13-.08a1.81,1.81,0,0,0-.23-.18l-.21-.15L18.17,18a.41.41,0,0,0,.11-.07l.08-.07.25.18.14.09a.78.78,0,0,0,.15.1l.16.11.18.11.16.11.17.11a.58.58,0,0,0,.17.06l.17,0h.37l0,0,0,0a.61.61,0,0,0,0-.06l-.07-.1-.11-.1-.13-.11-.16-.09-.18-.06-.2-.06-.19-.06L19,18l-.17-.06-.16,0-.27-.08a.52.52,0,0,0,.1-.11l.06-.09.41.13.23.06.25.08.27.07L20,18l.27.08.27.08.26,0H21a2.78,2.78,0,0,0,.37,0l.1,0h0v0l0,0L21.43,18a3.11,3.11,0,0,0-.32-.16l-.22-.08-.26-.06-.27,0-.29,0-.29,0-.27,0-.26,0-.24,0-.4,0a.61.61,0,0,0,.07-.14.49.49,0,0,0,0-.11l.5.05.28,0,.31,0,.33,0,.33,0,.34,0,.33,0,.31,0,.27,0a3.78,3.78,0,0,0,.42-.1l.11,0,0,0v-.05h0l-.12,0a3.53,3.53,0,0,0-.41-.1l-.27,0h-.31l-.33,0-.34,0-.33,0-.33,0-.31,0-.28,0-.48,0a.65.65,0,0,0,0-.13c0-.05,0-.1,0-.15h.9l.36,0,.38,0,.39,0h.39c.13,0,.26,0,.38,0a1.86,1.86,0,0,0,.34-.07,2.29,2.29,0,0,0,.31-.09,2.24,2.24,0,0,0,.45-.19.5.5,0,0,0,.13-.07l0,0v-.06h-.05l-.13,0a2.71,2.71,0,0,0-.49-.06h-.32l-.35,0-.37.08-.39.09-.38.09-.37.08-.34.08-.31.08-.26.06-.21.05-.08,0v-.28l.11,0,.22,0,.28-.05.34-.07.37-.07.4-.09.4-.09.42-.08c.13,0,.27-.05.39-.09a3,3,0,0,0,.36-.13l.31-.14a3.2,3.2,0,0,0,.45-.26l.13-.09,0,0,0-.06H23m-4.34,1.78a1,1,0,0,1-.07.29,1.66,1.66,0,0,1-.13.27,1.1,1.1,0,0,1-.2.23L18,18l-.07,0-.06,0-.07,0-.06,0-.07,0h-.06a.53.53,0,0,1-.12,0l-.13,0H17s0-.08,0-.11h.35l.09,0,.09,0,.09,0,.09,0,.09,0,.08,0,.09-.05.08-.06.07-.06.14-.15.06-.08a.41.41,0,0,0,.05-.09l.09-.19a.44.44,0,0,0,0-.1l0-.05v-.06s0-.06,0-.1v-.1a.75.75,0,0,0,0-.21s0-.06,0-.1l0-.09s0-.06,0-.08l.07,0,.06,0v0a1.17,1.17,0,0,1,.05.2,2,2,0,0,1,0,.25,1.22,1.22,0,0,1,0,.27M16.7,19.33c0-.21,0-.4,0-.57s0-.34,0-.48,0-.27,0-.37l0-.24H17l.17,0,.15,0,.11,0,.07,0a0,0,0,0,0,0,0v0h0l-.07,0-.11,0-.15,0-.17,0h-.37v-.1h-.54v.09h-.31l-.17,0-.15,0-.11,0-.07,0h0v0h0a.08.08,0,0,0,.06,0l.12,0,.14,0,.18,0h.32a2.11,2.11,0,0,1,0,.23c0,.11,0,.23,0,.38s0,.3,0,.48,0,.36,0,.57,0,.41,0,.63,0,.45,0,.68v1.41l0,.68,0,.63c0,.2,0,.39,0,.57a4.79,4.79,0,0,0,.08.48c0,.15.06.27.08.37a3.31,3.31,0,0,0,.11.33,1.67,1.67,0,0,0,.11-.33c0-.1.06-.22.09-.37a4.79,4.79,0,0,0,.08-.48c0-.18,0-.37,0-.57l0-.63,0-.68V20.64c0-.23,0-.46,0-.68s0-.43,0-.63M16.37,23l-.09-5.29h.18Zm-.28-6.54h.49v.16h-.5Zm0-.25h.48v.19H16.1Zm0,.46h.5v.19h-.51Zm0-.68h.46v.17H16.1Zm0,.93h.51V17h-.52Zm.49-1.17v.16h-.46V15.7h.46Zm-.49,1.41h.52v.16h-.53Zm0-1.46h.46a.44.44,0,0,0,.17-.34.4.4,0,1,0-.8,0,.44.44,0,0,0,.17.34m.26-.48a.14.14,0,0,1,0,.28.14.14,0,1,1,0-.28"/></g></g></svg>