<svg xmlns="http://www.w3.org/2000/svg" xmlns:xlink="http://www.w3.org/1999/xlink" viewBox="0 0 32.81 33"><defs><style>.cls-1,.cls-5{fill:none;stroke:#000;stroke-miterlimit:10;}.cls-1{stroke-width:0.5px;}.cls-2{font-size:2.35px;}.cls-2,.cls-6{font-family:Arial-Black, Arial Black;font-weight:800;}.cls-3{fill:#c1272d;}.cls-4{fill:url(#radial-gradient);}.cls-5{stroke-width:2px;}.cls-6{font-size:2.82px;}.cls-7{fill:#1d1d1b;}</style><radialGradient id="radial-gradient" cx="16.2" cy="17.13" r="10.47" gradientTransform="translate(-1.13 -1.68) scale(1.08 1.09)" gradientUnits="userSpaceOnUse"><stop offset="0.74" stop-color="#fff" stop-opacity="0"/><stop offset="0.76" stop-color="#fff" stop-opacity="0.01"/><stop offset="0.77" stop-color="#fff" stop-opacity="0.04"/><stop offset="0.79" stop-color="#fff" stop-opacity="0.1"/><stop offset="0.79" stop-color="#fff" stop-opacity="0.18"/><stop offset="0.8" stop-color="#fff" stop-opacity="0.28"/><stop offset="0.81" stop-color="#fff" stop-opacity="0.4"/><stop offset="0.82" stop-color="#fff" stop-opacity="0.5"/><stop offset="0.82" stop-color="#dbc01f"/><stop offset="0.83" stop-color="#f1dc3a"/><stop offset="0.84" stop-color="#f5e13f"/><stop offset="0.84" stop-color="#455560"/><stop offset="0.84" stop-color="#465661"/><stop offset="0.86" stop-color="#77838b"/><stop offset="0.88" stop-color="#a0a9ae"/><stop offset="0.9" stop-color="#c3c8cb"/><stop offset="0.93" stop-color="#dde0e2"/><stop offset="0.95" stop-color="#f0f1f2"/><stop offset="0.97" stop-color="#fbfcfc"/><stop offset="1" stop-color="#fff"/></radialGradient></defs><title>Asset 9</title><g id="Layer_2" data-name="Layer 2"><g id="Layer_1-2" data-name="Layer 1"><ellipse class="cls-1" cx="19.17" cy="21.87" rx="1.9" ry="1.91"/><text class="cls-2" transform="matrix(0.99, 0.01, -0.01, 1, 18.21, 22.8)">5</text><ellipse class="cls-3" cx="16.15" cy="16.56" rx="15.34" ry="15.43"/><ellipse class="cls-4" cx="16.35" cy="16.92" rx="11.3" ry="11.37"/><ellipse class="cls-5" cx="16.4" cy="16.5" rx="15.4" ry="15.5"/><ellipse class="cls-1" cx="22.34" cy="18.87" rx="2.19" ry="2.21"/><text class="cls-6" transform="matrix(0.99, 0.01, -0.01, 1, 21.48, 19.84)">8</text><path class="cls-7" d="M10.06,20.54c.35-6.23,3.93-8.84,5.82-9.25a1.4,1.4,0,0,0-.26.16h0l0,0h0l-.46.31s-.25.15-.26.17h0l0,0-.06,0-.05,0-.13.1a2.75,2.75,0,0,0-.27.24,3,3,0,0,0-.31.31,3.73,3.73,0,0,0-.32.36l-.33.41c-.11.14-.21.29-.32.44s-.2.3-.29.45-.18.3-.26.45-.16.3-.22.44l-.09.21c0,.07-.05.13-.07.2A2,2,0,0,0,12,16a1,1,0,0,0,0,.28v.11a.19.19,0,0,0,0,.08v0s0,0,0-.08V16.3A1.86,1.86,0,0,1,12,16a3.34,3.34,0,0,1,.1-.36c0-.06.05-.13.08-.19l.09-.21a4.5,4.5,0,0,1,.23-.43q.12-.22.27-.45a4.27,4.27,0,0,1,.3-.44c.1-.15.21-.29.32-.43s.22-.27.33-.39.22-.25.33-.36l.31-.3.27-.23.13-.09.05,0,0,0-.13.17a7.58,7.58,0,0,0-.78,1.27c-.06.12-.12.24-.17.36s-.1.25-.15.37-.07.24-.1.35-.06.22-.08.32,0,.2,0,.28v.35s0-.08,0-.14v-.21c0-.08,0-.18,0-.27s.05-.21.08-.32a2.91,2.91,0,0,1,.12-.35,2.75,2.75,0,0,1,.15-.36,3,3,0,0,1,.18-.36,8.2,8.2,0,0,1,.8-1.23,3.38,3.38,0,0,1,.31-.36l.06-.05,0,0,0,.14,0,.19a7,7,0,0,0,0,1.14c0,.41.06.82.1,1.13,0,.15,0,.28.06.37l0,.11c-.42-.15-.91.3-1,.65,0,.19,0,.31.07.33a1.55,1.55,0,0,0-2,1c-1.55.51-2.16,3.31-2.25,3.58m10.68-6.37a.31.31,0,0,0-.21-.14s-.18-.1-.24,0,.2.21.14.32c0-.12-.13-.09-.12-.13s-.12-.15-.24-.16a1.74,1.74,0,0,1-.32-.11c-.22.06-.51.55-.7.7s0,.14-.25-.07a.92.92,0,0,0-.23-.09,2,2,0,0,1,0,.76.71.71,0,0,1,.55,0h0s.4.12.46.07a3.59,3.59,0,0,0,.26-.27.63.63,0,0,1,.35,0A1.37,1.37,0,0,0,20,15s-.19.21-.13.19a.78.78,0,0,1,.27,0,1.37,1.37,0,0,1,.17.19,2.09,2.09,0,0,0-.23-.1c-.06,0-.16,0-.19.11s.21.19.21.19.14.22.09.29c0-.16-.15-.18-.15-.18s-.1-.13-.21-.08.08.28,0,.36c0-.09-.08-.16-.05-.2s0-.22-.15-.27a2.49,2.49,0,0,1-.4-.23c-.16,0-.44.16-.67.29a1.84,1.84,0,0,1-.87,1l-.15.08.25.12a1.89,1.89,0,0,1,.49.89.59.59,0,0,1,.19.72c-.2.31-.39.93-.92,1.14a1.16,1.16,0,0,0,0,.16.47.47,0,0,1,.18.23c0,.06.08.21.14.19s.08.08.08.14.05.13,0,.17-.25-.35-.28-.32a.15.15,0,0,0,.06.2c0,.07.05.12,0,.17s0,.11,0,.16c-.08-.18-.22-.42-.24-.39a.22.22,0,0,0,0,.22.23.23,0,0,1-.06.18c0,.07,0,.14-.07.15a.57.57,0,0,0,0-.14s0-.4,0-.4-.08-.09-.11,0a.14.14,0,0,0,0,.13.27.27,0,0,1-.16.21.11.11,0,0,0,0-.13c-.05-.07.11-.21.06-.5,0-.12.13-.09.13-.27s0-.28,0-.28c.83-.19.47-1.24.65-1.33,0,0,.2.14.31,0a4.31,4.31,0,0,1-.4-.18c-.24-.5-.71-.4-1.08-.31a1.92,1.92,0,0,0-.15-.67L15.86,16l0,0-.17.05.86,1a2.44,2.44,0,0,1-.08,2,.65.65,0,0,1-.08.64,2.05,2.05,0,0,1-.55,1.28l0,0a1.27,1.27,0,0,1,.15.21l.07.06c0,.06,0,.11.1.15s.13,0,.15.07,0,0,0,.13.05.07.05.14-.3-.3-.34-.27,0,0,0,0a.45.45,0,0,0,.17.17.21.21,0,0,1,0,.19.28.28,0,0,1,0,.16c-.06-.28-.29-.47-.3-.42s0,.22,0,.25a.19.19,0,0,1,0,.18c0,.06,0,.14,0,.17s0-.14-.05-.15.06-.21-.08-.4c0,0-.06-.07-.1,0a.11.11,0,0,0,0,.14c0,.07,0,.13-.07.16s0,.11-.07.12a.21.21,0,0,0,0-.2c0-.08.12-.21,0-.58,0-.13.15-.14.12-.34v0c.71-.74-.14-1.67,0-1.84l.06,0a.22.22,0,0,0,.16,0,.13.13,0,0,0,.06-.07c.32-.66-.67-1-1.06-1.27a1.52,1.52,0,0,1-.22-.47.84.84,0,0,0,.42.78c-.14,0-.4.19-.74.49-.06.1-.13.2-.21.31a3.07,3.07,0,0,1-.42.48,3.78,3.78,0,0,1-.54.43,6.15,6.15,0,0,1-1.31.65c-.22.08-.45.16-.68.22a1.83,1.83,0,0,0-.31.12.81.81,0,0,0-.26.18,1.08,1.08,0,0,0-.28.54,2,2,0,0,1-.2.57.91.91,0,0,1-.37.36,1.58,1.58,0,0,1-.36.13l-.23.05H9.08l.08,0,.24-.06a3.2,3.2,0,0,0,.33-.16.78.78,0,0,0,.32-.35,2.15,2.15,0,0,0,.15-.57,1.41,1.41,0,0,1,.09-.32.8.8,0,0,1,.19-.32,1.45,1.45,0,0,1,.62-.39l.65-.29a5.72,5.72,0,0,0,1.15-.71c1.23-1.22,1.41-2.8,2.09-3.35a1.11,1.11,0,0,1,.47-.3l.07.08a2,2,0,0,0,1.08-1.35,1.43,1.43,0,0,0-1.34.47l0-.11c0-.09,0-.22,0-.37,0-.31-.06-.72-.06-1.13a7.61,7.61,0,0,1,0-1.12,1.52,1.52,0,0,1,.08-.35l0-.05v0a.07.07,0,0,1,0,0h0l0,0h0a5.11,5.11,0,0,0,.69,2.06,2.38,2.38,0,0,0,.54.66h0a.69.69,0,0,0,.22.12l.16,0a.21.21,0,0,0,.16-.05.53.53,0,0,0,.14-.44v0h0a2.66,2.66,0,0,1-.73-.51,2.12,2.12,0,0,1-.06-1l.63.15L17,12.74a2.33,2.33,0,0,0-.59-.24l-.33-.07-.3,0h-.09v0h.4l.35,0h.06a3.84,3.84,0,0,1,.13-.41l.55.13-.09-.06a2.25,2.25,0,0,0-.58-.24,2,2,0,0,0-.34-.06l-.3,0H15.6l.08,0,.09,0h.12l.31,0,.35,0,.21,0a1.94,1.94,0,0,1,.23-.33l.43.15-.08-.07a2.16,2.16,0,0,0-.55-.32l-.32-.11-.16,0h-.43L16,11h.09l.12,0h.31a2.41,2.41,0,0,1,.35.07,2,2,0,0,1,.37.14,1.24,1.24,0,0,1,.27-.17l.37.18,0,0a3.21,3.21,0,0,0-.51-.36l-.3-.15-.28-.09a.58.58,0,0,0-.2,0h.21l.29.06a2.08,2.08,0,0,1,.32.12,3.29,3.29,0,0,1,.42.2l.15,0h.24l.4.26v0l-.08-.1-.1-.1-.12-.11-.12-.1L18,10.64a.57.57,0,0,0-.13-.08l-.06,0-.06,0-.12-.05-.11,0h.12l.12,0,.07,0,.07,0,.15.06.14.08.14.09.13.1.12.09h0l.29.05.28.23h0a.93.93,0,0,0,0-.1L19,11a1,1,0,0,1-.08-.11l-.09-.11-.1-.1-.11-.09,0,0-.06,0-.1,0-.09,0h.1l.11,0,.07,0,.06,0,.12.08a.94.94,0,0,1,.12.09.52.52,0,0,1,.11.1l.11.1.09.11.07.1.06.08a.86.86,0,0,1,.14.13c.28-.46-.36-.84-.51-.84.33,0,1,.24,1.09,1.44a3.12,3.12,0,0,1,.29.79c0,.05.12,0,.12.05-.05.39-.22.27-.22.27a.67.67,0,0,0-.06-.12.61.61,0,0,1-.3,0,.17.17,0,0,0,.18-.15c-.21-.25-.5-.49-.49-.16a.4.4,0,0,0,.08.2.31.31,0,0,0,.23.06s-.1,0-.17,0l.06.06s-.2.06-.25,0,.07,0,0-.06a1.49,1.49,0,0,1-.43-.4l.22-.08a1.09,1.09,0,0,0-.25,0,.55.55,0,0,0-.18.06l-.16.08a.38.38,0,0,0-.09.09l0,0,0,0a1.23,1.23,0,0,1,.08-.12l.13-.14a1.22,1.22,0,0,1,.19-.12h0v0l-.06,0,.14,0a2.07,2.07,0,0,0-.36,0,.86.86,0,0,0-.23.06l-.1,0-.08.06-.06.06,0,.05,0,0,0-.06a.11.11,0,0,1,0-.06l0-.08a.46.46,0,0,1,.07-.07h0a.73.73,0,0,1,.09-.08.9.9,0,0,1,.24-.12,1,1,0,0,1,.25-.08h0a1.48,1.48,0,0,0-.58,0l-.15.06-.13.07-.07,0s0,0,0,.05l-.05,0,0,.05-.07.1a.59.59,0,0,0,0,.08l0,.07v-.08l0-.08a.67.67,0,0,1,.06-.12l0-.06,0-.06L18,12l.06-.06.14-.11.15-.1.18-.07a1,1,0,0,0-.24,0c-.42,0-1,.85-.35,1.72l-.22-.12v0l0-.05a.08.08,0,0,0-.11,0l0,0A2.2,2.2,0,0,0,17,13l.78,1.17-.54-.95a2.77,2.77,0,0,1,1.64,1c.15-.05.38-.35.66-.43h0a.4.4,0,0,1,.13,0h.06a1.14,1.14,0,0,0,.26,0c0-.05.07-.22.12-.35s.18-.11.21-.11a.52.52,0,0,0-.13.12s-.05.26,0,.22a1.13,1.13,0,0,1,.33-.08,1.23,1.23,0,0,1,.25.08,1.78,1.78,0,0,0-.26,0,.34.34,0,0,0-.22.2c0,.06.26.11.26.11s.18.16.18.25m-3.32-2a.06.06,0,0,0,.06.06h0a.08.08,0,0,0,.08-.06s0,0,0-.06a.09.09,0,0,0-.06-.1.09.09,0,0,0-.1,0h0s0,0,0,.06a.08.08,0,0,0,0,0m0,.12a.09.09,0,0,0-.08.09v.06a.08.08,0,0,0,.16,0v-.06a.11.11,0,0,0-.09-.09m-.09-.11Zm.11.64h0a.08.08,0,0,0,.07-.1v-.06s-.05-.08-.09-.07a.08.08,0,0,0-.08.09v.06a.08.08,0,0,0,.08.08m.13.18v-.06a.09.09,0,0,0-.1-.06.08.08,0,0,0-.07.1s0,0,0,.06a.08.08,0,0,0,.08.07h0a.09.09,0,0,0,.06-.1m.05-1.24a.07.07,0,0,0-.11,0l0,.05a.1.1,0,0,0,0,.12h0a.09.09,0,0,0,.08,0,.08.08,0,0,1,0,0,.08.08,0,0,0,0-.12m1.79.32Zm-.09-.52a1.68,1.68,0,0,1,.14.35.12.12,0,0,0,0,.07.19.19,0,0,0,.15,0,.69.69,0,0,0-.34-.39m-.85,0a.09.09,0,0,0,.08.09h0s.07,0,.08-.08a.1.1,0,0,0-.08-.1h0a.09.09,0,0,0-.09.08m-.28,0a.09.09,0,0,0,.09.08h.05a.08.08,0,0,0,.08-.09.08.08,0,0,0-.08-.09h-.06a.09.09,0,0,0-.08.09m-.06,0a.08.08,0,0,0-.09-.06H18a.07.07,0,0,0-.06.1.08.08,0,0,0,.08.07h.07a.09.09,0,0,0,.06-.11m-.46.19a.07.07,0,0,0,.07,0h0l.05,0a.09.09,0,0,0,0-.12.08.08,0,0,0-.11,0l-.06,0a.08.08,0,0,0,0,.12m.48,3.81s.14.17.25.06-.66-.46-.25-.06m-.37-1.26a0,0,0,0,0,0,0Zm-.45,2.37h0c.11-.11-.54-.4-.32-.14l.07.08s.13.16.24.07m0-.21s.14.17.25.06-.66-.46-.25-.06m.24-.14s.14.17.25.05-.66-.45-.25-.05m.21-.14s.14.17.25.05-.66-.45-.25-.05m.14-.18s.14.17.25.05-.66-.45-.25-.05m.33-.25a.61.61,0,0,0-.3-.15c-.05,0-.06,0,0,.14l.05.05h0s.14.15.24,0,0-.06,0-.1m.17-.43c0-.06-.1-.14-.21-.19s-.27-.07-.05.15l0,0a.21.21,0,0,0,.11.07.1.1,0,0,0,.12,0h0m-.23-.47c-.1,0-.14,0,0,.16v0s.14.17.25,0-.15-.2-.28-.23m0-.11s.14.17.25.06-.66-.46-.25-.06m-2.74-3.18-.16.21h0l0,0h0a3.78,3.78,0,0,0,1.46,2.82.3.3,0,0,0,.27,0,.51.51,0,0,0,.11-.38,3.26,3.26,0,0,1-1.63-1.92,1.36,1.36,0,0,1,0-.74h0"/></g></g></svg>