<svg xmlns="http://www.w3.org/2000/svg" xmlns:xlink="http://www.w3.org/1999/xlink" viewBox="0 0 33 32.93"><defs><style>.cls-1{fill:#20557a;}.cls-2{fill:url(#radial-gradient);}.cls-3,.cls-4{fill:none;stroke:#000;stroke-miterlimit:10;}.cls-3{stroke-width:2px;}.cls-4{stroke-width:0.5px;}.cls-5{font-size:3.2px;font-family:Arial-Black, Arial Black;font-weight:800;}.cls-6{fill:#1d1d1b;}</style><radialGradient id="radial-gradient" cx="16.44" cy="16.9" r="11.61" gradientTransform="translate(0.33 0.36) scale(0.98 0.98)" gradientUnits="userSpaceOnUse"><stop offset="0.74" stop-color="#fff" stop-opacity="0"/><stop offset="0.76" stop-color="#fff" stop-opacity="0.01"/><stop offset="0.77" stop-color="#fff" stop-opacity="0.04"/><stop offset="0.79" stop-color="#fff" stop-opacity="0.1"/><stop offset="0.79" stop-color="#fff" stop-opacity="0.18"/><stop offset="0.8" stop-color="#fff" stop-opacity="0.28"/><stop offset="0.81" stop-color="#fff" stop-opacity="0.4"/><stop offset="0.82" stop-color="#fff" stop-opacity="0.5"/><stop offset="0.82" stop-color="#dbc01f"/><stop offset="0.83" stop-color="#f1dc3a"/><stop offset="0.84" stop-color="#f5e13f"/><stop offset="0.84" stop-color="#455560"/><stop offset="0.84" stop-color="#465661"/><stop offset="0.86" stop-color="#77838b"/><stop offset="0.88" stop-color="#a0a9ae"/><stop offset="0.9" stop-color="#c3c8cb"/><stop offset="0.93" stop-color="#dde0e2"/><stop offset="0.95" stop-color="#f0f1f2"/><stop offset="0.97" stop-color="#fbfcfc"/><stop offset="1" stop-color="#fff"/></radialGradient></defs><title>Asset 4</title><g id="Layer_2" data-name="Layer 2"><g id="Layer_1-2" data-name="Layer 1"><ellipse class="cls-1" cx="16.5" cy="16.27" rx="15.37" ry="15.34"/><ellipse class="cls-2" cx="16.44" cy="16.89" rx="11.37" ry="11.35"/><ellipse class="cls-3" cx="16.5" cy="16.46" rx="15.5" ry="15.46"/><ellipse class="cls-4" cx="14.63" cy="11.68" rx="2.48" ry="2.48"/><text class="cls-5" transform="matrix(1, 0.01, -0.01, 1, 13.57, 12.69)">3</text><path class="cls-6" d="M22.26,18.48s.44,1,.13,1.37a1.16,1.16,0,0,0-.53-.94.4.4,0,0,0-.09.33c-.34-.16-.4-.92-.4-.92a.22.22,0,0,0-.16.23.54.54,0,0,1,.06-.68c-1.59-1.81-2.8-.15-1.32.93s.25,2.86-1.05,2.91l.08.13.11,0,.21,0,.23-.08.12-.06.11-.05.12-.07.11-.08.06,0,.05,0,0,0,.05-.05,0,0,0,0,.05-.05.08-.1.07-.1.07-.11,0-.1a.42.42,0,0,1,0-.1l0-.09a.29.29,0,0,0,0-.09l0-.08s0,0,0-.06l0-.13v.28s0,.05,0,.09l0,.1a.52.52,0,0,1,0,.11l0,.11-.05.12-.07.12-.07.11,0,.06,0,0,0,0,0,.05-.05.06s0,0,0,.05l-.06.05a.52.52,0,0,1-.11.1l-.11.09-.12.08-.13.07-.23.12-.22.09-.05,0a2.27,2.27,0,0,1,.19,1.39s.47.15.51.58c-.38-.11-1.29.39-2,.32l-.07-.07c-.3,0-.52.06-.58.33-.14-.17,0-.41.08-.55a.41.41,0,0,0-.34.13.48.48,0,0,1,.24-.4.41.41,0,0,0-.34,0c.18-.33.67-.23.69-.23l.11-.06c.32-.16.74.2.94,0,.39-.45-.16-1-1.89-1.87-.05,0-.1,0-.16.11.28.13.62.29.94.47a4.22,4.22,0,0,1,.54.36,2,2,0,0,1,.41.4,1,1,0,0,1,.1.21.33.33,0,0,1,0,.17v.07s0,0,0,0l0,0v0a.07.07,0,0,0,0,0v0a0,0,0,0,0,0,0s0-.1,0-.16a.94.94,0,0,0-.12-.18,1.86,1.86,0,0,0-.42-.33,4.83,4.83,0,0,0-.56-.27c-.36-.15-.73-.27-1-.36-.16.29-.34.64-.6.71a1.05,1.05,0,0,0-.66.94c.13.11.34.49.29.63a7.08,7.08,0,0,0-2.14-.08,1,1,0,0,1-.18-.09.27.27,0,0,0-.25.34c-.18-.21-.22-.41-.1-.56a.38.38,0,0,0-.34.31.52.52,0,0,1,.51-.68.38.38,0,0,0-.43.07c.07-.34.5-.43.81-.28a1.53,1.53,0,0,1,.92.07c.75.25.53-.59.46-1.39s.6-1.08.78-1.54c.27-.7-.8-1.19-1.09-1.43a4.28,4.28,0,0,0-1.44-.75c-.59-.28-.89-.21-.93.09a.48.48,0,0,1,0-.5.31.31,0,0,0-.36,0,.49.49,0,0,1,.54-.37h0a.43.43,0,0,0-.33-.08.54.54,0,0,1,.77-.11.65.65,0,0,1,.45.06,2,2,0,0,0,1.1.65c.31.07.76-.09,1.23.11,0,0,.15-.35.18-.34,1.25.21,1.18-.34,1-.6.18.72-.91.43-1,.38s-.36.16-.42.16a1,1,0,0,1-.26-.45l-.05-.13a.34.34,0,0,0,.25,0l0-.31-.23.1a.17.17,0,0,1-.14,0c0,.05-.08.11,0,.25a.51.51,0,0,1-.24-.19c-.08-.1-.36-.47-.34-.65s.59-.23.59-.23l.33-.34.39,0c.14-.27.49-.61.74-.61.06,0,0,.28-.1.43.31-.06.33-.5.33-.5a1.77,1.77,0,0,1,2.12.79c-.46-.23-1.15-.2-.87,0,.55.3,1.28.46,1.31,1.33-.16-.4-.82-.46-.85-.32s1.24,2,1.09,2.27c-.5-.7-1-.57-1-.57A1.74,1.74,0,0,0,20,19.88c-.83.93-2.62-.42-2.87-.73a2.88,2.88,0,0,0,2.08,1.36c-.09.1-.36.4-.55.59,1.26,0,2.24-1.26.84-2.27s0-3.28,1.9-1.07a.73.73,0,0,1,.66.17c-.13,0-.32.09-.27.11a.76.76,0,0,1,.75.61.8.8,0,0,0-.3-.17m-9.8,1.78h0a.46.46,0,0,0,.38.25c-.33-.26.11-.42.28-.26s.43-.1.43-.1a2.19,2.19,0,0,1,1.47,0c.12.09.08.21-.09.51s-.53.69-.42,1.09c0-.48.6-.93.74-1.13a.45.45,0,0,0,.09-.32h0a.42.42,0,0,0-.06-.15A.87.87,0,0,0,15,19.8h0a8,8,0,0,0-.66-.52c-.41.54-1.16-.12-1.61.2h0a.5.5,0,0,0-.7.35c0-.05.2-.17.28,0a.48.48,0,0,0-.15.62c0-.06.13-.38.33-.19"/></g></g></svg>