<svg xmlns="http://www.w3.org/2000/svg" xmlns:xlink="http://www.w3.org/1999/xlink" viewBox="0 0 33 33"><defs><style>.cls-1{fill:#2398ab;}.cls-2{fill:url(#radial-gradient);}.cls-3,.cls-4{fill:none;stroke:#000;stroke-miterlimit:10;}.cls-3{stroke-width:2px;}.cls-4{stroke-width:0.5px;}.cls-5{font-size:3.04px;font-family:Arial-Black, Arial Black;font-weight:800;}.cls-6{fill:#1d1d1b;}</style><radialGradient id="radial-gradient" cx="-13.89" cy="-3.29" r="11.37" gradientTransform="translate(29.8 21.95) rotate(7.29)" gradientUnits="userSpaceOnUse"><stop offset="0.74" stop-color="#fff" stop-opacity="0"/><stop offset="0.76" stop-color="#fff" stop-opacity="0.01"/><stop offset="0.77" stop-color="#fff" stop-opacity="0.04"/><stop offset="0.79" stop-color="#fff" stop-opacity="0.1"/><stop offset="0.79" stop-color="#fff" stop-opacity="0.18"/><stop offset="0.8" stop-color="#fff" stop-opacity="0.28"/><stop offset="0.81" stop-color="#fff" stop-opacity="0.4"/><stop offset="0.82" stop-color="#fff" stop-opacity="0.5"/><stop offset="0.82" stop-color="#dbc01f"/><stop offset="0.83" stop-color="#f1dc3a"/><stop offset="0.84" stop-color="#f5e13f"/><stop offset="0.84" stop-color="#455560"/><stop offset="0.84" stop-color="#465661"/><stop offset="0.86" stop-color="#77838b"/><stop offset="0.88" stop-color="#a0a9ae"/><stop offset="0.9" stop-color="#c3c8cb"/><stop offset="0.93" stop-color="#dde0e2"/><stop offset="0.95" stop-color="#f0f1f2"/><stop offset="0.97" stop-color="#fbfcfc"/><stop offset="1" stop-color="#fff"/></radialGradient></defs><title>Asset 6</title><g id="Layer_2" data-name="Layer 2"><g id="Layer_1-2" data-name="Layer 1"><circle class="cls-1" cx="16.4" cy="16.4" r="15.4"/><circle class="cls-2" cx="16.44" cy="16.92" r="11.37"/><circle class="cls-3" cx="16.5" cy="16.5" r="15.5"/><circle class="cls-4" cx="14.67" cy="11.92" r="2.47"/><text class="cls-5" transform="matrix(1, 0.01, -0.01, 1, 13.43, 13.12)">5</text><path class="cls-6" d="M23.78,19.27c0-.1,0-.2,0-.26a.05.05,0,0,0,0,0,.11.11,0,0,0,0-.12S20.08,16,19.46,15.61l0,0a3.63,3.63,0,0,0-1.16-.2,3.12,3.12,0,0,0-1.17.22,2.74,2.74,0,0,0-1.34,1.07,4.41,4.41,0,0,0-2.42-.61,5.79,5.79,0,0,0-2,.33,2.93,2.93,0,0,0-1.45,1.07.11.11,0,0,0,0,.15l.29.21-.28.26a.09.09,0,0,0,0,.12.49.49,0,0,1,.06.15l0,0,0,0v0l0,0,0,0v0l0,0,0,0v0c-.38.16-.45.24-.47.3v0l0,0c.05.12,1.78,1.42,2.8,2.18,1.25.94,2.77,2.06,2.91,2.08h.05A2.85,2.85,0,0,0,15.9,23a12.39,12.39,0,0,1,3.54-1.52,1,1,0,0,0,.41.09h0a.76.76,0,0,0,.39-.1.79.79,0,0,0,.37-.48,13.45,13.45,0,0,1,3.45-1.18.11.11,0,0,0,.09-.09c0-.07,0-.15-.37-.43m-2.56.89a3.46,3.46,0,0,0-1.06.62v0a6.54,6.54,0,0,1,3.48-1.24v0a8.79,8.79,0,0,0-2.4.62m2.39-.59h0a8.51,8.51,0,0,0-3.44,1.28v0a6.64,6.64,0,0,1,3.44-1.25m-3.47,1.14v0a6.16,6.16,0,0,1,3.52-1.25v0a6.55,6.55,0,0,0-3.5,1.24m0-.07v0a6,6,0,0,1,3.56-1.26v0a6.36,6.36,0,0,0-3.54,1.24m-.47.36a8.93,8.93,0,0,0-4.21,1.65v-.06a9.06,9.06,0,0,1,1.41-.83,7.52,7.52,0,0,1,2.8-.8v0m0,0a10.78,10.78,0,0,0-4.21,1.68v0A8.78,8.78,0,0,1,19.64,21h0m-2.81.69a10.4,10.4,0,0,0-1.4.82V22.5a9.16,9.16,0,0,1,1.42-.83,7.64,7.64,0,0,1,2.79-.78v0a7.57,7.57,0,0,0-2.81.8m0-.09a9.76,9.76,0,0,0-1.41.82v-.05a9,9,0,0,1,4.22-1.59v0a7.32,7.32,0,0,0-2.81.78m-1.41.73v0a8.89,8.89,0,0,1,4.24-1.57v0a8.9,8.9,0,0,0-4.22,1.59m1.43-.91a9.52,9.52,0,0,0-1.44.82v0a10.18,10.18,0,0,1,1.47-.83,7.11,7.11,0,0,1,2.77-.72v0a7.12,7.12,0,0,0-2.8.75m-1.45.73v0a8.8,8.8,0,0,1,4.26-1.54v0a8.8,8.8,0,0,0-4.26,1.55m0-.09v0a8.8,8.8,0,0,1,4.29-1.53v0A8.87,8.87,0,0,0,15.4,22.1m1.5-.91a9.53,9.53,0,0,0-1.52.83V22a0,0,0,0,0,0,0,.05.05,0,0,0,0,0,8.87,8.87,0,0,1,4.06-1.51l.22,0s0,0,0,0a6.57,6.57,0,0,0-2.8.69M10.31,19l-.1-.07v-.05l5.18,3.72v.06Zm5.07,3.69s0,0,0,.05c-.24-.19-1.41-1.05-2.58-1.91ZM10.2,18.83v0l5.18,3.7v.06Zm-.11-.64L15,21.59l.36.32h0l-5.2-3.66a.14.14,0,0,1,0-.06m.07.26h0v0l5.18,3.66v0l-5.19-3.67Zm0,.1v0l5.18,3.67h0v0Zm4.58,2.74c-.42-.35-1-.82-1.57-1.31-1.09-.89-2.45-2-3.09-2.46a4,4,0,0,1,3.24-1.28,3.91,3.91,0,0,1,2.45.67s3.18,2.81,3.86,3.44h-.16a7,7,0,0,0-2.3.57,7.1,7.1,0,0,0-1.79.94c-.07-.07-.24-.22-.64-.56m-4.63-3L15.32,22v0l-5.19-3.66h0v0h0m.06.32v0l5.18,3.68h0v.06Zm5.18,3.74h0v.06L10.2,18.74v0Zm.49-5.56h0a2.91,2.91,0,0,1,3.51-1.07c.57.37,3.58,2.67,4.19,3.15a10.84,10.84,0,0,0-1.58.25,3.32,3.32,0,0,0-2.18,1.19c-.5-.47-3.79-3.38-3.94-3.51M23.68,19v0c-2.27.18-3.43.82-3.77,1.35h0c.66-1.11,3.46-1.36,3.78-1.38m0,.09v0c-2.08.18-3.34.77-3.72,1.32h0c.32-.52,1.47-1.16,3.73-1.34m-2.62.64a8.94,8.94,0,0,1,2.62-.57v0c-2,.18-3.29.78-3.68,1.29h0a2.55,2.55,0,0,1,1.07-.74m0,.08a8.86,8.86,0,0,1,2.58-.58v0a9.09,9.09,0,0,0-2.57.59,2.93,2.93,0,0,0-1.06.68h0a2.65,2.65,0,0,1,1.06-.7m0,.07a8.65,8.65,0,0,1,2.55-.58v0a6.15,6.15,0,0,0-3.58,1.26v0a2.79,2.79,0,0,1,1.05-.68m-5.3,2.94-.47.26c-.17-.08-1.31-.9-2.83-2S10,19.12,9.79,18.94a2.91,2.91,0,0,1,.35-.17,1,1,0,0,1,0,.16,0,0,0,0,0,0,0l.68.5c1.3.95,4.34,3.19,4.53,3.35h0c.32-.25,2.87-1.74,4.3-1.71h0a1,1,0,0,1,0-.25l.42.12v0a8.24,8.24,0,0,1,3.45-1.3h0v0a.53.53,0,0,0,.05-.19,2.39,2.39,0,0,1,.26.22,13.56,13.56,0,0,0-3.47,1.2h0v0a.65.65,0,0,1-.3.42.75.75,0,0,1-.68,0h0c-.85,0-2.73,1.06-3.63,1.56m3.57-1.46h0m-.07,0h0m-8.42-4a0,0,0,0,1,0,.05s-.05,0-.06,0h0s0,0,0,0,0,.05,0,.06,0,0,0,0h0s0,0-.05,0,0,0,0,0,0,0,0,0l0,0,0,0s0,0,.06,0,0-.07,0-.07.05,0,.07,0,0,0,0,0,0,0,0,.05,0,0,0,0m.22-.14s0,0,0,0,0,0,0,0,0,0,0-.05,0,0,0,0,0,0,0,0,0,0,0,0h0s0,0,0,0l0,0s0,0,0,0m.07-.12s0,0,0,0,0,0,0,0,0,0,0,0h0s0,0,.05,0,0-.05,0-.06,0,0,0,0,0,0,0,0,0,0,0,0,0,0,0,0h0l0,0s0,0-.06,0,0,.06,0,.07,0,0-.06,0,0-.05,0-.07m.36-.18s0,0,0,0,0,0,0,0,0,0,0,0,0,0,0,0a0,0,0,0,1,0,.05s0,0,0,0,0,0,0,0,0,0,0,0m.37-.09h0s0,0-.05,0,0,.05,0,.05,0,0,0,0,0,0,0,0,0,0,0,0,0,0,0,0,0-.07,0-.08,0,0,0,0,0,0,.06,0l0,0s0,0,0,0,0,0,0,0,0,0,0,0,0,0,0,0,0,0,0,0m.21-.11s0,0,0,0,0,0,0,0,0,0,0,0,0,0,0,0,0,0,0,0,0,0-.05,0,0,0,0,0,0,0,0-.05m.31-.06s0-.05,0-.05,0,0,0,0,0-.07,0-.08h.05s0,0,0,.05h0s0,.08,0,.08h0s0,0,0,0m0,0h0m-.1,0s0,0,0,0,0,0,0,0h0s0,0,0,0,0,0,0,0,0,0,0,0m.24,0h0s0,0,0,0m.19,0s0,0,0,0,0,0,0,0,0,0,0,0,0,0,0,0,0,0,0,0,0,0,0,0,0,0,0,0,0,0,0,0m.23,0s0,0,0,0,0,0,0,0l0,0s0,0,0,0,0,0,.05,0,0,0,0,0,0,0,0,0,0,0,0,0l-.05,0h0s0,.05,0,.05,0,0-.05,0,0,.07-.05.06,0,0,0-.06m.39,0,0,0s0,0,.05,0a0,0,0,0,1,0,0s0,0,0,0,0,0-.05,0,0,0,0-.05m.22,0h0s0,0,0,0m0,0s0,0,0,0h.08s0,.05,0,.05,0-.06,0-.06l.06,0s0,0,0,0,0,0,0,0,0,.06,0,.06,0,0,0,0h0s0,0,0,0h0m.39,0s0,0,0,0,0,0,0,0,0,0,0,0,0,0,0,0,0,0,0,0,0,0,0-.05m.26.06h.07s0,0,0,0h0s0,0,0,0,0,0,0,0,0,0,0,0,0,0,0,0h-.08s0,0,0,0m0,0h0s0,0,0,0h0m-.05.05s0,0,0,0h0s0,.05,0,.05m.41,0h.07v0h0l0,0h0m.08,0h0m.27.08h0v0h0a0,0,0,0,1,0,0m0,0h0s0,0,0,0,0,0,0,0h0m-.16-.06s0,0,0,0,0,0,0,0,0,0,0,0a.07.07,0,0,1,0,.05h0s0,0,0-.05,0,0,0,0m.09,0h0l0,0h0s0,0,0,0m.28.1h0s0,0,0,0,0,0,0,0h0s0,0,0,0l0,0m.2.08v0s0,0,0,0,0,0,.05,0h0s0,0-.06,0,0,0,0,0m.09,0,0,0s0,0,0,0l0,0s0,0,.06,0h0s0,0-.06,0l0,0s0,0,0,0,0-.06,0-.07m-4.21.51s0,0,0,0,0,0,0,0,0,0,0,0,0,0,0,0,0,0,0,0,0,0,0,0,0,0,0,0,0,0,0,0,0,0-.05,0,0,0,0,0m.14-.13s0,0,0,0,0,0,0,0,0,0,0,0,0-.06,0-.07,0,0,.05,0,0-.05,0-.06,0,0,.05,0a.1.1,0,0,1,0,.05s0,0,0,0,0,0,0,0,0,.05,0,.06l0,0s0,0-.05,0h0s0,.07,0,.07,0-.06,0-.07-.05,0-.06,0m.47-.22s0,0,0,0,0,0-.05,0h0s0,0,0,0,0,0,0,0,0,0,.06,0,0,0,0,0,0,0,0,.05M12,17h0s0-.06,0-.07h0s0,0,0,0,0,0,.05,0,0,0,0,0,0,0,0,0,0,0,0,0l0,0s0,.06,0,.06,0,0-.05,0,0,.05,0,.06H12s0,0,0,0,0,0,0-.07,0,0,.06,0m.42-.1s0,0,0,0,0,0-.05,0,0,0,0,0l0,0,0,0s0,0,0,0,0,0,.05,0,0,0,0,.05m.18-.06s0,0,0-.05,0,0,.05,0h0s0,0,0,0,0,0,.05,0,0,0,0,.06.07,0,.06,0,0,0-.06,0h0s0,.06,0,.06h0s0,0,0,0,0,0-.05,0,0,0,0-.05,0,0,0-.05,0,0,.07,0m.36-.05s0,0,0,0l0,0s0,0,.05,0,0,0,0,0,0,0,0,0,0,0-.05,0,0,0,0,0,0,0,0,0m.24,0s0,0,0,0,0,0,0,0,0,0,0,0m0,0h0s0,0,0,0,0,0,0,0,0,.05,0,.05,0,0,0,0,0,0,.06,0,0,0-.05.05,0,.06,0,.06,0-.05,0-.05,0,0,0,0,0,0-.05,0m0,0h0m.35-.05s0,0,.05,0,0,0,0,0,0,0,0,0,0,0,0,0h0s0,0,0,0m.27,0s0,0,0,0h0s0,0,0,0,0,0,0,0h0s0,0,0,0,0,0,0,0,0-.06,0-.06,0,.05,0,0a.05.05,0,0,1,0-.07h.06m.17.05s0,0,0,0,0,0,0,0,0,0,0,0m0,0h0v0m.3,0s0,0,0,0,0,0,0,0,0,0,0,0,0,0,0,0h0s0,0,0,0m.15,0s0,0,0,0,0-.06,0-.05h.08s0,0,0,0l0,0s0,0,0,0h-.08s0,0,0,0h0s0,0,0,0,0,0,0,0h0m0,0s0,0,0,0,0,0,0,0m.38.07h0s0,0,0,0h.09a0,0,0,0,1,0,0h0s0,0,0,0,0,0,0,0h0m.36.08h0a0,0,0,0,1,0,0h0m0,0h0l0,0s0,.05,0,.05l0,0a.06.06,0,0,1,0,0m-.16-.06,0,0h0s0,0,0,0,0,0,0,0,0,0,0,0m.07,0h0l0,0s0,0,0,.05h0a0,0,0,0,1,0,0s0,0,0,0m.28.13s0,0,0,0h0m0,0h0s0,0,0,0v0s0,0,0,0m.21.06a0,0,0,0,1,0,0h-.07a0,0,0,0,1,0,0l0,0m.07.08s0,0,0,0,0,0,0,0a0,0,0,0,1,0,0h0s0,0,0,0,0,0,0,0m.07,0s0,0,0,0l0,0s0,0,0,0m-.13-.07h0a0,0,0,0,1,0,0h0s0,0,0,0m0,0a0,0,0,0,1,0,0s0,0,0,0h0s0,0,0,0m-4.27.6v0s0,0,0,0-.06,0-.07,0l0,0,0,0s-.05,0-.06,0,0,.07,0,.06,0,0,0,0,0-.06,0-.07h0s0,0,0,0,0,0,0,0,0,0,0,0l0,0h0s0-.06,0-.07,0,0,0,0,0,0,.05,0,0,0,0,.05h0m-.2.09h0s0,0,0,0m.37-.25s.05,0,.05,0-.05,0-.07,0,0,0,0,0,0,0,0,0l0,0,0,0s0,0,0,0,0,0,.05,0,0,0,0,0,0,0,0,0m.34-.21s0,0,0,0,0,0,0,.05,0,0-.06,0,0,0,0,0,0,0,0,0l0,0s0,0,0,0,0,0-.05,0l0,0s0,0,0,0,0,0,0,0,0-.06,0-.07l0,0h0s0,0,0,0,0,0,0,0,.05,0,.06,0m.2-.09s0,0,0,0,0,0,0,0,0,.06,0,.05,0,0,0-.05,0,0,0-.05,0,0,.05,0,0,0,0,0,0,0,0,0m.15-.08h0m.15,0h-.08l0,0s0,0,0-.05-.06,0-.06,0,0,0,0,0h0l0,0s0,0,0,0,0-.05,0-.06h0s0,0,0,0,0,0,0,0,0,0,0,0,0,0,0,0,0,.06,0,.07m.21-.14s0,0,0,0,0,0,.05,0,0,0,0,0,0,0,0,.05,0,0,0,0,0,0,0,0,0,0,0,0,0,0,0,0m.68-.11s0,0,0,0,0,0,0,0,0,0,0,0,0,0,0,0,0,0,.06,0,0,0,.05,0,0,0,0,0,0,0,0,0m.17-.06h0s0,0,0-.06h0s0,0,0,0,0,0,0,0,0,0,0,0h0s0,0,0,0,0-.05,0-.05h0s0,0,0,0,0,0,0,0,0,0,0,0,0,0,.05,0m.44,0s0,0,0,0h-.05s0,0,0,0,0,0,0,0,0,0,0,0,0,0,0,0m.18-.08s0,0,0,0h0s0,0,0,0h0s0,0,0,0,0,0,0,0h0s0,0,0,0h0s0,0,0,0h0s0,0,0,0,0,0,0,0,0,0,0,0m.44.1s0,0,0,0,0,0-.05,0,0,0,0-.05h.05s0,0,0,0,0,0,0,0m.17,0h0s0,0,0,0h0m0,0h0s0,0,0,0h0s0,0,0,0,0,.05,0,.07,0,0,0,0,0,0-.05,0,0,0,0,0,0,0,0,0h0s0,0,0,0m-.05,0h0s0,0,0,0m.46.09h0l-.05,0h0l0,0m-.09,0h0m.39.08h0s0,0,0,0h0s0,0,0,0h0m-.16-.05s0,0,0,0h0s0,0,0,0h-.11s0,0,0,0m.14,0h0s0,0,0,0h0m.21.14h0m0,0h0m0,0h0s0,0,0,0l0,0m.31.16h0s0,0,0,0,0,0-.05,0,0,0,0,0m.06,0h0m-.17-.06,0,0h0s0,0,0,0,0,0,0,0h0s0,0,0,0,0,0,0,0m0,0a0,0,0,0,1,0,0s0,0,0,0,0,0,0,0h0s0,0,0,0M11.64,18s0,0,0,0h0s0,0,0,.05h0l0,0s0,0-.06,0,0,0,0,0h0s0,0,0,0,0,0,0,0h0s0-.06,0-.08l0,0s0,0,0,0,0,0,0,0,0,0,0,0,0,0,0,0l0,0m-.12.15s0,0,0,0m.35-.26,0,0h0s0,0,0,0,0,0,0-.05,0,0,0,0,0,0,0,0,0,0,0,0l0,0h0s0,0,0,0,0,0,0,0,0,0,0,0m.3-.18s0,0,0,0h0s0,0,0,0,0,0,0,0,0,0,0,0,0,.08,0,.07,0-.05,0-.07,0,0,0,0,0,0,0,0,0,0,0-.06,0,0,.05,0,0,0,0,0,0,0,.06,0,0,0,0,0,0,0,0,0,0,0,0,0,0,0,.05,0a0,0,0,0,1,0,0m.24-.1s0,0-.05,0,0,0,0,0,0,0,0,0,0,0,0,0,0,0,0,0,0,0,0,0,0,0,0,0,0,0,0,0,0,0,0,.05.06,0,.05,0m.29-.09s0,0,0,0,0,0,0,0,0,0-.05,0,0,0,0,0,0,0,0,0,0,0,0-.05,0,0,0,0,0,0,0,0,0,0,0,0,0,0,0,0,0,0,0,0l0,0s0,0,0,0,0,0,0,0,0,0,0,0,0,0,0,.05m.18-.16s0,0,0,0,0,0,0,0,0,0,0,.05,0,0,0,0,0,0,0,0l0,0h0s0,0,0,0a.08.08,0,0,1,0,0s0,0,0,0m.36,0s0,0,0,0,0,0-.05,0l0,0h0s0,0,0,0,0,0,0,0,0,0,0,0,0,.05,0,.05,0,0,0,0h0s0,0,0,0,0-.06,0-.05a.07.07,0,0,1,0,.05s0,0,0,0,0,0,0,0,0,0,0,0m.22-.08s0,0,0,0,0,0,0,0h0s0,0,0,0a0,0,0,0,1,0,0s0,0,0,0,0,0-.05,0,0,0,0,0,0,0,0,0,0,0,0,0m.34,0s0,0,0,0h0s0,0,0,0h0a0,0,0,0,1,0,0s0,0,0,0,0,0,0,0h0s0,0,0,0h0s0,0,0,0,0,0,0,.06,0,0,0,0l0,0s0-.05,0-.05m.37-.06s0,0,0,.05,0,0,0,0,0,0,0,0h0s0,0,0-.06,0,0,0,0h0s0,0,0,0m.14,0h0s0,0,0,0,0,0,0,0h0s0,0,0,0,0,0,0,0,0,0,0,0,0,0,0,0h0s0,0,0,0h0s0,0,0,0h0s0,0,0,0m.46,0s0,0,0,0H14.7s0,0,0,0,0,0,0,0,0,0,0,0h.07m.31.05h0s0-.05,0,0,0,0,.05,0,0,0,0,0,0,0,0,0m-.17,0s0,0,0,0h0s0,0,0,0m0,0h0s0,0,0,0a0,0,0,0,1,0,0s0,0,0,0h-.05m.09,0h0s0,0,0,0h0s0,0,0,0,0,0,0,0m.28,0s0,0,0,0,0,0,.05,0h0s0,0-.05,0v0a0,0,0,0,0,0,0m.3.09h0s0,0,.05,0,0,0,0,0,0,0,0,0h0a0,0,0,0,1,0,0m.1,0h0s0,0,0,0,0,0,0-.05m-.1,0h0s0,0,0,0h0s0,0,0,0,0,0,0,0l0,0s0,0,0,0m.09,0h0m.36.22h0m.08.06h0s0,0,0,0m-.07-.05,0,0h0v0h0s0,0-.05,0,0,0,0-.05m.12.08h0m-.18-.1h0l0,0v0M12.07,18s0,0,0,0,0,0,0,0,0,0,0,0h0s0,0,0,0,0,0,0,0,0,0,0,0,0,0,0,0,0,0,0,0h.08s0,0,0,0m.12-.08,0,0s0,0,0-.05,0,0,.05,0l0,0s0,0,0,0,0,0,0,0,0,0,0,.05,0,0,0,0,0,0,0,0,0,.05,0,.06-.05,0-.06,0,0,0,0,.05h0s0,0,0,0,0,0,0,0,0,0,0,0m.48-.15s0,0-.06,0l0,0s0,0,0,0,0,0,0,0,0,0,0,0,0,0,0,0l0,0h0l0,0s0,0,0,.05m.27-.14s0,0,0,0,0,0,0,0l-.06,0,0,0s0,0-.05,0,0,0,0,0,0,0,0,0,0,0,0,0,0,0,0,0h0s0,.06.06.05,0-.06,0-.05,0,0,0,0,0,0,0,0m.25-.1s0,0,0,0a0,0,0,0,1,0,0h0s0,0,0,0,0,0,0,0,0,0,0,0,0,0,0,0l0,0s0,0,0,0,0,0,0,0m.57-.09h0s0,0,0,0,0,0,0,0,0,0,0,0,0,0,0,0h0s0,0,.05,0,0,0,0,0,0,0,0,0h0m.25-.09h.08s0,0,.06,0,0,0,0,.07,0,0,0,0h0l-.05,0h0s0,0,0,0,0,0,0,0,0,0,0,0,0,0,.06,0,0,0,0,0m.29,0s0,0,0,0,0,0,0,0,0,0,0,0a0,0,0,0,1,0,.06s0,0-.05,0,0,0,0,0,0,0,0,0,0,0,0,0m.36,0s0,0,0,.05,0,0,0,0,0,0,0,0,0,0,0,0h0s0,0,0,0,0,0,0,0,0,0,0,0,0,0,0,0,0,0,0,0h.09m.27,0s0,0,0,0,0,0,0,0,0,0,0,0h-.11s0,0,0,0,0,0,0,0m.34,0s0,0,0,0,0,0,0,0,0,0,0,0,0-.06,0-.06,0,0-.05,0h0s0,0,0,0,0,0,0,0,0,0,0,0,0,0,0,0,0,0,0,0,0,0,0,0m.56.12h0l0,0h0s0,0,0,0,0,0,0,0v0l0,0s0,0,0,0,0,0,0,0,0,0-.05,0,0,0,0-.05,0,0,0,0,0,0,0,0,0,0,.05,0m.36.31s0,0,0,0h0m0,0h0l0,0s0,0,0,0,0,0,0,0,0,0,.05,0h0s0,0-.05,0l0,0s0,0,0,0h-.05M12,18.51h0m.2-.06s0,0-.05,0,0,.05,0,.06l0,0,0,0s0,.06,0,.07,0,0-.05,0,0,0,0,0H12s0,0,0,0,0,0,0-.06l0,0s0-.06,0-.06l0,0s0,0,0,0,0,0,0,0,0,0,0,.05h0m.11-.12s0,0,0,0-.05,0,0,0,0,0,0,0,0-.05,0-.07,0,0,.05,0,0,0,0,0,0,0,0,0,0,0,0,0,0,0,0,0,0,0,0,0,0,.05,0,.05,0,0,0-.05m.39-.28s-.05.05,0,.07,0,0,0,0,0,0,0,0,0,0,0,0,0,0,0,0,0,0-.05,0,0,.07,0,.07,0-.05,0-.06,0,0,0-.05-.05,0,0,0,0,0,0,0,0,0,0,0,0-.06,0-.07,0,0,.05,0,0,0,0,0,.05,0,.05,0m.23-.09s0,0,0,.05,0,0-.05,0,0,0,0,0h0s0,0,0-.05-.05,0-.06,0,0,0,0-.05,0,0,0,0h0s0,0,0,0,0,0,0,0m.29-.05h0s0,0-.05,0,0,.07,0,.07,0,0-.05,0,0-.05,0-.07-.07,0-.06,0,0,0,.07,0,0,0,0,0,0,0,0,0,0,0,.05,0,0,0,0,0,0,0,0,.05,0,0,0,.05,0,0,0,0m.26-.18s0,0,0,0,0,0,0,0,0,0,0,0l0,0s0,0,0,0l0,0s0,0,0,0,0,0,0,0h0s0,0,0,0m.27,0s0,0,0,0l0,0s0,0,0,0,0,0,0,0,0,0,0,0,0-.05,0-.05,0,0,.05,0h0s0,0,0,0,0,0,0,0a.07.07,0,0,1,0,.05s0,0,0,0,0,0,0,0,0,0-.05,0m.3-.06h0s0,0,0,0l0,0s0,0,0-.05,0,0,.06,0h0s0,0,0,0,0,0,0,0,.05,0,0,0,0,0-.06,0m.52-.06s0,0,0-.05,0,0,0,0h0s0-.05,0,0a0,0,0,0,1,0,.06s0,0-.05,0h0s0,0,0,0m.43-.05s0,0,0,0m-.1,0s0,0,0,0,0,0,0,0h0s0,0,0,0h0s0-.05,0-.05,0,0,0,0,0,0,0,0a.05.05,0,0,1,0-.07s0,0,.06,0h0m.4,0a0,0,0,0,1,0,.05s0,0-.05,0h-.08a0,0,0,0,1,0-.05s0,0,.05,0h0s0,0,.05,0m.25,0h0s0,0,0,0h0s0,0,0,0h0s0,0,0,0h0l0,0a0,0,0,0,1,0-.05s0,0,.05,0l0,0s0-.05.05-.05m.06.05h0s0,0,0,0m.25,0h0m0,0s0,0,0,0v0s0,0,0,0,0,0,0,0m-.08,0h0s0,0,0,0h0m.35,0H16s0,0,0,0,0,0,0,.05,0,0,0,0,0,0,0,0,0,0,0,0l0,0m-.1,0h0m.17,0s0,0,0,0,0,0,0,0,0,0,0,0h0s0,0,0,0M16,17.65h0s0,0,0,0h0m.24.23,0,0h0s0,0,0,0h0m0,0h0m.22.12h0s0,0,0,0m0,0h0m.07,0h0s0,0,0,0,0,0,0,0h0s0,0,0,0m-.14,0s0,0,0,0,0,0,0,0,0,0,0,0h0m-4,.66h0m0,0s0,.05,0,.07-.05,0-.06,0l0,0,0,0s0,0,0,0-.05.05-.06,0,0-.06,0-.08-.06,0-.07,0l0,0a.1.1,0,0,1,0,0s0,0,0-.05l0,0s0,0,0,0,0,0,.05,0,0-.06,0-.05,0,0,0,.05h0m0,0h0m.21-.12s0,.05,0,.06,0,0-.05,0h0s0,0,0,0,0,0,0,0,0,0,.06,0,0,0,0,0,0,0,0,0,0,0,0,0,0,0,0,0,0,0,0,0,0,0-.05,0m.54-.32s0,0,0,0,0,0,0,0H13s0,0,0,0,0,0,0-.05,0,0,0,0,0,0,.06,0l0,0s0,0,0,0,0,0,0,0,0,0,0,0m.33-.09s0,0,0,0,0,0,0,0l0,0s0,0,0,0,0,0,0,0,0,0,0-.05,0,0,0,0,0,0,0,0,0,0,0,0,0,0,0,0,0,0,0-.05,0,0,0,0,0,0,0,0,0,0,0,.05m.23-.13s0,0,0,0,0,0,0,0,0,0-.05,0,0,0,0,0,0,0,0-.06,0,0,0,0,0,0,0,0l0,0h0s0,0,0,0m.16-.05s0,0,0,0,0,0,0,0,0,0,0,0,0-.05,0-.05,0,0,0,0,0,0,0,0,0,0,0,0,0,0,0,0,0,0,0,0l0,0s0,0,0,0,0,0-.05,0,0,.05,0,0,0,0,0-.06m.44-.09s0,0,0,0,0,0,0,0,0,0,0,0h-.05s0,0,0,0,0,0,0-.05,0,0,.06,0,0,0,0,0,0,0,0,0,0,0,0,0m.14,0s0,0,0,0,0,0,0,0,0,0,0,0,0,0,0,0,0,0,0,0,0,0,0,0,0,0,0,0,0,0,0,0h0s0,0,0,0h0s0,.05,0,0,0,0,0-.05m.33,0s0,0,0-.05,0,0,0,0,0,0,0,0,0,0,0,0,0,0,0,.05,0,0,0,0,0,0-.05,0,0,0,0,0m.37-.07s0,0,0,0,0,0,0,0,0,0,0,0h0s0,0,0,0,0,0,0,0,0,0,0,0,0,0-.05,0,0,0,0-.05,0,0,.05,0,0,0,0,0,0,0,0,0m.36,0s0,0,0,.05h-.09s0,0,0,0,0,0,0,0,0,0,0,0h0s0,0,.05,0m.32.08h-.05s0,0,0,0h0s0,0,0,0,0,0,0-.05,0,0,0,0,0,0,.05,0h0s0,0,0,0,0,0,0,0,0,0,0,0,0,0,0,0m.18,0h0l0,0,0,0,0,0h0s0,0,0,0H16s0,0,0,0l0,0s0,0,0,0m.39.09h0s0,0,0,0,0,0,0,0,0,0,0,0l0,0h0s0,0,0,0h.11s0,0,0,0m0,0h0s0,0,0,0m.06.17h0m0,0h0m.19.11h0s0,0,0,0l0,0m0,0h0s0,0,0,0h-.05m-4,.68v0h0s0,0,0,0h0s0,0,0,0,0,0,0,0,0,0,0,0,0,0,0,0,0,0-.07,0v0s0,0,0,0l.05,0h.05a.06.06,0,0,0,0,0,0,0,0,0,0,0,0s0,0,0,.05.05,0,.06,0m.25-.13s0,0,0,0,0,0-.06,0,0,0,0,0,0,0,0,0,0,0,0,0,0,0,0,0,0,0,.05,0l0,0s0-.06,0-.05,0,0,0,.05,0,0,0,0,.06,0,.06,0m.25-.21s0,0,0,.05,0,0,0,0,0,.05,0,.06,0,0,0,0,0,0-.06,0,0,0,0,0,0,0,0-.05,0,0-.05,0,0,0,0,0,0,0,0,0,0,0,0,0,0-.06,0-.07h.07s0,0,0,0,0,0,0,0m.25-.12s0,0,0,0,0,0,0,0l0,0h0s0,0,0,0,0,0,0,0,0,0,0,0,0,0,0,0,0,0,.05,0,0,0,0,0,0,0,0,0,0,0,0,0m.23,0s0,0-.05,0,0,.05,0,.05,0,0-.05,0,0,0,0-.06,0,0,0-.05,0,0,0,0h.07s0,0,0,0,0,0,0,0,0,0,0,.06,0,0,0,0,0,0,0,0,0,0,0,0m.28-.12h0s0,0,0,0,0,0,0,0,0,0,0,0,0,0,.05,0l0,0s0,0,0,0,0,0,0,0,0,0,0,.06,0,0-.06,0m.14-.09s0,0,0,0,0,0,0,0,0,0,0,0h0s0,0,0,0,0,0,0,0a.05.05,0,0,1,0,0s0,0,0,0,0,0,0,0,0,0,0,0,0,0,0,0,0,0,0,0h0s0,0,0,0m.34-.08s0,0,0,0,0,0,0,0,0,0,0,0,0,0,0,0,0,0,0,0,0,0,0,.05,0,0-.06,0l0,0s0,0,0,0,0,0,0,0m.38,0s0,0,0,0h0s0,0,0,0,0,0,0,0,0,0,0,0h.08s0,0,0,0l0,0s0,0,0,0,0,0,0,0,0,0,0,0,0,0,0,0,0,.05,0,.05M15,18s0,0,0,0h.05s0,0,0,0,0,0,0,0,0,0,0,0H15s0,0,0,0m.33,0h0s0,0,0,0,0,0,0,0h-.11s0,0,0,0,0,0,0,0,0,0,0,0m.08,0s0,0,0,0,0,0,0,0,0,0,0,0m0,0h0m.19,0s0,0,.05,0,0,0,0,0h0s0,0,0,0,0,0,0,0,0,0,0,0h-.05s0,0,0,0m.69.07h0m0,0s0,0,0,0,0,0,0,0,0,0,0,0,0,0,0,0m-.1,0s0,0,0,0l0,0s0,0,0,0,0,0,0,0h-.1v0a0,0,0,0,0,0,0m.4.06s0,0,0,0,0,0,0,0,0,0,0-.05,0,0,0,0,0,0,0,0,0,0,0,0,0,0,0,0,0,0,0,0h0l0,0s0,0,0,0,0,0,0,0m.05.23h0l-.05,0h0l0,0m.22.14s0,0,0,0h0l0,0,0,0v0h0s0,0,0,0m0,0s0,0,0,0h0s0,0,0,0m0,0h0m-3.77.5s0,0,0,0,0,0,0,0,0,0,0,.05,0,0,0,0,0,0,0,0l0,0s0,0,0,0,0,0,0,0,0,0,0,0h0s0,0,0,0,0,0,0,0,0,0,0,.05,0,0,0,0m.22-.21s0,0,.05,0,0,0,0,0,0,0,0,0,0,0,0,0,0,0-.05,0,0,0,0,0,0,0,0,0,0,0,0-.05,0,0,0,0,0,0,.05,0,0,0,0-.05,0,0,.06,0,0,0,0,0,0,0,0,0m.29-.09s0,0,0,0,0,0,0,0,0,0,0,.05H13.5l0,0s0,0,0-.05,0,0,0,0h0s0,0,0,0,0-.05,0,0,0,0,0,0,0,0,0,0,0,0,0,0m.54-.21s0,0,0,0l0,0s0,.05,0,0,0,0,0,0,0,0,0,0,0,0,0,0l0,0,0,0s0,0,0,0,0,0,0,0,0,0,0,0,0,0,0,0m.29,0h-.08s0,0,0,0,0,0,0,0,0,0,0,0,0,0,0,0h0s0,0,0,0,0,0,0,0,0,0,0,0,0,0,0,0,0,0,0,0m.29-.09s0,0,0,0l0,0s0,0,0,0l0,0s0,0,0-.05,0,0,.05,0,0,0,0,0,0,0,0,0,0,0,0,0,0,0,0,0,0,0,0,0h0m.28-.07s0,0,0,0h0s0,0,0,0,0,0,0,0,0,0,0,0,0,0,0,0h0s0,0,0,0,0,0,.06,0,0,0,0,.05,0,0,0,.05-.05,0-.07,0m.55-.12h0s0,0,0,0,0,0,0,0,0,0,0,0,0,0,0,0l0,0,0,0s0,0,0,0,0,0,0,0,0,0,.05,0m.37.05s0,0,0,0h0s0,0,0,0h0s0,0,0,0h.07s0,0,0,0,0,0,0,0,0,0,0,0m.28,0s0,0,0,0,0,0,0,0,0,0,0,0m0,0h0m0-.05s0,0,0,0,0,0,0,0,0-.05,0-.05,0,0,0,0,0,0,0,0,0,0,0,0h0m.22.06h0l0,0s0,0,0,0h0l0,0s0,0,0,0,0,0,0,0v0h0s0,0,0,0h0s0,0,0,0h0m.29,0h0s0,0,0,0h0s0,0,0,0,0,0,0,0l0,0,0,0s0,0,.05,0l0,0s0,0,0,0,0,0,0,0,0,0-.05,0,0,0,0,0h0s0,0,0,0m.16.29s0,0,0,0h0l0,0h0m.23.13s0,0,0,0l0,0h0l0,0h0m0,0H17l0,0a0,0,0,0,1,0,0s0,0,0,0h0s0,0,0,0m0,0h0v0h0m-3.84.55s-.05,0-.05,0,.06,0,.07,0l0,0s0-.06,0-.07,0,0,.05,0,0,0,0,0,0,0,0,0,0,0,0,0,0,0,0,0l0,0s0,0,0,0,0,0-.05,0,0,0,0,0,0,0,0,0m.45-.16s-.05,0-.07,0h0s0,0,0,0h0s0,0,0,0l0,0s0,0,0,0,0,0,0,0,0,0,0,0l0,0s0,0,.05,0,0,.05,0,.07l0,0s.07,0,.07,0m.24-.14s0,0,0,0,0,0-.06,0l0,0s0,.07,0,.06,0,0,0-.06,0,0,0,0,0,0,0,0,0,0,0,0,0,0,0,0l0,0h0s0,0,0,0,0,0,0,0,0,0,0,0m.27-.11s0,0,0,0,0,0,0,0,0,0,0,0,0,.05,0,0,0,0,0,0,0,0,0,0,0,0,0,0,0,0,0,0h0s0,0,0,0,0,0,0,0,0,0,0,0,0,0,0,.05m.22-.12s0,0,0,0h0s0,0,0,0,0,0,0-.05a.06.06,0,0,1,0,0s0,0,0,0,0,0,0,0,0,0,.05,0,0,0,0,0,0,0,0,0a.07.07,0,0,1,0,.06s0,0-.06,0m.18-.08s-.06,0-.05,0,0,0,.06,0,0,0,0,0,0,0,0,0,0,0,0,0,0,0,0,0,0,0,0,.06-.05,0-.07,0l0,0s0,0,0,0h0s0-.05,0-.06m.36,0s0,0,0,0,0,0-.05,0,0,0,0-.07,0,0,0,0l0,0s0,0,0,0,0,0,0,0,0,0,.05,0,0,0,0,.05,0,0,0,0,0,0,0,0,0,0,0,0m.28,0s0,0,0,0,0,0,0,0,0,0,0,0a0,0,0,0,1,0-.05s0,0,0,0l0,0h.08s0,0,0,0,0,0,0,0l0,0h0m.34-.06h-.08s0,0,0,0,0,0,0-.06,0,0,0,0h0l0,0s0,0,0,0a.06.06,0,0,1,0,.06l0,0m.31-.07s0,0,0,0,0,0,0,0h-.11s-.05,0,0-.06,0,0,.06,0h.08s0,0,0,0m.32,0s0,0,0,.06h0s0,0,0,0,0,0,0,0,0,0,0,0a0,0,0,0,1,0,0s0,0,.05,0h.07s0,0,.05,0m.16,0,0,0s0,0,0,0h.05s0,0,0,0,0,0-.05,0h0s0,0,0,0,0,0,0,0,0,0,0,0,0,0,0,0m.27,0h0m.16,0h-.05l0,0,0,0s0,0,0,0h0s0,0,0,0h.07l0,0h0m-.15,0h0m.26.05h0s0,0,0,0,0,0,0,0,0,0,0,0l0,0s0,0,0,0H17s0,0,0,0,0,0-.05,0m.13.25h0m0,0,0,0h0m.22.14h0s0,0,0,0,0,0,0,0m.06,0h0v0l0,0m0,0h0l0,0h0s0,0,0,0,0,0,0,0,0,0,0,0m-3.92.64,0,0s0,0,0,0,0,0,0,0h0l0,0a.11.11,0,0,0,0,.06l0,0s0,0,0,.05l0,0s0,0,0-.05h0s0,0,.05,0l0,0s0,0,0,0,0,0,0,0v0l0,0m-.1.1h0m0,0h0m.42-.22s-.06,0-.07,0,0,0,0,0,0,.05,0,.06,0,0-.05,0,0,0,0,0,0,0-.06,0,0,0,0,0,0,0,0,0l0,0h0s0,0,0,0l0,0,0,0s0,0,0,0m.11-.26s0,0,0,0,0,0,0,0l0,0s0,0,0,0,0,0,0,0,0,0,0,0,0,0,0,0,0,0,0,0,0-.05,0-.07l0,0s-.05,0,0,0,0,0,.05,0,0,0,0,0,0-.05,0-.06m.48-.12,0,0,0,0s.05,0,.06,0h0s0,0,0,0h.05s0,0,0,.05l0,0s0,0,0,0,0,0-.06,0,0,0,0,0l0,0h0s0,0,0,0m.4-.1h0s0,0,0,0,0,0,0,0,0,0,0,0,0,0,0-.06,0,0,0,0h.08s0-.06,0-.05,0,.05,0,.07,0,0,0,0,0,0,0,0m.13-.1s0,0,0,0,0,0,0,0h0s0,0,0,0,0,0,0,0,0,0,0,0,0,0,0,0,0,0,0,0,0,0,0,0,0,0-.05,0h0s0,0,0,0m.31-.08s0,0,0,0,0,0,0,0h0s0,0,0,0,0,0,0,0,0,0,0,0,0,0,0,0,0,0,0,0h0l0,0s0,0,0,0,0,0,0,0m.28-.07s0,0,0,0l0,0,0,0h0s0-.05,0,0,0,0,0,0,0,0,0,0,0,0,0,0h-.07s0,0,0,0,0,0,0,0m.37-.05s0,0,0,0,0,0-.05,0,0,0,0-.07,0,0,.05,0,0,0,0,0,0,0,0,0,0,0,0,0,0,0,0,.06,0,0-.05,0h0m.24-.07s0,0,0,0,0,0,0,0,0,0,0,0,0,0,0,0,0,0-.05,0,0,0,0,0h0s0,0-.05,0,0-.05,0-.07h0m.59,0h0s0,0,0,0,0,0,0,0,0,0,0,0,0,0,0,0h0s0,0,0,0,0,0,0,0,0,0,0,0,0,0,0,0m.36,0h0s0,0,0,0,0,0,0,0h0s0,0,0,0h.06m.24.05s0,0,0,0h0l0,0h0s0,0,0,0,0,0,0,0m-.05,0s0,0,0,0h0a0,0,0,0,1,0,0m0,0h0s0,0,0,0h0s0,0,0,0m.13,0h0m-.06.24h0s0,0,0,0l0,0m.24.16h0l0,0h0m0,0h-.05s0,0,0,0h0m.06,0v0l0,0h0m-3.86.7s0,0,0,0,0,0,0,0l0,0s0,.06,0,.07,0,0,0,0,0,0,0,0,0,0,0-.06h0l0,0s0-.05,0-.05h0s0-.06.05-.05,0,0,0,.05,0,0,0,0h0m.26-.19s0,0,0,0,0,0,0,0,0,0,0,0,0,0-.06,0,0,.08,0,.08,0-.06,0-.08,0,0,0,0,0,0,0-.05,0,0,.06,0,0,0,0,0l0,0s0-.07,0-.07,0,0,0,.06,0,0,0,0m.07-.09s0,0,0-.05,0,0,.06,0,0,0,0,0,0,0,0-.06,0,0,.05,0,0,0,0,.05,0,0,0,.05,0,0,0,0,0,0,0,.05,0,0,0,0l0,0h0s0,0,0,0,0,0,0,0m.45-.15s0,0,0,0,0,0,0,0,0,0-.05,0,0,0,0,0,0,0,0,0,0,0,0,0a.06.06,0,0,1,0,0l0,0s0,0,0,0,0-.05,0-.06,0,0,.06,0,0,0,0,.05,0,0,0,.05.06,0,.05,0m.08-.13s0,0,0,0h.11s0,0,0,0h0s0,0,0,0,0,0,0,0,0,0,0,0h0s0,0-.05,0,0,.06,0,.05l0,0s0,0,0,0m.4-.1,0,0,0,0h0s0,0,0,0a.06.06,0,0,1,0-.06s0,0,0,0,0,0,.05,0,0,0,0,0,0,0,0,0,0,0,0,0a.06.06,0,0,1,0,0s0,0,0,0m.28-.07H15.1s0,0,0,0,0,0,0,0,0,0,0,0,0,0,0,0,0,0,0,0h0s0,0,0,0,0,0,0,0,0,0,0,0,0,0,0,0m.25-.06s0,0,0,0,0,0-.05,0,0,0,0,0,0,0,0-.05,0,0,.06,0l0,0h0s0-.05,0,0,0,0,0,.05,0,0,0,0,0,0,0,0,0,0,0,0m.33-.11s0,0,0,0,0,0,0,0,0,0,0,0h0s0,0-.05,0a.07.07,0,0,1,0,0s0,0,0,0,0,0,0,0h0s0,0,0,0,0,0,0,0,0,0,0,0m.23,0s0,0,0,0,0,0,0,0,0,0,0,0,0,0,0,0h0s0,0,0,0,0,0,0,0,0,0,0,0,0,0,0,0,0,0,0,0,0,0-.05,0m.35,0h-.1s0,0,0,0,0,0,0,0,0,0,0,0h.07s0,0,0,0,0,0,0,0m.23,0h.05s0,0,0,0h0s0,0,0,0h-.05m.07,0h0s0,0,0,0m-.14,0s0,0,0,0,0,0,0,0,0,0,0,0m0,0a0,0,0,0,1,0,0h0m.29,0h0m.06,0h0m.05,0h0s0,0,0,0m-.12,0h0s0,0,0,0,0,0,0,0m.1,0h0m0,0h0l0,0s0,0,0,0h0m.24,0h0m0,0h0m0,0s0,0,0,0h.07s0,0,0,0l0,0h-.07s0,0,0,0m.11,0h0m-.17,0h0m.17,0h0m-.14,0h0m.33.06h0l0,0m.06,0h0s0,0,0,0,0,0,0,0m-.11,0h0l0,0a0,0,0,0,1,0,0h-.05m0,.29h0m.2.14s0,0,0,0l.05,0s0,0,0,0h0l0,0s0,0-.05,0M13.89,20l0,0,0,0s0,.05,0,0a.06.06,0,0,1-.05,0l0,0v0s0,0,0,0l0,0h0s0,0,0-.05,0,0,0,0,0,0,0,0,0,0,0,0h0s0,0,0,.05,0,0,0,0m.24-.26s0,0,0,0,0,0,0,0,0,0,0,.06,0,0-.05,0,0,0,0,0l0,0,0,0s0,0,0-.05,0,0,0,0,0-.05,0-.07,0,0,0,0,0,0,0,0,0,0,0,0,0,0,0,.05m.21-.13s.07,0,.06,0,0,0-.06,0,0,0-.05,0,0,.07,0,.07,0,0,0-.06,0,0,0-.05,0,0,0,0,0,0,0,0h0s0,0,0,0,0,0,0,0,0,0,0,0m.11-.09s0-.05,0-.06,0,0,.06,0,0,0,0,0l0,0s0,0,0,0,0,0,0,0,0,0,0,0,0,0,0,0,0,0,0,0,0,0,0,0,0,0,0,.06a0,0,0,0,1-.05,0s0,0,0-.05,0,0-.06,0m.44-.17s0,0,0,0,0,0,0,0,0,0,0,0,0,0,0,0,0,0,0,0,0,0,0,0,0,0,0,0,0,0,0,0,0,0,.05,0,0-.05,0,0,0,0,0,0,0,0,0,0m.4-.17s0,0,0,0,0,0,0,0h0s0,0,.05,0,0,0,0,.06,0,0,0,0,0,0,0,0,0,0,0,0,0,0,0,0,0,0,0-.06m.36-.09s0,0,0,.05h0s0,0,0,0,0,0,0,0,0,0,0,0h.08s0,0,0,0,0,0,0,0,0,0,0,0,0,0,0,0,0,0,0,0m.22-.06s0,0,0,0h0s0,0,0,0,0,0,0,0,0,0,0,0,0,0,0,0,0,0-.05,0,0,0,0,0h0s0,0,0,0m.39-.06h-.08s0,0,0,0,0,0,0,0,0,0,0-.05h.06s0,0,0,0,0,0,0,0h.05a.07.07,0,0,1,0,.07s0,0-.06,0m.22-.06h0s0,0,.06,0a.08.08,0,0,1,0,.07s0,0-.06,0,0,0-.05,0,0,0-.05,0,0-.05,0-.07,0,0,.06,0m.41,0a0,0,0,0,1,0,.05s0,0,0,0,0,0,0,0h-.1s0-.06,0-.07,0,0,0,0h.09s0,0,.05,0m.17,0s0,0,.05,0,0,0,.05,0,0,0,0,0,0,0,0,0H17a0,0,0,0,1,0-.05s0,0,0,0m.4.05h0m-.08,0h0m-.05,0h0l0,0s0,0,0,0h0s0,0,0,0m.09,0h0m.18,0s0,0,0,0h.05l0,0v0l0,0,0,0s0,0-.05,0a0,0,0,0,1,0,0m0,.3,0,0h0m.21.14h0l0,0s0,0,0,0h0l0,0m.05,0h0s0,0,0,0M14.41,20s0,0,0,.05,0,0,0,0,0,0,0,0,0,0,0,0,0,0,0,0,0,.05,0,.05,0,0,0,0l0,0s0,0,0,0,0,0,0,0,0,0,0,0,0,0,0,0h0s0,0,0,0h0l0,0s.05,0,.06,0m0-.08s0,0,0-.05,0,0,.05,0,0,0,0,0,0,0,.05,0,0,0,0,.06,0,0,0,0,.05,0,0,0,0,0,0,0,0,0,0,0h0s0,0,0,0,0,0-.05,0m.43-.17s0,0,0,0,0,0,0,.05h0s0,0-.05,0h0s0,0,0,0,0,0-.06,0a.07.07,0,0,1,0-.06s0,0,0,0l0,0h.11s0,0,0,0,0,0,0,0,0,0,0,0m.22-.06h0s0,0,0,0,0,0,0,0,0,0,0,0,0,0,0,0,0,0,0,0,0,0,0,0,0-.05,0,0,0,0,0,0,0,0,0,0a0,0,0,0,1,0,.05s0,0-.05,0m.27-.1h-.11s0,0,0,0h0a0,0,0,0,1,0-.06s0,0,.06,0,0,0,0,0h0s0,0,0,0h0s0,0,0,0,0,0,0,0,0,0,0,0,0,0,0,0m.3-.14s0,0,0,0h0s0,0,0,0,0,0,0-.05,0,0,0,0,0,0,0,0h0s0-.05.05,0,0,0,0,.05a.06.06,0,0,1,0,0m.28-.05s0,0,0,0,0,.05,0,.05h0s0,0,0,0,0,0,0-.05,0,0,0,0a.05.05,0,0,1,0,0s0,0,0,0,0,0,0,0h0s0,0,0,0,0,0,0,0,.05,0,0,.05l-.05,0m.15-.1s0,0,0-.05h.09s0,0,0,0,0,0,0,0,0,0,0,0,0,0-.06,0,0,0,0,0h0s0,0,0,0m.66-.07h0s0,0,0,0,0,0,0,0h.08s0,0,.05,0,0,0,0,.05,0,0,0,0m.21-.05s0,0,0,0,0,0,0,0,0,0,0,0,0,0,.05,0a0,0,0,0,1,0,.06s0,0,0,0,0,0,0,0H17s0,0,0,0-.05,0,0,0,0,0,0,0m.4,0s0,0,0,0h0s0,0,0,0,0,0,0,0,0,0,0,0,0,0,0,0h0s0,0,0,0m.16,0s0,0,0,0h.14s0,0,.05,0v.05s0,0-.05,0l0,0h0s0,.05,0,0,0,0,0,0h0m.29.05a0,0,0,0,1,0,0s0,0,0,0H18v0h-.09l0,0m0,.32h0m0,0h0m.25.16h0m-.05,0h0a0,0,0,0,1,0,0h0m0,0h0a0,0,0,0,1,0,0h0m-3.62.81,0,0s0,0,0,0,0,.06,0,.05l0,0s0,0,0-.06h0s0,0,0,0,0,0,0,0h0a.11.11,0,0,0,.06,0s0,0,0,0,0,0,0,0h0l0,0s0,0,0,0m0-.07h0m.1-.06s0-.05,0-.06,0,0,0,0,0,0,0,0,0,0,0-.06l0,0s0,0,.06,0,0,0,0,0,0,0,0,0,0,0,0,.06.08,0,.08,0,0,0-.06,0,0,0,0,.05h0s0,0,0,0a.09.09,0,0,1-.06,0s0-.06,0-.08,0,0-.06,0m.33-.17s0,0,0,0,0,0,0-.06-.05,0-.05,0,0,0,0,0,0,0,0,0,0-.06,0-.06,0,0,0,.06,0,0,0,0,.06,0,.06,0,0,0-.05,0,0,0-.05,0,0,0,0,0m.33-.2s0,.05,0,.06l0,0s0,0-.05,0,0,0,0,0,0,0,0,0,0,0,0-.06-.06,0-.05,0,0,0,0,0,0,0,0,0,0,0,0,0,0,0,0-.05,0,0,0,0,0,.05,0,.06.05,0,.06,0,0,0,0,0,0,0,0,0m.17-.1h0s0,0,0,0,0,0,0,0h.1l0,0s0,0,0,0,0,0,0,0,0,0,0,0l0,0s0,0,0-.06m.22-.13s0,0,0,0,0,0,0,0m0,0h0m.14,0s0,0,0,0h0s0,0,0,0,0,0,0,0,0,.06,0,.05,0,0,0,0,0,0,0-.05h0s0-.05,0-.06,0,0,0,0l0,0h0s0,0,0,0,0,0,0,0m.24-.11s0,0,0,0,0,0,0,0,0,0,0,0,0,0,0,0,0,0,0,0,0,0,0,0l0,0s0,0,0,0l0,0s0,0,0,0m.15,0s0,0,0,0,0,0,0,0l0,0s0,0,0,0,0,0,0,0,0-.06,0-.05,0,0,0,0,0,0,0,0,0,0,0,0,0,0,0,0,0,.05,0,.06,0,0,0,0,0,0,0,0,0,0,0,0m.33-.14s0,0,0,0,0,0,0,0,0,0,0,0,0,0,0,0l0,0s0,0,0,0h0s0,0,0,0,0,0,0,0l0,0m.33,0s0,0,0,0,0,0,0,0,0,0,0,0,0,0,0,0-.05,0,0,0,0,0,.05,0,0,0,0,0,0,0,0,0,0,0,0,0,0,0,0,0,0,0,0,.06h0s0,0,0,0m.2-.07s0,0,.05,0h0s0,0,0,0,0,0,0,.06,0,0,0,0l0,0s0,0,0,0,0,0,0-.06m.43,0h0s0,0,0,0m-.09,0s0,0,0,0h0s0,0,0,0,0,0,0,0h0s0,0,0,0h0s0,0,0,0,0-.05,0-.07,0,0,.05,0,0,0,0,0m.32,0s0,0,0,0,0,0,0,0,0,0-.05,0h0s0,0,0,0,0,0,0-.05,0,0,0,0h0m.18,0s0,0,.05,0l0,0,.05,0,0,0h0s0,0,0,0,0,0-.05,0l0,0s0,0,0,0h0m0,0h0m.31,0s0,0,0,0h.11s0,0,0,0,0,0,0,0h0m-.08.33h0m.25.17,0,0h0m-.05,0h0m-3.54.82,0,0h-.05s0,0,0,0,0,0,0,0,0,0,0-.05h0a0,0,0,0,1,0,0v-.05l0,0s0-.05,0-.06,0,0,.05,0,0,0,0,0,0,0,0,0h0s0,0,0,0,0,0,0,0m.26-.16s0,0-.05,0l0,0s0,0,0,0,0,0,0,0,0,0,0,0l0,0s0,0,0,0,0,0,0-.05.07,0,.09,0,0,0,0,0l0,0,0,0h0s0,0,0,0,0,0,0,0,0,0,0,0,0,0,0,0,0,0,0,0m.17-.2s0,0,0,0,0,0,0,0l0,0s0,0,0,0,0,0,0,0l0,0s0,0,0,0,0,0,0,0,0,0,0,0,0,0,0,0a.08.08,0,0,1,0,0s0,0,0,.06m.1-.16s0,0,.05,0,0-.06,0-.07,0,0,.06,0,0,0,0,0,0,0,0,0,0,.05,0,.06,0,0,0,0,0,0,0,.05-.06,0-.08,0,0,0,0,0l0,0,0,0h0s0,0,0,0,0,0,0,0,0,0,0,0m.34-.07s0,0,0,0,0,0,0,0,0,0,0,0,0,0,.05,0,0-.05,0,0,0,0,0,0,0,0,0,0,.05,0,.05,0,0,0-.06,0,0,0,0,0,0,0,0,0,0,0,0-.05m.42-.14s0,0,0,0,0,0-.05,0,0,.06,0,.07,0,0-.06,0,0,.05,0,0a0,0,0,0,1,0,0s0,0,0,0,0,0,0,0,0,0,.06,0,0,0,0,0,0,0,.05,0h0s0-.07,0-.06,0,.05,0,.08.06,0,0,0m.22-.13a0,0,0,0,1,0,.05s0,0,0,0,0,0,0,0,0,0,0,0,0,0,0,0,0,0,0-.06,0,0,0,0,0,0,0,0,0,0,0,0,0,0,0,0m.24,0,0,0s0,0-.05,0,0,0,0,0,0,0,0,0,0-.05,0-.06.05,0,.06,0l.05,0s0,0,0-.05l0,0s0,0,0,0,0,0,0,0,0,0,0,.05l-.05,0s0,0,0,0m.21-.1s0,0,0,0h.07s0,0,0,0,0,0,0,0,0,0,0,0,0,0,0,0,0,0,0,0,0,0,0,0,0,0,0-.05m.3,0,0,0s0,.05,0,0,0,0,0,0a0,0,0,0,1,0-.05s0,0,.05,0h0l0,0s0,0,0,0,0,0,.05,0a.08.08,0,0,1,0,.08l-.06,0s0,0,0,0,0,0-.05,0m.36-.11a0,0,0,0,1,0,.05s0,0,0,0h0s0,0,0,0,0,0,0,0,0,0,0,0,0,0,0,0h.05m.17,0h0m.17,0h-.09s0,0,0,0h0s0,0,0,0,0,0,0,0,0,0,0,0,0,0,0,0,0,0,0,0m-.18,0s0,0,0,0,0,0,0,0,0,0,0,0m.33,0h0s0,0,0,0,0,0,0,0,0,0,0,0h0s0,0,0,0,0,0,0,0h0m.19,0h0m0,0h0s0,0,0,0,0,0-.05,0l0,0m.16,0,0,0v0l0,0m-.16,0h0m0,0h0m0,0h0l0,0h.05a0,0,0,0,1,0,0,0,0,0,0,1,0,0s0,0-.05,0m.26,0h0s0,0,0,0h0s0,0,0,0h0m0,0s0,0,0,0,0,0,0,0h0m.11.5h0m0,0h0m-3.26.57s0,0,0,0,0,0,0,.05,0,0-.06,0,0,0,0,0,0,0-.06,0,0,0,0,0,0,0,0,0l0,0s0,0,0,0-.06,0-.05,0,0,0,0,0,0,0,.06,0,0,0,0-.06,0,0,0,0,0,0,0,0,0,0,0,0,0,0,0,0l0,0m.18-.09s0,0,0,0,0,0,0,0,0,0,0,0,0,0,0,0l0,0a.06.06,0,0,1,0,0s0,0,0,0,0,0,0,0,0-.05,0,0,0,0,0,0,0,0,0,0,0,0,0,0m.08-.18s0,0,0,0,.05,0,.07,0l0,0s0,0,0,0,0-.06,0-.06,0,.06,0,.08.05,0,.06,0,0,0,0,0,0,0-.05,0,0,0,0,0,0,0,0,0,0,0,0,0,0,0,0,0,0,0,0,0,0,0,0,0,0,0,0,0m.35-.09s0,0,0,0,0,0,0,0l0,0h.06s0,0,0,0l0,0s0,0,0,0,0,0,0,0l0,0s0,0,0,0,0,0,0-.06m.6-.25s0,0,0,0,0,0,0,0,0,0,0,0,0,0,0,0,0,0,0,0,0,0,0-.05,0,0,0,0h0s0,0,0,0,0,0,0,.05m.22,0s0,0,0,0,0,0,0,0,0,0,0,0a0,0,0,0,1,0-.05s0,0,0,0l0,0h0s0,0,0,0,0-.05,0,0,0,0,0,0,0,0,0,.05,0,0-.06,0,0,0,0,0h0m.33-.13s0,0,0,0h-.09l0,0a.06.06,0,0,1,0,0s0,0,0,0,0,0,0,0,0,0,0,0,0,0,0,0m.3,0s0,0,0,0H17.1s0,0-.05,0,0,0,0-.05,0,0,0,0,0,0,0,0h.05s0,0,0,0,0,0,.05,0,0,0,0,0,0,0,0,0a.05.05,0,0,1-.05,0m.19-.13s0,0,0,0,0,0,0,0,0,0,0,0,0,0,0,0h0s0,0,0,0,0,0,0-.06,0,0,0,0m.4,0s0,0,0,0,0,0,0,0,0,0,0,0h0s0,0-.05,0,0-.05,0-.07h0s0,0,.05,0,0,0,0,0,0,0,0,0,.05,0,.06,0,0,.05,0,.06m.25,0s0,0,0,0h0s0,0,0,0,0,0,0,0,0,0,0,0,0,0,0,0h0a0,0,0,0,0,0,0h0a0,0,0,0,1,0,0h0m.14,0h0m0,0h0a0,0,0,0,0,0,0m.18,0h0m-.2,0h.11s0,0,0,0,0,0,0,0,0,0,0,0h0s0,0,0,0,0,0,0,0,0,0,0,0h-.05l0,0m.2,0h0m.16,0h0s0,0,0,0h0s0,0,0,0,0,0,0,0h0m0,0h0m-.14.37h0m0,0h0m-3.24,1s0,0,0,0h0a.13.13,0,0,1,0,.05s0,0,0,0,0,0,0,0,0,0,0,0v0l-.05,0s0,0,0,0h0s0,0,0,0,0-.06,0-.06l0,0s0,0,0,.06h0l0,0m.24-.16s0,0,0,.05,0,0-.06,0l0,0s0,0,0,0,0,0,0,0,0,0-.06,0,0,0,0-.05,0,0,0,0,0,0,0-.05,0,0,0,0,0,.05.07,0,0-.07,0-.09,0,0,.06,0,0,.06,0,.08,0,0,0,0h0s0,0,0,0,0,0,0,0m.11-.18s0,0,0,0,0,0,0,0,0,0,0,0,0,0,.05,0,0,0,0,.06.07,0,.06,0,0,0,0,0,0,0-.05,0h0l0,0s0,0,0-.05m.35-.19h0m.07,0s0,0,0,0,0,0,0,.05,0,0,0,0,0,0-.07,0,0,.07,0,.08,0,0-.07,0,0-.06,0-.08,0,0,0,0,0,0,0,0,0,0,0,0,0,0,.06,0,0,0,0,0,0,0,0,0,0,0,0,0h0s.05,0,.06,0m.18-.09s0,0,0,0,0,0-.06,0,0,0,0,0,0,0,0,0,0,0,0-.05-.05,0-.05,0,.05,0,.07,0,0,0,0,0,0,0,0,0l0,0m.14-.05h0m.15,0s0,0-.06,0,0,0,0,0,0,0,0,0,0,0,0,0h0s-.05,0-.06,0,0,0,0,0,0,0,0,0,0,0,.05,0,0,0,0,0,0-.06,0-.07,0,0,0,.05,0,0,0,0,0,0,0,0,0,0,0,0l0,0m.15-.13s-.05,0,0,0,0,0,.06,0,0,0,0,0,0,0,0,0,0,0,0,0,0,0,0,0h-.05s0,0,0-.05m.37-.09s0,.06,0,.06,0,0-.05,0h0s0,.08-.05.07,0-.07,0-.09-.07,0-.06,0,0,0,.06,0,0,0,0,0,0,0,.05,0,0-.05,0-.05,0,0,.05,0,0,0,0,0,0,0,0,0,0,0,0,0m.27,0s0,0-.05,0,0,0-.05,0,0,0,0-.05,0,0,0,0,0,0,0,0,0,0,0,0,0,0,0,0,0,0,0,0m.36-.08s-.06,0-.08,0,0,.06,0,.06,0,0-.05,0,0,0,0,0,0,0,0,0,0,0,0,0,0,0,0,0,0,0,0,0l0,0h0s0,0,.05,0,0-.06,0,0,.05.06,0,.08m.19-.05s0,0,0,0,0,0,0,0,0,0,0,0,0,0,0,0h0s0,0,0,0m.33-.08h0m0,0h0S18,20,18,20s0,0-.05,0h-.12s0,0,0,0,0-.05,0-.05,0,0,.05,0,0,0,0,0,0,0,.05,0,0,0,0,0m.14,0s0,0,.05,0,0,0,.05,0a0,0,0,0,1,0,.05s0,0-.05,0,0,0-.05,0,0-.05,0-.05m.22,0s0,0,0,0,0,.05,0,0l0,0h0a0,0,0,0,1,0,0m.07,0h.05s0,0,0,0,0,0,0,0h0l0,0h0l0,0s0,0,0,0h0s0,0,0,0m.14,0h0m-.16,0h0l0,0s0,0,0,0h0m.31,0h0s0,0,0,0,0,0,0,0m-3.12,1.16s0,0,0,0,0,0,0,0,0,0,0,.06,0,0-.06,0l0,0,0,0s0,.08,0,.07,0,0,0,0,0,0,0,0,0,0-.05,0,0,0,0-.06a.05.05,0,0,1,0,0l0,0s0,0,.06,0,0,0,0-.05,0,0,0,0,0,0,0,0,0,0,0,0,0,0,.05,0,0,.05,0,.06m.21-.13s0,0,0,0,0,0-.06,0,0,0,0,0,0,0,0,0l0,0s0,0,0,0,0,0,0,0,0,0,0,0,0,0,0,0,0,0,0,.05,0,0,0,0l0,0m.51-.23s0,0-.05,0,0,0,0,0l0,0,0,0s0,0,0,0,0,0,0,0,0,0,0,0,0,0,0,0,0,0,0,0,0,0,0,0m.32-.14s0,0,0,0,0,0-.06,0,0,0,0,.05l0,0h0s0,0,0,0,0,0,0,0,0,0,0,0,0,0,0,0,0,0,0,0,0,0,0,0,0,0,0,0,0,0,.05,0,0-.07,0-.08,0,0,0,0h0s0,0,0,0,0,0,0,0,0,0,0,0m-.06-.07h0m.22-.06a.06.06,0,0,1,0,0s0,0,0,0,0,0,0,0,0,0,0,0,0,0,0,0,0,0,0,0,0,0,0,0,0,0,0,0m.32-.1s0,0,0,0,0,0,0,0,0,0,0,0,0,0,0,0,0,0-.05,0,0,.07,0,.08,0,0,0-.05,0,0,0,0-.07,0-.07,0,.06,0,.08,0,0-.06,0-.07h0s0,0,0,0,0,0,0-.05,0,0,0,0,0,0,0,0m.23-.07s0,0,0,0,0,0-.06,0,0,0,0,0,0,0,0,0,0,0,0-.05h.09s0,0,0,0m.56-.09s0,0-.05,0h0a0,0,0,0,1,0-.06s0,0,.05,0,0,0,0,0,0,0,0,.05m.36,0s0,0,0,0h-.08s0,0,0,0,0,0,0,0,0,0,0-.05h0s0,0,0,0h0s0,.05,0,.05,0-.06,0-.07,0,0,0,0,0,0,0,0,.05,0,0,0m-.22,0s0,0,0,0h0m.41-.06a0,0,0,0,1,0,0s0,0,0,0,0,0,0,0,0,0,0,0h.08m.24,0h.11s0,0,0,0h0s0,0,0,0m-.09,0v0h0l0,0m.06,0h0s0,0,0,0l0,0h0m-.07,0h0m0,0h0a0,0,0,0,1,0,0h-.05l0,0m.37,0h0s0,0,0,0h0m0,0h0s0,0,0,0m.07,0h0M16.3,16.76s0,0,0,0,0,0,0,0h0s0,0,0,0,0,0,0,0l0,0h0s0,0,0,0h0s0,0,0,0,0,0,0,0l0,0s0,0,0,0,0,0,0,0m.07-.15s0,0,0-.05h0s0,0,0,0l0,0s0,0,0,0,0,0,0,0a.06.06,0,0,1,0,0s0,0,0,0,0,0,0,0,0,0,0,0l0,0m.33-.26s0,0,0,0,0,0,0,0,0,0,0,0,0,0,0,0,0,0,0,0,0-.05,0,0,0,0,0,0,0,0,0,0m.13-.14s0,0,0,0,0,0,0,0l0,0s0,0,0,0,0,0,0,0,0,0,0,0,0,0,0,0h0s0,0,0,0,0,0,0,0m.26-.19s0,0,.05,0,0,0,0,0l0,0v0s0,0,0,0,0,0,0,0,0,0,0,0,0,0,0,0m.25-.1h.08s0,0,0,0,0,0,0,0,0,0,0,0h0s0,0,0,0h0s0,0,0,0,0,0,0,0m.34-.07s0,0,0,0,0,0,0,0,0,0,0,.06,0,0,0,0h0s0,0,0-.05m.24-.06s0,0,0,0,0,0,0,0,0,0,0,0,0,0,0,0,0,0,0,0h-.07s0,0,0-.05m.34,0h0s0,0,0,0a0,0,0,0,1,0,.05H18.3s0,0,0,0,0,0,0,0m.26,0h.08s0,0,0,0,0,0,0,0,0,0,0,0h0s0,0-.05,0,0-.05,0-.05m.33,0s0,0,0,0h0l0,0h0s0,0,0,0m.08,0h0m.28,0h0m-.09,0h.07l0,0h0l0,0h0v0M16.49,17s0,0,0,0v0h0a0,0,0,0,1,0,0h0s0,0,0,0h0a0,0,0,0,1,0,0v0s0-.05,0-.05,0,0,0,.05,0,0,.05,0,0,0,0,0m.3-.45s0,0,0,0,0,0,0,0,0,0,0,0,0,0,0,.05,0,0-.06,0,0,.05,0,0,0,0,0-.05,0,0,0,0m.22-.15s0,0,0,0,0,0,0,0h0s0,0,0,0,0,0,0,0,0,0,0,0,0,0,0,0l-.05,0s0-.05,0-.06,0,0,0,0m.29-.15s0,0,.05,0,0-.05,0,0,0,0,0,0,0,0,0,0l0,0h0s0,0,0,0,0,0,0,0m.26-.05s0,0,0-.05,0,0,0,0,0,0,0,0,0,0,0,0,0,0,0,0,0,0,0,0,0,0,0,0,0,0-.05,0,0,0,0,0l0,0m.32-.13s0,0,0,0,0,0,0,0,0,0,0,0,0,0,0,0,0,0,0,0,0,0,0-.06m.27-.05h0s0,0,0,0h0s0,0,0,0,0,0,0,0h0s0,0,0,0,0,0,0,0m.33,0s0,0,0,0,0,0,0,0,0,0,0,0,0,0,0,0h0s0,0,0,0m.58,0h.08s0,0,0,0,0,0,0,0h0s0,0,0,0m.37.06h0m0,0h0s0,0,0,0h0m0,0h0s0,0,0,0m0,0s0,0,0,0l0,0h0m.09-.07h0m-2.63,1s0,0,0,0,0,0,.05,0,0,0,0-.05h.06s0,0,0,0,0,0,0,0,0,0,0,0l0,0h-.08s0,0,0,0M17,16.7s0,0,0,0,0,0,0,0l0,0s0,0,0,0,0,0-.05,0,0,.06,0,.05,0,0,0-.06,0,0,0,0m.37-.13s0,0,0,0l0,0s0,0,0,0,0,0,0-.06-.06,0-.05,0,0,0,0,0l0,0s0,0,0,0,0,0,0,0,0,0,0,0m.17-.16s0,0,0,0,0,0,0,0,0,0,0,0,.05,0,0,0,0,0,0,0l-.05,0s0,0,0-.05,0,0,0,0m.24-.11s0,0,0,0,0,0,0,0,0,0,.05,0,0,0,0,0,.05,0,0,0,0,0-.05,0,0,0,0,0,0,.05,0,0,0,0,0,0,0,0,0,0m.31-.09s0,0,0,0,0,0,.05,0a0,0,0,0,1,0,.06s0,0,0,0h0s0,0,0-.05m.31-.05h.07s0,0,0,0,0,0,0,0h-.07s0,0,0-.06,0,0,.05,0m.28,0s0,0,0,0,0,0,.05,0a0,0,0,0,1,0,.05h-.09a0,0,0,0,1,0,0m.27,0s0,0,0,0,0,0,0,0h0s0,0,0,0,0,0,0,0h-.08s0,0,0-.05m.33,0s0,0,0,0h.08s0,0,0,0,0,0,0,0,0,0,0,0m.26,0h0s0,0,0,0h0s0,0,0,0h0m.11,0h0m0,0h0m-2.71,1.18s0,0,0,0h0l0,0h-.1s0,0,0,0h0v0s0,0,0,0,0,0,0,0,0,0,0,0h0s0,0,0,0m.65-.56s0,0,0,0h0l0,0s0,0,0-.05,0,0,0,0,0,0,0,0,0,0,0,0,0,0,0,0,0,0,0,0,0,0,0,0m.17-.14s0,0,0,0,0,0,0,0,0,0,0,0,0,0,0,0,0,0,0,0,0,0,0,0h0s0,0,0,0m.25-.06s0,0,0,0,0,0,0,0l0,0s0,0,0,0,0,0,0,0,0,0,0,0,0,0,0,0,0,0,0,0,0,0,0,0h0m.3-.1s0,0,0,0,0,0,0,0,0,0,0,0,0,0,0,0,0,0,0,.05,0,0,0,0,0,0,0,0m.67-.11s0,0,0,0l0,0s0,0,0,0h0s0,0,0,0,0,0,0,0m.25,0h0s0,0,0,0,0,0-.05,0,0-.05,0-.06,0,0,.05,0h0m.26,0s0,0,0,0,0,0,0,0a0,0,0,0,1,0,0h-.09s0,0,0,0m.36.05h0m-.1,0s0,0,0,0,0,0,0,0h-.07s0,0,0,0m.12,0h0m-2.73,1.19s0,0,0,0l0,0h0s0,0,0,0l0,0h0s0,0-.05,0v0h0s0,0,0,0,0,0,0,0,0,0,0,0l0,0h0m.18-.21,0,0s0,0,0,0,0,.05,0,.05,0,0,0-.05h0s0,0,0,0,0,0,.05,0l0,0s0,0,0,0,0,0,0,0l0,0s0,0,0,0M17.17,17h0s0,0,0,0,0,0,0,0l0,0s0,0,0,0h0s0,0,0,0,0,0,0,0,0,0,0,0h0s0,.05,0,.05,0,0,0-.05m.26.1s0,0,0,0,0,0,.05,0,0,0,0,0l0,0s0,0,0,0,0,0,0,0,0,0,0,0,0,0,0,0l0,0s0,0,0,0M17.8,17l0,0s0,0-.05,0,0,0,0,0,0,0,0-.05,0,0,0,0,0,0,0,0,0,0,0,0,0,0,0,0,0,0,0,.06.06,0,.06,0m.48-.22s0,0,0,0,0,0,0,0h0a0,0,0,0,1,0,0s0,0,0,0,0,0,0,0h.05s0,0,0,.06,0,0,0,0,0,0,0,0m.24-.09,0,0a0,0,0,0,1,0,0l0,0s0,0,0,0,0,0,0,0,0,0,0,0,0,0,0,0m.28-.1s0,0,0,0,0,0,0,0,0,0,0,0l0,0s0,0,0,0h0s0,0,0,0,0,0,0,0m.38-.06a0,0,0,0,1,0,.05s0,0-.05,0,0,0,0,0,0,0,0,0,0,0,.05,0,0,0,.05,0m.51,0s0,0,0,0h.05s0,0,0,0l0,0h0m.27,0h0l0,0s0,0,0,0h0s0,0,0,0h0s0,0,0,0m0,0h0s0,0,0,0m.13,0h0m-2.7,1s0,0,0,0,0,0,0,0,0,0,0,0,0,0,0,0l0,0s0,0,0,0,0,0,0,0,0,0,0,0,0,0,0,0,0,0,0,0,0,0,0,0,0,0-.05,0m.35-.22s0,0,0,0,0,0,0,0,0,0,0,0,0,0,0,0,0,0,0,0,0,0,0,0,0,0,0,0h0s0,0,0,0,0,0,0,0m.24-.16s0,0,0,0,0,0,0,0h0s0,0,0,0,0,0,0,0,0,0,0,0h0s0,0,0,0,0,0,0,.05,0,0,0,0m.27-.18s0,0,0,0,0,0,0,0,0,0,0,0,0,0,0,0,0,0,0,0,0,0,0,0,0,0,0,0,0,0,0,0m.25,0h0s0,0,0,0,0,0,0,0v0s0,0,0,0,0,0,0,0,0,0,0,0,0,0,0,0,0,0,0,0,0,0,0,0m.23-.12s0,0,0,0h0s0,0,0,0,0,0,0,0v0s0,0,0,0h0s0,0,0,0m.35-.09s0,0,0,0,0,0,0,0,0,0,0,0h0s0,0,0-.06,0,0,0,0l0,0s0,0,0,0m.27,0s0,0,0,0,0,0,0,0,0,0,0,0,0,0,0,0,0,0,0,0,0,0,0,0m.3,0s0,0,0,0a0,0,0,0,1,0,.05s0,0,0,0h-.07s0,0,0,0h0s0,0,0,0m.25,0s0,0,0,0H20a0,0,0,0,1,0,0s0,0,0,0h0m.37,0h0v0m-.11,0h.09a0,0,0,0,1,0,0s0,0,0,0,0,0,0,0,0,0,0,0m.17,0h0m0,0h0m-2.75,1.22s0,0,0,0h0l0,0s0,0,0,0l0,0s0,0,0,0,0,0,0,0,0,0,0,0h0s0,0,0,0,0,0,0,0l0,0s0,0,0,0m.17-.21s0,0,0,0l0,0s0,0,0,0,0,0,0,0,0,0,0,0,0,0,0,0,0,0,0,0h0s0,0,0,0,0,0,0,0l0,0s0,0,0,0m.16-.18,0,0h0s0,0,0,0,0,0,0,0,0,0,0,0,0,0,0,0,.05,0,0,0,0,0,0,0,0,0,0,0,0,0,0,0m.28-.2s.05,0,.05,0,0,0,0,0,0,0,0,0a0,0,0,0,1,0,0s0,0,0,0,0,0,0-.06,0,0,0,0,0,0,0,0,0,0,0,0,0,0,0,.06m.2-.1s0,0,0-.05,0,0,.05,0,0,0,0,0,0,0,0,0,0,0,0,0,0,0,0,0,0,0,0,0,0,0,0,0m.57-.19s0,0,0,0,0,0,0,0,0,0,0,0,0,0,0,0,0,0,0,0,0,0,0,0,0,0-.05,0h0m.26-.11s0,0,0,0,0,0,0,0,0,0,0,0a.06.06,0,0,1,0,.07h-.08s0,0,0,0,0,0,0-.07m.39,0s0,0,0,0h0s0,0,0,0,0,0,0,0,0,0,0,0,0,0,0,0m.52,0s0,0,0,0l0,0s0,0,0,0h-.08a0,0,0,0,1,0,0m.36,0h0m-.1,0h0l0,0h0s0,0,0,0,0,0,0,0,0,0,0,0,0,0,0,0m.16,0h0M17.88,18l-.09-.09,0,0s0,0,0-.05,0,0,0,0,0,0,0,0,0,0,0,.05.06,0,.06,0-.05,0-.06,0,0,0,0,0,0,0,0,0m.32-.3s0,0-.06,0,0,0,0,0,0,0,0,0L18,17.65l0,0s0,0,0-.05l0,0s0,0,0,0,0,0,0,.06.06,0,.06,0m.2-.13s0,0,0,0h0s0,0-.05,0,0,0,0-.05,0,0-.05,0a0,0,0,0,1,0,0s0,0,.05,0l0,0s0,0,0,0,0,0,0,0,0,0,0,0m.23-.12s0,0,0,0,0,0,0-.05,0,0,0,0,0,0,0,0,0,0,0,0,0,0,0,.05.05,0,0,0h0m.2-.13s0,0,0,0,0,0,0,0h0l.05,0s0,.05,0,.06.06,0,.05,0h0s0,0-.05,0,0,0,0,0,0,0,0-.05m.35-.07s0,0-.05,0,0,0,0,0,0,0,0,0,0,0,0,0,0,0,0,0,0,0,0,0,0,0,0,0,0,0,0,0m.27-.14h0s0,0,0,.06,0,0-.05,0,0,0,0,0,0,0,0,0,0,0,0,0,0,0,0,0,0,0,0,0m.34,0s0,0,0,0,0,0,0,0,0,0,0,0,0,0,0,0,0,0,0,0,0,0,0,0m.26-.07h.05s0,0,0,0h0s0,0,0,0,0,0,0,0,0,0,0,0,0,0,0,0,0,0,0,0m.25,0h.08s0,0,0,0,0,0-.05,0,0,0,0,0,0,0,0,0m.26.05a0,0,0,0,1,0,0s0,0,0,0h0l0,0a0,0,0,0,1,0,0h-.12m.18,0h0m-2.82,1.28h0v0l0,0m0,0h0m0-.07s0,0,0,0h0s0,0,0,0l0,0,0,0h0l0,0a.11.11,0,0,1,.05,0s0,0,0,.05,0,0,.06,0,0,0,0,0m.19-.21a.05.05,0,0,1,0,.05h0s0,0,0,0,0,0,0,0,0-.05,0-.06,0,0,0,0,0,0,0,0l0,0s0,0,0,0,0,0,0,0,0,0,0,.05.06,0,.06,0m.15-.23,0,0s0,0,0,0,0,0,0,0,0,0,0,0,0,0,0,0,0,0,0,0-.05,0,0,0,0,0,.05,0,0,0,0,0,0,0,0,0m.29-.11h0l0,0s0,0,0,0l0,0s0,0,0,0,0,0,0,0,0,0,0,0l0,0s0,0,0,0,0,0,0,0,0,0,0,.05,0,0,0,0m.19-.1s0,0,0-.05,0,0,0,0,0,0,0,0h.05s0,0,0,0,0,0,0,0,0,0,0,0,0,0,0,0m.31-.14h0s0,0,0,0,0,0,0,0,0,0,0,0,0,0,0,0,0,0,0,0,0,0,0,0,0,0,0,0,.05,0,0,0,0,0-.05,0m.57-.21s0,0,0,0,0,0,0,0,0,0,0,0h0s0,0,0,0,0,0,0,0,0,0,.05,0,0,0,0,0,0,0,0,0m.33,0s0,0-.05,0h0s0,0,0,0,0,0,0,0h0s0,0,0,0m.25-.05s0,0,0,0a0,0,0,0,1,0,0h0s0,0,0,0,0,0,0,0,0,0,0,0h.07m.24,0h.08s0,0,0,0,0,0,0,0h0s0,0,0,0m.32,0s0,0,0,0h0s0,0,0,0,0,0,0,0m.05,0h0s0,0,0,0m-.1,0h0s0,0,0,0m0,0h0s0,0,0,0h0m.15,0h0m0,0h0m-2.76,1s0,0,0,0,0,0,0,0,0,0,0,0,0,0,0,0,0,0,0,0,0,0,0,.05,0,0,0,0,0,0,0,0,0,0,0,0h0s0,0,0,0,0,0,0,0m.31-.21s.05,0,.05,0,0,0-.05,0,0,.05,0,.05,0,0,0-.05,0,0,0,0,0,0,0,0,0,0,0,0h.05l0,0s0,0,0,.05m.43-.28s0,0,0-.05,0,0,0,0,0-.05,0-.05,0,0,0,.06a.06.06,0,0,1,0,0s0,0,0,0,0,0,0,0,0,0,0,0m.35-.08h-.08l0,0a0,0,0,0,1,0-.05s0,0,0,0l0,0h0s0,0,0,.05,0,0,0,0,0,0,0,0m.21-.13s0,0,0-.05,0,0,.06,0,0,0,0,0,0,0,0,0,0,0,0,0h0s0,0,0,0,0,0,0,0m.36-.12s0,0,0,.06,0,0-.05,0h0s0,0,0,0h0s0,0,0,0,0,0,0,0h0s0,0,0,0m.3,0s0,0,0,0,0,0,0,0,0,0,0,0,0,0,0,0h0s0,0,0,0m.26,0s0,0,0,0,0,0,0,0,0,0,0,0,0,0,0,0,0,0,0,0,0,0,0,0,0,0,.05,0h0m.25,0s0,0,0,0h0s0,0,0,0,0,0-.05,0h0s0,0,0,0m.3,0s0,0,0,0,0,0,0,0,0,0,0,0,0,0,0,0,0,0,0,0,0,0,0,0a0,0,0,0,1,0,0s0,0,0,0m.22,0h0m0,0h0m0,0h0m-2.81,1.27s0,0,0,0v0h0v0s0,0,0,0h0l0,0h0l0,0a.05.05,0,0,1,0,0s0,0,0,0l0,0s0,0,0,0,0,0,0,0m-.15,0h0m.21-.18s0,0,0,0,0,0,0,0,0,0,0-.05,0,0,0,0,0,.05,0,.06,0,0,.06,0,0,0,0,0,0,0-.05,0,0,0,0,0,0,0,0,0l0,0s0,0,0,0m.21-.25s0,0,.05,0,0,0,0,0,0,0,0,0,0,0,0,0,0,0,0,0,0,0,0,0,0,0-.05,0,0,0,0-.06h0a0,0,0,0,1,0-.05m.37-.11s0,0,0,0H19s0,0,0,0l0,0s0,0,0-.05,0,0,0,0,0,0,0,0,0,0,0,0,0,0,0,0,0,0,0,.05,0,0,0,0M19.2,18s0,0,0,0,0,0,0,0,0,0,0,0,0,0,0,0,0,0,0,0,0,0,0,0,0,0-.05,0,0,0,0-.05m.24-.11s0,0,0-.05,0,0,0,0l0,0s0,0,0,0,0,0,0,0,.06,0,0,0,0,0-.06,0,0,0,0,0,0,0,0,0,0,0,0,0m.33-.08s0,0,0,0,0,0,0,0,0,0,.05,0,0,0,0,0,0,0,0,.05,0,0,0,0,0,0,0,0,0,0,0,0m.34-.14s0,0,0,0v0s0,0,0,0,0,0,0,0,0,0,0,0,0,0,0,0,0,0,0,0,0,0,0,0h.07m.3-.06s0,0,0,.06,0,0-.05,0,0,0,0,0,0,0,0,0,0,0,0,0,0,0,0,0m.26,0h0s0,0,0,0,0,0,0,0,0,0,0,0,0,0-.05,0,0,0,0-.05h.07m.26,0h0s0,0,.05,0,0,0,0,0,0,0,0,0,0,0,0,0,0,0,0,0m.36,0h0m-.11,0s0,0,0,0h0s0,0,0,0,0,0,0,0,0,0,0,0m.23,0h.05v0h-.05s0,0,0,0M18.6,18.83s0,0-.05,0v0h0s0,0,0,0,0,0-.05,0,0,0,0,0l0,0h0s0-.05,0-.06,0,0,0,0,0,0,0,0l0,0s0,0,0,0M19,18.4s0,0,0,0,0,0-.06,0,0,0,0,0l0,0s0,0,0-.06,0,0,0,0,0,0,0,0,0,0,0,0,0,0,0,0l0,0m.49-.3s0,0,0,0,0,0,0,0,0,0,0,0,0,0,0,0v0s0,0,0,0,0,0,0,0,0,0,0,0,0,0,0,.05m.26-.11s0,0,0,0,0,0,0,0,0,0,0,0,0,0,0,0,0,0,0,0,0,0,0-.05,0,0,0,0,0,0,0,0l.05,0s0,0,0,.06m.21-.07s0,0,0-.05,0,0,0,0,0,0,0,0,0,0,0,0,0,0,0,0,0,0,0,0,0,0,0,0,0,0,0,0m.36-.12s0,0,0,0,0,0,0,0h0s0,0,0,0h0s0,0,0-.05,0,0,0,0,0,0,0,0l0,0s0,0,0,0m.22,0s0,0,0,0,0,0,0,0,0,0,0,0,0,0,0,0,0,0,0,0,0,0,0-.06m.34,0h.05s0,0,0,.05,0,0,0,0h-.07s0,0,0,0,0,0,0,0,0,0,0,0m.25,0s0,0,.05,0h0s0,0,0,0h-.08s0,0,0,0m.35,0s0,0,0,0,0,0,0,0h0m-.08,0s0,0,0,0,0,0,0,0,0,0,0,0m0,0h0m.25,0h0m-.05,0h0m-3,1.27h0s0,0,0,0m.14,0a.05.05,0,0,1,0,0h0l0,0s0,0,0,0,0,0,0,0h0s0,0,0,0h0v0s0,0,0,0,0,0,0,0l0,0,0,0h0m.2-.21s0,0,0,0l0,0s0,0,0,0,0,0,0-.05,0,0-.06,0a.05.05,0,0,1,0-.05s.05,0,.06,0,0,0,0,0,0-.06,0-.05,0,.05,0,.07,0,0,0,0,0,0,0,0m.21-.22s0,0,0,0,0,0,0,0,0,.05,0,.05,0-.05,0-.07l0,0s0,0,0,0,0,0,0,0,0,0,0,0l0,0s0,0,0,0m.25-.12s0,0,0,0,0,0,0,0,0,0,0,0,0,0,0,0,0,0,0,0,0,0,0-.05,0,0,0,0h0s0,0,0,0,0,0,0,0,0,0,0,0,0,0,0,0m.19-.11s0,0,0,0l0,0s0,0,0,0,0,0,0,0,0,0,0,0,0,0,0,0a0,0,0,0,1,0,0s0,0,0,0,0,0,0,0m.55-.31s0,0,0,0,0,0,0,0a0,0,0,0,1,0,0s0,0,0,0,0,0,0,0,0,0,0,0a.06.06,0,0,1,0,0s0,0,0,0m.3-.07s0,0,0,0,0,0,0,.05,0,0,0,0,0,0,0,0h0s0,0,0,0,0,0,0,0,0,0,0,0,0,0,0,0,0,0,0,0m.33,0s0,0,0,0l-.05,0s0-.05,0-.07,0,0,.05,0,0,0,0,0,0,0,0,0m.51-.08s0,0,0,0h0a0,0,0,0,1,0,0h-.05s0,0,0,0,0,0,0,0m.27,0,0,0s0,0,0,0,0,0,0,0,0,0,0,0,0,0,0,0h0s0,0,0,0,0,0,0,0m.25,0a.06.06,0,0,1,.06,0h-.06m-2.42.91s0,0-.05,0,0,0,0,0,0,0,0,0,0,0,0,0,0,0,0,0,0,0,0,0,0,0,0,0,0,0,0,0,0,0,0,0,0,0,0,0m.13-.14,0,0s0,0,0,0a0,0,0,0,1,0,0s0,0,0,0,0,0,0,0l0,0s0,0,0,0,0,0,0,0,0,0,0,0,0,0,0,0,0,0,0,0,0,0,0-.05m.24-.22s0,0,0,0,0,0,0,0,0,0,0,.05l0,0s0,0,0,0,0,0-.05,0,0,0,0,0,0,0,0,0,0,0,0,0,0,0,0,0m.32,0s0,0,0,0l0,0s0,0,0-.06,0,0,0,0h.07s0,0,0,0,0,0,0,0,0,0,0,0,0,0,0,0m.31-.1h0s0,0,0,0,0,0,0,0,0,0,0,0l0,0s0,0,0,.05,0,0,0,0,0,0,0,0m.29-.15s0,0,0,0,0,0,0,0,0,0,0,0h0s0,0,0,0,0,0,0,0,0,0,0,0h0s0,0,0,0,0,0,0,0m.22-.05s0,0,0,0,0,0,0,0,0,0,0,.05,0,0,0,0,0,0,0,0,0,0,0-.05m.27,0h.08s0,0,0,0,0,0,0,0,0,0,0,0,0,0,0,0h0s0,0,0-.05m.32,0s0,0,0,0,0,0,.05,0a0,0,0,0,1,0,.05s0,0-.05,0,0,0,0,0a0,0,0,0,1,0-.05m.27,0s0,0,0,0h0s0,0,0,0,0,0,0,0,0,0-.05,0H21.8s0,0,0,0m.27,0h0m-2.9,1.38v0h0v0m0-.07v0h0l0,0h0l0,0a0,0,0,0,0,0,0v0h0s0-.05,0-.06,0,0,0,0,0,0,0,0h0s0,0,0,0m.22-.21s0,0-.05,0,0,0,0,0,0,0,0,0,0,0,0,0,0,0,0,0,0,0,0,0-.05,0-.05,0,0,0,0,0,0,0,0,0,0,0,0,0,0,0,0,0,0,0,0,0l0,0s0,0,0,0m.2-.23s0,0,0,.05,0,0-.05,0,0,0,0,0,0,0,0,0,0,0,0,0,0,0,0,0,0,0,0,0,0,0,0,0,0,0,0,0,0,0,.05,0m.21-.11s0,0,0,.06,0,0,0,0,0,0,0,0,0,0,0,0,0,0,0,0,0,0,0,0,0,0,0,0,0,0,0,0,0,0,0,0,0,0,0,0,0,0,0,0,0,0,0,0m.23-.14s0,0,0,0,0,0,0,0,0,0,.05,0,0,0,0,0,0,0,0,0,0,0,0,0,0,0,0,0,0,0-.05,0,0,0,0,0,0,0,0,0m.32-.17s0,0,0,0,0,0,0,0h0s0,0,0,0l0,0s0,0,0-.05,0,0,0,0,0,0,0,0,0,0,.05,0,0,0,0,.05m.25-.05s0,0,0,0,0,0,0,0,0,0,0-.05,0,0,.05,0,0,0,0,0,0,0,0,0,0,0,0,0,0,0,0,0m.31-.15,0,0s0,0,0,0,0,0,0,0,0,0,0,0,0,0,0,0,0,0,0-.05,0,0,0,0a0,0,0,0,1,0,0h0s0,0,0,0m.31,0s0,0-.05,0h0s0,0,0-.07,0,0,.05,0,0,0,0,0,0,0,0,.05m.24-.08s0,0,0,0,0,0,0,0,0,0,0,0,0,0,0,0,0,0,0,0,0,0,0-.05,0,0,.05,0h0m.25,0s0,0,.05,0,0,0,0,0,0,0,0,0,0,0,0,0h0s0,0,0,0m.28,0h.1a0,0,0,0,1,0,0s0,0,0,0,0,0,0,0,0,0,0,0m0,0h0s0,0,0,0m.33,0h0m-.05,0h0m0,0h0M19.4,19.59a0,0,0,0,1,0,0h0l0,0s0,0,0,0l0,0,0,0,0,0h0s0-.05,0-.05,0,0,0,0,0,0,0,0,0,0,0,0,0,0,0,0m.37-.39s0,0,0,0,0,0,0,0,0,0,0,0,0-.05,0-.05,0,0,0,.06l0,0s0,0,0,0,0,0,0,0,0,0,0,0,0,0,0,0M20.1,19s0,0-.05,0l0,0s0,0,0,0,0,0,0,0,0,0,0,0,0,0,0,0,0,0,0,0l0,0h0s0,0,0,0,0,0,0,0,.05,0,.05,0m.24-.14s0,0,0,0h0s0,0,0,0v0s0,0,0,0,0,0,0,0,0,0,0,0,0,0,0,0,0,0,0,0,0,0,0,0m.53-.23s0,0,0,0,0,0,0,0,0,0,0,0a0,0,0,0,1,0-.05s0,0,0,0h0s0,0,0,0,0,0,0,0m.24-.13s0,0,0,0,0,0,0,0,0,0,0,0,0,0-.05,0h0s0,0,0,0l0,0s0,0,0,0,0,0,0,0,0,0,0,0m.33,0s0,0,0,0,0,0,0,0,0,0,0-.06,0,0,0,0,0,0,.05,0,0,0,0,.05m.29-.07s0,0,0,0l0,0h0s0,0,0,0,0,0,0,0l0,0s0,0,0,0,0,0,0,0m.23,0H22s0,0,0,0h0s0,0,0,0,0,0,0,0m.29,0h0s0,0,0,0,0,0,0,0,0,0,0,0,0,0,0,0m0,0h0m.3,0a0,0,0,0,1,0,0h.08v0s0,0,0,0h0m-2.85,1.12s0,0,0,0,0,0,0,0h0s0,0,0,0h0l0,0s0,0,0,0,.05,0,.05,0-.05,0-.06,0,0,0,0,0,0,0,0,0l-.05,0s0-.05,0-.06,0,0,0,0m.4-.18s0,0-.05,0,0,0,0,0l0,0,0,0s0,0,0-.05,0,0,0,0,0-.06,0-.06,0,0,0,.07l0,0s.05,0,.05,0m.24-.16s0,0,0,0,0,0,0,0,0,0,0,0,0,0,0-.05l0,0s0,0,0,0,0,0,0,0l0,0,0,0s0,0,0,.06l0,0s.06,0,0,0m.25-.14s0,0,0,0l-.05,0s0,0,0-.05,0,0,0,0,0,0,0,0,0,0,0,0,0,0,0,0,0,0,0,0,0,0,0,0,0,0,0,0m.24-.17s0,0,0,0,0,0,0,0,0,0,0,0h0l0,0s0,0,0,0a.08.08,0,0,1,0,0s0,0,0,0,0,0,0,0,0,0,0,0,0,0,0,0m.28-.1s0,0,0,0,0,0-.05,0,0,0,0,0,0,0,0-.05,0,0,0,0,0,0,0,0,0,0,0,0,0,0,0,0m.28-.08s0,0,0,.05,0,0,0,0h-.08s0,0,0,0,0,0,0,0l0,0h0s0,0,0,0,0,0,0,0m.3,0s0,0-.05,0,0,0,0,0,0,0,0,0,0,0,0,0,0,0,.05,0,0,0,0,0,0,0,0,.05m.25-.08s0,0,0,0,0,0,0,0,0,0,0,0h0s0,0,0,0,0,0,0-.06,0,0,0,0h0m.26,0s0,0,0,0h0s0,0,0,0h-.09s0,0,0,0m.35,0h0s0,0,0,0m-.1,0s0,0,0,0,0,0,0,0,0,0,0,0h0s0,0,0,0h-.07m.39,0s0,0,0,0h0m-.07,0h0s0,0,0,0,0,0,0,0m0,0h0m-3,1.39s0,0-.05,0,0,0,0-.05,0,0,0,0,0,0,0,0,0,0,0,0,0-.07,0-.07,0,.06,0,.07,0,0,.05,0,0,0,0,.05,0,0,0,0,0,0,0,0,0,0,0,0m.22-.26s0,0,0,0,0,0-.05,0,0,0,0,0,0,0,0,0,0,0,0-.05,0,0-.06,0,0,0,0,0,0,0,0,0,0,0,.05,0,0-.07,0-.07,0,0,0,.05,0,0,0,0,.05,0,.06,0,0,0,0,0m.25-.18s0,0-.05,0,0,.06,0,.06,0,0,0,0,0,0,0,0,0,0-.05,0,0,0,0-.05,0,0,0,0,0,0,0,0,0,0,0,0,0,0,0,0,.05,0,0,0m.48-.34s0,0,0,0l0,0s0,0,0,0,0,0,0,0,0,0,0,0,0,0,0,0,0,0,0,0l.05,0s0,0,0,.05l0,0M21,19.1s0,0,0,.06,0,0,0,0,0,0-.05,0,0,0,0,0,0,0,0,0,0,0,0,0,0,0,0,0,0,0,0,0,0,0,0,0,0,0,0,0,0,0,0,0m.55-.17s0,0,0,0,0,0,0,0h0s0,0,0,0,0,0,0,0,0,0,0,0,0,0,0,0h0s0,0,0,0,0,0,0,.05m.29-.09s0,0,0,.05,0,0-.05,0,0,0,0,0,0,0,0,0,0,0,0,0,0,0,0,0,0,0,0,0m.26,0s0,0,0,0,0,0,0,0,0,0,0,0h0s0,0,0,0a0,0,0,0,1,0-.06s0,0,.05,0l0,0m.3,0s0,0,0,0,0,0,0,0,0,0,0,0h-.05s0,0,0,0,0,0,.05,0m.22,0h.07s0,0,0,0,0,0,0,0,0,0,0,0,0,0,0,0h0s0,0,0,0m.33,0h0s0,0,0,0H23"/></g></g></svg>