<svg xmlns="http://www.w3.org/2000/svg" xmlns:xlink="http://www.w3.org/1999/xlink" viewBox="0 0 33 33"><defs><style>.cls-1{fill:#00b39c;}.cls-2{fill:url(#radial-gradient);}.cls-3,.cls-5{fill:none;stroke:#000;stroke-miterlimit:10;}.cls-3{stroke-width:2px;}.cls-4{fill:#1d1d1b;}.cls-5{stroke-width:0.5px;}.cls-6{font-size:2.35px;font-family:Arial-Black, Arial Black;font-weight:800;}</style><radialGradient id="radial-gradient" cx="9.87" cy="9.08" r="12.11" gradientTransform="translate(7.18 8.4) scale(0.94)" gradientUnits="userSpaceOnUse"><stop offset="0.74" stop-color="#fff" stop-opacity="0"/><stop offset="0.76" stop-color="#fff" stop-opacity="0.01"/><stop offset="0.77" stop-color="#fff" stop-opacity="0.04"/><stop offset="0.79" stop-color="#fff" stop-opacity="0.1"/><stop offset="0.79" stop-color="#fff" stop-opacity="0.18"/><stop offset="0.8" stop-color="#fff" stop-opacity="0.28"/><stop offset="0.81" stop-color="#fff" stop-opacity="0.4"/><stop offset="0.82" stop-color="#fff" stop-opacity="0.5"/><stop offset="0.82" stop-color="#dbc01f"/><stop offset="0.83" stop-color="#f1dc3a"/><stop offset="0.84" stop-color="#f5e13f"/><stop offset="0.84" stop-color="#455560"/><stop offset="0.84" stop-color="#465661"/><stop offset="0.86" stop-color="#77838b"/><stop offset="0.88" stop-color="#a0a9ae"/><stop offset="0.9" stop-color="#c3c8cb"/><stop offset="0.93" stop-color="#dde0e2"/><stop offset="0.95" stop-color="#f0f1f2"/><stop offset="0.97" stop-color="#fbfcfc"/><stop offset="1" stop-color="#fff"/></radialGradient></defs><title>Asset 8</title><g id="Layer_2" data-name="Layer 2"><g id="Layer_1-2" data-name="Layer 1"><circle class="cls-1" cx="16.47" cy="16.33" r="15.2"/><circle class="cls-2" cx="16.44" cy="16.92" r="11.37"/><circle class="cls-3" cx="16.5" cy="16.5" r="15.5"/><path class="cls-4" d="M19.29,15.5c2.05,5.06-3,3.89-5.81,7.42A9.89,9.89,0,0,1,15.14,20c.94-1.25,1.79-2.2,1.38-3.32a1.74,1.74,0,0,0,2.77-1.16m-3.16.63c.23,2.1-2.17,3.32-1.91,5.05,1.06-2.29,3.1-3.44,1.91-5.05m2.1-6.27a4.94,4.94,0,0,1-.62,2.8l.29.15a4.89,4.89,0,0,0,.42-1.26,2.84,2.84,0,0,0,0-1.23s1.6,2-.17,2.79l.46.74s2.85-.15-.4-4m.22.82A3,3,0,0,1,18,12.85s1.59,0,.41-2.17m-1.51.38a2.1,2.1,0,0,1,0,1.42l.61.11a2.12,2.12,0,0,0,.35-.7,2.67,2.67,0,0,0-.92-.83M18.7,14a6.5,6.5,0,0,1,1.14,4.21l2.07-.53c-1.56-.88,0-2.84-2.34-4.06a1.72,1.72,0,0,1-.87.38M11,12.57c-.13.58.89,1.29,1.09.19Zm3,8.66a3.89,3.89,0,0,1,1-2.52c1-1.53,2-2.49-1.09-5.69-.36,0-1.63-.24-1.63-.24-.28,1.1-1.14.59-1.14.59.61,1.46,2.68.65,2.73,1.26.05.81-3.16-1.4-2,.67,5-.31.65,4.37,2.15,5.93m1.08-7.93c.29.74.75.2,1.19.29Zm1.32,3A14.08,14.08,0,0,0,14.06,13c-.06-.16.07-1,3.48-.13A4.71,4.71,0,0,1,19,14.77a1.5,1.5,0,0,1-1.08,2.1,1.4,1.4,0,0,1-1.44-.57m1-2.67-2.51-.55c0,1.61,1.37.34,2.51.55"/><circle class="cls-5" cx="20.22" cy="21.87" r="1.91"/><text class="cls-6" transform="matrix(1, 0.01, -0.01, 1, 19.26, 22.8)">7</text></g></g></svg>