<svg xmlns="http://www.w3.org/2000/svg" xmlns:xlink="http://www.w3.org/1999/xlink" viewBox="0 0 33 33"><defs><style>.cls-1,.cls-3,.cls-5{fill:none;stroke-miterlimit:10;}.cls-1{stroke:#4d4d4d;}.cls-1,.cls-3{stroke-width:2px;}.cls-2{fill:#decb1e;}.cls-3,.cls-5{stroke:#000;}.cls-4{fill:url(#Golden_Ring);}.cls-5{stroke-width:0.5px;}.cls-6{font-size:3.19px;font-family:Arial-Black, Arial Black;font-weight:800;}</style><radialGradient id="Golden_Ring" cx="24.29" cy="22.45" r="10.08" gradientTransform="translate(-10.56 -8.63) scale(1.12 1.13)" gradientUnits="userSpaceOnUse"><stop offset="0.74" stop-color="#fff" stop-opacity="0"/><stop offset="0.76" stop-color="#fff" stop-opacity="0.01"/><stop offset="0.77" stop-color="#fff" stop-opacity="0.04"/><stop offset="0.79" stop-color="#fff" stop-opacity="0.1"/><stop offset="0.79" stop-color="#fff" stop-opacity="0.18"/><stop offset="0.8" stop-color="#fff" stop-opacity="0.28"/><stop offset="0.81" stop-color="#fff" stop-opacity="0.4"/><stop offset="0.82" stop-color="#fff" stop-opacity="0.5"/><stop offset="0.82" stop-color="#dbc01f"/><stop offset="0.83" stop-color="#f1dc3a"/><stop offset="0.84" stop-color="#f5e13f"/><stop offset="0.84" stop-color="#dbc01f"/><stop offset="0.85" stop-color="#e1cb46"/><stop offset="0.87" stop-color="#e9d976"/><stop offset="0.89" stop-color="#f0e4a0"/><stop offset="0.91" stop-color="#f5eec3"/><stop offset="0.93" stop-color="#faf5dd"/><stop offset="0.95" stop-color="#fdfbf0"/><stop offset="0.98" stop-color="#fefefb"/><stop offset="1" stop-color="#fff"/></radialGradient></defs><title>Asset 1</title><g id="Layer_2" data-name="Layer 2"><g id="Layer_1-2" data-name="Layer 1"><circle class="cls-1" cx="16.5" cy="16.5" r="14.65"/><circle class="cls-2" cx="16.5" cy="16.5" r="14.11"/><path d="M23.35,20.16A.5.5,0,0,0,23.3,20a1.39,1.39,0,0,0-.15-.19A1.07,1.07,0,0,0,23,19.7l-.18-.12a3.52,3.52,0,0,0-.59-.28L21.3,19l-.24-.09a1.15,1.15,0,0,1-.34-.25l-.2-.14a2.25,2.25,0,0,1-.21-.12,1,1,0,0,0,.21-.09l-.08-.21a.56.56,0,0,0-.09-.19s0,0,0-.06a.56.56,0,0,1-.09-.19,1,1,0,0,0-.1-.17,1.55,1.55,0,0,0-.33-.3l-.39-.22A3.42,3.42,0,0,1,19,16.7a2,2,0,0,0-.36-.23.81.81,0,0,0-.27,0,.47.47,0,0,1-.2-.06.43.43,0,0,1-.15-.15,2.14,2.14,0,0,0-.13-.19l-.17-.18a1.29,1.29,0,0,1-.16-.17l-1.05-1.14-.14-.14a.41.41,0,0,1-.12-.14c0-.06-.05-.13-.08-.2s-.1-.21-.14-.32c-.14-.32-.26-.66-.42-1a2.39,2.39,0,0,0-.26-.41c-.05,0-.09-.11-.14-.15a1.09,1.09,0,0,0-.17-.13.66.66,0,0,0-.2-.11.81.81,0,0,0-.51,0,1.56,1.56,0,0,0-.38.25l-.09.06h-.15l-.16,0a3.47,3.47,0,0,0-.41.16,1.27,1.27,0,0,0-.37.25.85.85,0,0,0-.23.39l.2,0,.38.05a2.27,2.27,0,0,1,.52.09h0a.27.27,0,0,1,.08.1,1.57,1.57,0,0,1,.09.23c0,.1,0,.2.05.3s0,.47,0,.71h0a.41.41,0,0,1,0-.16.22.22,0,0,0,0,.08s0,0,0,0a.86.86,0,0,1,0-.17,5.32,5.32,0,0,1-.05.89s0,0,0,0v0a4.73,4.73,0,0,0,0,.52s0-.08,0-.11a.49.49,0,0,1,0,.12.29.29,0,0,0,0,.1s0-.05,0-.06a.34.34,0,0,1,0,.1.28.28,0,0,0,0,.09.06.06,0,0,0,0,0s0,0,0,0,0-.06,0-.07v.19s0,.05,0,0a1.41,1.41,0,0,1,.05.35.59.59,0,0,1,0,.13,1.93,1.93,0,0,0,.09.6,1.13,1.13,0,0,0,.19.38.58.58,0,0,0,.11.15.92.92,0,0,1,.17.22,2,2,0,0,1,.1.21,2.1,2.1,0,0,0,.13.26,2,2,0,0,0,.14.25,3.13,3.13,0,0,1,.22.45c.07.18.13.37.19.56a7.15,7.15,0,0,1,.23.79c.08.44.15.87.2,1.32,0,.1,0,.21,0,.32a1.27,1.27,0,0,1,0,.2.23.23,0,0,1,0,.14c-.13.19-.27.38-.41.56a1.31,1.31,0,0,1-.12.11s0,.12-.08.15a.92.92,0,0,1-.29,0,.33.33,0,0,1-.17,0c-.08,0-.15-.12-.24-.14s-.18.12-.2.26c.06-.09.13-.17.22-.14a.06.06,0,0,1,.05.09.56.56,0,0,0-.09.34c0-.06.08-.15.13-.22a.26.26,0,0,0,.05.12c.06,0,.12,0,.18,0s.1,0,.14,0h0a.13.13,0,0,1,.11.05l0,0a.67.67,0,0,0,.2,0c.05,0,.09-.11.15-.1a1.07,1.07,0,0,0,.47,0,.25.25,0,0,0,.07-.19s0-.05,0-.05a.11.11,0,0,1,.12,0c.07.06,0,.19.12.22a.76.76,0,0,0,0-.21c0-.08-.09-.16-.15-.17s-.2.08-.3.11-.15.07-.21,0a.25.25,0,0,1,.05-.21,5,5,0,0,1,.45-.65l0-.06a1.6,1.6,0,0,0,.1-.23.79.79,0,0,0,.05-.22,4.59,4.59,0,0,0,0-.74s0,.11.08.14v0s0,0,0,0l0,.07s0,0,0,0a.43.43,0,0,1,0-.05s0,0,0,.05h0s0,0,0-.07,0,.06,0,.07a.07.07,0,0,0,0-.06h0l0,0a1.17,1.17,0,0,0-.05-.2s0,0,0,0,0,0,0,0a.11.11,0,0,0,0-.06h0l0,.08,0,0s0,0,0-.05h0l0,.05s0,0,0,0,.1.16.14.25l0,0,0,0h0s0,0,0-.06,0,0,0,0a.13.13,0,0,0,0-.06s0,0,0,0,0,0,0,0a.07.07,0,0,0,0-.06s0,0,0,0a.63.63,0,0,0-.08-.23h0s0,0,0,0h0s0,.07.06.09a.29.29,0,0,0-.05-.13h0s0,0,0,0a.2.2,0,0,1,0-.07l0,0v0h0s0,0,0,0,0,0,0-.07S17,21,17,21s0-.22-.06-.33a0,0,0,0,1,.05,0s.05,0,.08.06a.47.47,0,0,1,.1.1.22.22,0,0,1,.05.08.24.24,0,0,1,0,.12.59.59,0,0,0,0,.13s0,.06,0,.09a0,0,0,0,1,0,0s0,0,0,0,0,.09,0,.14,0,0,0,0a.76.76,0,0,0,0,.15c0,.12,0,.23,0,.35a1,1,0,0,1,0,.35c0,.17,0,.35-.08.52s-.05.25-.07.37-.05.19-.07.29a.94.94,0,0,1-.17.41l-.29.27a.22.22,0,0,1-.13.06.26.26,0,0,0-.15.17.65.65,0,0,0,0,.21.83.83,0,0,1,.09-.15.19.19,0,0,1,.1-.1s0,.11.09.1.14-.13.21-.19c0,.11-.08.21-.12.32s0,.05,0,.08a.89.89,0,0,0-.11.43v.2l0-.1a.85.85,0,0,1,.11-.37c.05,0,.1.05.15,0s.05-.2.13-.25.11-.21.17-.31c.1.05.19.18.31.14l0-.13a.2.2,0,0,1,.25.14c0,.08,0,.21.1.24,0-.21-.06-.47-.22-.54s-.14,0-.22,0a.32.32,0,0,1-.11-.24,2.47,2.47,0,0,1,0-.61,3.37,3.37,0,0,1,.09-.34,1.42,1.42,0,0,0,.05-.16,1.24,1.24,0,0,0,0-.16c0-.07,0-.13.05-.19a.33.33,0,0,1,.07-.13c.05-.1.09-.2.13-.3a2.5,2.5,0,0,0,.07-.26s0,0,0,0,0,0,0,0c0-.22,0-.44,0-.66l0,0s0,0,0,0,0,0,0,0,0,0,0,0a.22.22,0,0,1-.05-.08l0,0h0s0,0,0,0l0,0s0,0,.05,0h0c0-.06-.08-.08-.12-.13a.08.08,0,0,1,0-.05s0,0,0,0,0,0,0,0a0,0,0,0,1,0,0s0,0,0,0,0,0,0,0,0,0,0-.07l.09,0,.11,0a.59.59,0,0,1,.17.1l.11.07.11.08a.13.13,0,0,0,.08,0,.1.1,0,0,0,.05-.06l.05-.1a.33.33,0,0,1,.16-.13.58.58,0,0,1,.26,0,1.88,1.88,0,0,1,.46.14l.26.07a1,1,0,0,1,.21.08,1.28,1.28,0,0,0,.45.13.38.38,0,0,0,.23-.06c.09.06.18.08.27.14a2.09,2.09,0,0,1,.17.14.17.17,0,0,0,.1,0s0,0,0,0,0,0,0,0l.24.18a1.66,1.66,0,0,0,.21.16s0-.05.05-.08.15.15.23.21a.25.25,0,0,0,.2.06.36.36,0,0,1,0-.11.27.27,0,0,0,.08.07.38.38,0,0,0,.17.08.08.08,0,0,0,.08-.05.36.36,0,0,0,0-.15l.17.15a.17.17,0,0,1,.14,0l.12.06a.28.28,0,0,0,.12,0l0,0v-.13l.09,0a.1.1,0,0,0,.09,0s0,0,0-.06a.28.28,0,0,0-.12-.14l-.17-.12c-.2-.14-.4-.27-.59-.43l-.16-.12-.2-.15-.08-.08c-.38-.39-.76-.78-1.16-1.15.32.07.64.16.95.26a8.89,8.89,0,0,1,.86.32,1.59,1.59,0,0,0,.45.15s0,0,0,0a.17.17,0,0,0,0-.07h0a.92.92,0,0,1,.23.09.42.42,0,0,0,.21.06A.22.22,0,0,0,23.35,20.16Z"/><circle class="cls-3" cx="16.5" cy="16.5" r="15.5"/><ellipse class="cls-4" cx="16.63" cy="16.69" rx="11.29" ry="11.37"/><circle class="cls-5" cx="20.21" cy="11.02" r="2.29"/><text class="cls-6" transform="translate(19.18 11.92) rotate(0.32)">1</text></g></g></svg>