<svg xmlns="http://www.w3.org/2000/svg" xmlns:xlink="http://www.w3.org/1999/xlink" viewBox="0 0 33 33"><defs><style>.cls-1{fill:#81e0d0;}.cls-2{fill:url(#radial-gradient);}.cls-3,.cls-6{fill:none;}.cls-3,.cls-5,.cls-6{stroke:#000;stroke-miterlimit:10;}.cls-3{stroke-width:0.5px;}.cls-4{font-size:3.04px;font-family:Arial-Black, Arial Black;font-weight:800;}.cls-5{stroke-width:0.25px;}.cls-6{stroke-width:2px;}</style><radialGradient id="radial-gradient" cx="16.44" cy="16.94" r="11.75" gradientTransform="matrix(0.94, -0.22, 0.22, 0.94, -2.82, 4.62)" gradientUnits="userSpaceOnUse"><stop offset="0.74" stop-color="#fff" stop-opacity="0"/><stop offset="0.76" stop-color="#fff" stop-opacity="0.01"/><stop offset="0.77" stop-color="#fff" stop-opacity="0.04"/><stop offset="0.79" stop-color="#fff" stop-opacity="0.1"/><stop offset="0.79" stop-color="#fff" stop-opacity="0.18"/><stop offset="0.8" stop-color="#fff" stop-opacity="0.28"/><stop offset="0.81" stop-color="#fff" stop-opacity="0.4"/><stop offset="0.82" stop-color="#fff" stop-opacity="0.5"/><stop offset="0.82" stop-color="#dbc01f"/><stop offset="0.83" stop-color="#f1dc3a"/><stop offset="0.84" stop-color="#f5e13f"/><stop offset="0.84" stop-color="#00a99d"/><stop offset="0.84" stop-color="#0cada2"/><stop offset="0.86" stop-color="#45c0b7"/><stop offset="0.88" stop-color="#76d1ca"/><stop offset="0.9" stop-color="#a0dfdb"/><stop offset="0.92" stop-color="#c3ebe8"/><stop offset="0.94" stop-color="#ddf4f2"/><stop offset="0.96" stop-color="#f0faf9"/><stop offset="0.98" stop-color="#fbfefe"/><stop offset="1" stop-color="#fff"/></radialGradient></defs><title>Asset 5</title><g id="Layer_2" data-name="Layer 2"><g id="Layer_1-2" data-name="Layer 1"><ellipse class="cls-1" cx="16.41" cy="16.56" rx="15.26" ry="15.43"/><circle class="cls-2" cx="16.44" cy="16.92" r="11.37"/><circle class="cls-3" cx="15.14" cy="11.45" r="2.47"/><text class="cls-4" transform="matrix(1, 0.01, -0.01, 1, 13.9, 12.65)">4</text><path class="cls-5" d="M21.36,16.27h0A.92.92,0,0,0,21,16h0a3.06,3.06,0,0,1-1.26-2.89v0h0c0-.13-.08-.2-.17-.22a.29.29,0,0,0-.2.07,1.6,1.6,0,0,0-.35.46l-.06.06a.77.77,0,0,0-.25.62v0h0a.81.81,0,0,0-.23.64h0c-.1.08-.2.25-.12.6a.54.54,0,0,0-.06.55.57.57,0,0,0,0,.48.49.49,0,0,0,.06.48.26.26,0,0,0,0,.15.72.72,0,0,0-.51-.09l-.41.1h0c-1.1.26-3.14.75-4.34-.26L13,16.67l0,.11a.86.86,0,0,0,.2.78,1.25,1.25,0,0,0,.94.49.56.56,0,0,0,.15.32,1.05,1.05,0,0,0,.72.26.36.36,0,0,0,0,.09,2.55,2.55,0,0,0-.34.23,7.84,7.84,0,0,0-1.46,1.51,4.21,4.21,0,0,0-1.12,2.75v.13l.1-.23h0a6.39,6.39,0,0,1,2.44-3.2,4.44,4.44,0,0,1,.38-.27.28.28,0,0,1,.33.06h0s0,0,0,0A3.31,3.31,0,0,0,14.69,22l.12.72,0-.73a3.44,3.44,0,0,1,1.32-2.19,3.21,3.21,0,0,1,.59-.36.53.53,0,0,0,.23-.06.33.33,0,0,0,.18.17.74.74,0,0,0,.59-.1.38.38,0,0,0,.15.09h.15a3.4,3.4,0,0,0,1.76.42A2.16,2.16,0,0,0,21,19.5a2.92,2.92,0,0,0,.69-.78,1.86,1.86,0,0,0,.17-1.78,2.25,2.25,0,0,0-.12-.21c.13-.22.27-.43.27-.43l.12-.16ZM19,19.72a.21.21,0,0,1,.08-.12.52.52,0,0,0,.24.08,1.9,1.9,0,0,0,1.29-.42,1.8,1.8,0,0,0,.39-.39,2.71,2.71,0,0,0,.41-1.15c.06-.27.1-.51.21-.56a.27.27,0,0,1,.19,0,1.75,1.75,0,0,1-.23,1.47A2.22,2.22,0,0,1,19,19.72m-1.75-.33a.2.2,0,0,1-.13-.14c.16-.1.93-.59,1.43-.95a.9.9,0,0,0,.19.15l-1,.85a.57.57,0,0,1-.48.09m.5,0h0Zm-1.06-.08a.4.4,0,0,1-.21-.2c.29-.15,1.28-.7,1.85-1a1.07,1.07,0,0,1,.16.14c-.56.4-1.43,1-1.45,1a.49.49,0,0,1-.35.08m-4.42,3.16a7.63,7.63,0,0,1,2.85-3.62l.12.07a.58.58,0,0,0,.5,0v0a.59.59,0,0,1,0,.08,5.84,5.84,0,0,0-1,.63,8,8,0,0,0-2.55,2.84m6.23-5.17a3.91,3.91,0,0,1,.36.35,1.55,1.55,0,0,0,1,.63l-.06,0a.65.65,0,0,1-.24,0,1.09,1.09,0,0,1-.36-.06,1.82,1.82,0,0,1-.61-.41l-.26-.27-.13-.14,0,0-.05,0-.1,0a1.59,1.59,0,0,0-.38,0l-.37.07h0a15.77,15.77,0,0,1-3,.48h-.07a1.07,1.07,0,0,1-.91-.43.76.76,0,0,1-.2-.58c1.26,1,3.29.49,4.39.23l.4-.1a.76.76,0,0,1,.64.22h0Zm0-1.85h0a4.22,4.22,0,0,0,1.15.75.35.35,0,0,1-.1.12,5.53,5.53,0,0,1-1.12-.45c-.08-.24,0-.37.06-.41m1.28.54a1,1,0,0,1-.08.11,4.5,4.5,0,0,1-1.2-.78c0-.18,0-.38.11-.46A4.09,4.09,0,0,0,19.75,16M19.56,13s0,0,.05.1a3.24,3.24,0,0,0,.59,2.28,1.36,1.36,0,0,1,0,.17L20,15.37a2.72,2.72,0,0,1-.78-2.09c.14-.21.25-.29.31-.28M20,15.44l.16.21a.15.15,0,0,1-.08.08l0,0a4.1,4.1,0,0,1-1.14-1.56v0a.68.68,0,0,1,.21-.59l.06-.07a3.08,3.08,0,0,0,.83,2m-.05.37-.07.06a4.2,4.2,0,0,1-1.22-1.19.76.76,0,0,1,.15-.45,4.14,4.14,0,0,0,1.14,1.58m-.46.54-.12.12a3.2,3.2,0,0,1-.92-.17.39.39,0,0,1,0-.36,5.67,5.67,0,0,0,1,.41m-.18.22a.32.32,0,0,0,0,.09,4,4,0,0,1-.76.12c-.1-.12-.13-.3-.06-.37a3.21,3.21,0,0,0,.85.16m0,.2a1.08,1.08,0,0,0,0,.18l-.62.28-.05,0,0-.09c-.05-.08-.08-.14,0-.21a4.7,4.7,0,0,0,.75-.12m-.36.71-.18-.17.55-.25s0,.08,0,.13Zm.39-.19c0,.09,0,.14,0,.15l-.23.19-.09-.09Zm-1.8.19.17,0a2.19,2.19,0,0,1,.36,0l.09,0h0l0,0,.13.13.27.27a1.86,1.86,0,0,0,.63.39,1.19,1.19,0,0,0,.37.06,1.6,1.6,0,0,0,.23,0,1.1,1.1,0,0,1-.66.19.78.78,0,0,1-.53-.27,2.84,2.84,0,0,0-1.13-.72m.35.26c-.55.29-2,1-2.06,1l0,0a.48.48,0,0,1-.45,0,.33.33,0,0,1-.2-.2c.22-.08,1.23-.41,2.47-1l.27.12m2.15.54.08-.06s0,.09-.25.42a1.64,1.64,0,0,1-.24.23h0a.36.36,0,0,1-.28.09h-.05a5.85,5.85,0,0,0,.38-.48,1.58,1.58,0,0,0,.36-.2M14.21,18a15.25,15.25,0,0,0,3-.48l.17,0a24.31,24.31,0,0,1-2.4.92.91.91,0,0,1-.67-.22.31.31,0,0,1-.11-.26M16,19.14h0l-.06.07-.22-.11.14-.06a.33.33,0,0,0,.14.1m-.47.08.09,0,.24.12-.08.07Zm.17.21,0,0-.06.06-.25-.18.1-.06Zm-.4-.05.25.18-.07.06a.47.47,0,0,0-.29-.14s.11-.1.11-.1m.16.4h0l.28-.25c.33-.27.37-.32.38-.35h0a.62.62,0,0,0,.28-.05.51.51,0,0,0,.23.23,3.51,3.51,0,0,0-1.42,1.35,4.38,4.38,0,0,0-.37.82,3.3,3.3,0,0,1,.61-1.74m.92-.76a.43.43,0,0,1-.32,0,.41.41,0,0,1-.2-.23v0c.29-.13,1.65-.77,2.1-1a2.2,2.2,0,0,1,.32.21c-.66.34-1.81,1-1.89,1m2.47-.52a1.05,1.05,0,0,0,.24.06c-.21.22-.7.63-.83.75a.45.45,0,0,1-.27.07.13.13,0,0,1-.09-.07l.95-.81m.38.07a1,1,0,0,0,.24,0c-.14.18-.41.49-.46.55l-.1.09a.75.75,0,0,1-.17.1.44.44,0,0,1-.21-.06c.16-.14.55-.47.7-.64m2.37-1.5c-.16.07-.2.32-.27.63a2.74,2.74,0,0,1-.39,1.11,1.94,1.94,0,0,1-1.59.77l-.08,0a.5.5,0,0,0,.26-.17c.1-.14.3-.13.49-.35a1.25,1.25,0,0,0,.12-.71c0-.09,0-.14,0-.17s-.14,0-.15,0a.85.85,0,0,1-.74-.27l.32-.34a.84.84,0,0,1-.1-.27.76.76,0,0,1,0-.15,1.59,1.59,0,0,1,.69-.9.8.8,0,0,1,.79-.08h0a.77.77,0,0,1,.29.22h0v0c0,.16.07.48.38.49h0v0h0a.89.89,0,0,1,.08.17l0,.06a.22.22,0,0,0-.18,0m0-.31c-.2,0-.24-.25-.25-.34l.52-.1c-.07.11-.18.28-.27.44m-.71.27a.21.21,0,0,1,0,.31.23.23,0,0,1-.32,0,.24.24,0,0,1,.05-.32.22.22,0,0,1,.31.05"/><circle class="cls-6" cx="16.5" cy="16.5" r="15.5"/></g></g></svg>