<svg xmlns="http://www.w3.org/2000/svg" xmlns:xlink="http://www.w3.org/1999/xlink" viewBox="0 0 32.86 33"><defs><style>.cls-1{fill:#9a69b3;}.cls-2{fill:url(#radial-gradient);}.cls-3,.cls-4{fill:none;stroke:#000;stroke-miterlimit:10;}.cls-3{stroke-width:2px;}.cls-4{stroke-width:0.5px;}.cls-5{font-size:3.64px;font-family:Arial-Black, Arial Black;font-weight:800;}.cls-6{fill:#12110b;}</style><radialGradient id="radial-gradient" cx="16.38" cy="16.92" r="11.38" gradientTransform="translate(0.08 0.01)" gradientUnits="userSpaceOnUse"><stop offset="0.74" stop-color="#fff" stop-opacity="0"/><stop offset="0.76" stop-color="#fff" stop-opacity="0.01"/><stop offset="0.77" stop-color="#fff" stop-opacity="0.04"/><stop offset="0.79" stop-color="#fff" stop-opacity="0.1"/><stop offset="0.79" stop-color="#fff" stop-opacity="0.18"/><stop offset="0.8" stop-color="#fff" stop-opacity="0.28"/><stop offset="0.81" stop-color="#fff" stop-opacity="0.4"/><stop offset="0.82" stop-color="#fff" stop-opacity="0.5"/><stop offset="0.82" stop-color="#dbc01f"/><stop offset="0.83" stop-color="#f1dc3a"/><stop offset="0.84" stop-color="#f5e13f"/><stop offset="0.84" stop-color="#455560"/><stop offset="0.84" stop-color="#465661"/><stop offset="0.86" stop-color="#77838b"/><stop offset="0.88" stop-color="#a0a9ae"/><stop offset="0.9" stop-color="#c3c8cb"/><stop offset="0.93" stop-color="#dde0e2"/><stop offset="0.95" stop-color="#f0f1f2"/><stop offset="0.97" stop-color="#fbfcfc"/><stop offset="1" stop-color="#fff"/></radialGradient></defs><title>Asset 7</title><g id="Layer_2" data-name="Layer 2"><g id="Layer_1-2" data-name="Layer 1"><ellipse class="cls-1" cx="16.47" cy="16.26" rx="15.19" ry="15.26"/><ellipse class="cls-2" cx="16.38" cy="16.92" rx="11.32" ry="11.37"/><ellipse class="cls-3" cx="16.43" cy="16.5" rx="15.43" ry="15.5"/><ellipse class="cls-4" cx="17.02" cy="22.02" rx="2.4" ry="2.41"/><text class="cls-5" transform="matrix(1, 0.01, -0.01, 1, 15.9, 23.34)">6</text><text/><path class="cls-6" d="M18.86,15.14a.19.19,0,0,0,0-.23.1.1,0,0,0-.18,0,.2.2,0,0,0,0,.23.11.11,0,0,0,.18,0M18.7,15a.08.08,0,0,1,.13,0,.15.15,0,0,1,0,.16.07.07,0,0,1-.12,0,.13.13,0,0,1,0-.16m-.92-1.14a.21.21,0,0,1,0,.22.19.19,0,0,0,0-.1.16.16,0,0,0-.05-.08.08.08,0,0,0-.11,0,.19.19,0,0,0,0,.15.18.18,0,0,0,.07.05.09.09,0,0,0,.07,0,.11.11,0,0,1-.16,0,.23.23,0,0,1-.06-.12.18.18,0,0,1,0-.13.11.11,0,0,1,.1-.06.13.13,0,0,1,.09.06m3.42,4a.3.3,0,0,0,0-.36.17.17,0,0,0-.28,0,.32.32,0,0,0,0,.36.17.17,0,0,0,.28,0M21,17.55a.1.1,0,0,1,.17,0,.2.2,0,0,1,0,.22.1.1,0,0,1-.17,0,.18.18,0,0,1,0-.22m3.08,2.78v0h0a4,4,0,0,1-.85-.76c-.33-.52-2.67-3.37-3.4-4.2h0a.3.3,0,0,1-.07-.16c0-.08,0-.13.11-.19l0,0a.26.26,0,0,0,.08-.21.24.24,0,0,0-.16-.19.45.45,0,0,0-.5.08L18.69,14l-.05,0-1.17-1.39,1-1.26c1.28-1.72,1.23-1.82,1.21-1.87a.13.13,0,0,0-.06,0,3.15,3.15,0,0,0-1.35.84,20.79,20.79,0,0,0-1.43,1.56c-.6-.69-1.15-1.3-1.43-1.56A3.11,3.11,0,0,0,14,9.42a.1.1,0,0,0,0,0s-.08.15,1.21,1.87c.3.41.64.84,1,1.26L15,14l-.05,0-.55.65a.43.43,0,0,0-.49-.08.22.22,0,0,0-.16.19.26.26,0,0,0,.08.21l0,0c.07.06.12.11.12.19a.3.3,0,0,1-.07.16h0c-.73.83-3.06,3.68-3.4,4.2a3.75,3.75,0,0,1-.85.76h0v0a1.51,1.51,0,0,0,.43,1.1.54.54,0,0,0,.65.16h0v0a3.93,3.93,0,0,1,.52-1h0c1-1.1,2.62-3.37,3.22-4.11a.09.09,0,0,0,0-.07l.06-.07a.55.55,0,0,0,.49.22.38.38,0,0,0,.13-.1.51.51,0,0,0,.11-.25.13.13,0,0,0-.07-.12.82.82,0,0,1-.25-.3l.65-.8v-.1h0s.24-.25.82-.93v0l.41-.5c.14.19.28.35.4.5l0,0c.57.68.81.92.81.93h0V15l.64.8a.67.67,0,0,1-.25.3.12.12,0,0,0-.06.12.43.43,0,0,0,.11.25.38.38,0,0,0,.13.1.56.56,0,0,0,.49-.22l.06.07a.14.14,0,0,0,0,.07c.6.74,2.26,3,3.22,4.11h0a3.63,3.63,0,0,1,.52,1v0h0a.54.54,0,0,0,.65-.16,1.52,1.52,0,0,0,.44-1.1m-1.43-.71a.05.05,0,0,1,.09,0,.09.09,0,0,1,0,.12.05.05,0,0,1-.09,0,.11.11,0,0,1,0-.12m-.15-.18a.09.09,0,0,1-.15,0,.18.18,0,0,1,0-.2.09.09,0,0,1,.15,0,.15.15,0,0,1,0,.19m-.18-.85a.08.08,0,0,1,.12,0,.14.14,0,0,1,0,.15s-.09.05-.12,0a.13.13,0,0,1,0-.16m-.46.06.47.55v0l0,0,0,0-.46-.56Zm-1-1.22a.21.21,0,0,1,.36,0,.41.41,0,0,1,0,.47.22.22,0,0,1-.37,0,.41.41,0,0,1,0-.47m-1.07-.79a.06.06,0,0,1,.1,0,.12.12,0,0,1,0,.14.06.06,0,0,1-.1,0,.1.1,0,0,1,0-.13m0-1.89a.14.14,0,0,1,0,.1l0,0a.32.32,0,0,0-.15.28.38.38,0,0,0,.08.2h0l-.37-.44a.59.59,0,0,1,.29-.19.25.25,0,0,1,.22,0m-.16.72a1.6,1.6,0,0,1-.31.65l-.47-.56.39-.56Zm-1-1.38.54.64,0,0a.42.42,0,0,1,.42-.1h-.09a.63.63,0,0,0-.36.26l-.55-.67a.37.37,0,0,0,0-.12m-.05.22.54.65-.36.53-.55-.65.09-.08a1.2,1.2,0,0,0,.28-.45m-.5.51a1.66,1.66,0,0,1,.47-.72,1.09,1.09,0,0,1-.47.72M14,9.52a3.11,3.11,0,0,1,1.29.82,20.69,20.69,0,0,1,1.42,1.55l-.55.64a29.39,29.39,0,0,1-2.16-3m1.22,5.24.08.08-.54.65L14.43,15l.55-.65a1.09,1.09,0,0,0,.28.45M15,14.1a1.67,1.67,0,0,1,.48.72A1.07,1.07,0,0,1,15,14.1m-.26,1.46-.47.56a1.6,1.6,0,0,1-.31-.65l.39-.47c.07.09.26.36.39.56m-.38-.85,0,0,.53-.64,0,.12-.56.67a.61.61,0,0,0-.35-.26H14a.4.4,0,0,1,.41.1m-.33.44a.37.37,0,0,0-.15-.28l0,0a.31.31,0,0,1,0-.1.26.26,0,0,1,.22,0,.55.55,0,0,1,.29.19l-.37.44h0a.37.37,0,0,0,.09-.2m-.31,1.48a.06.06,0,0,1,.1,0,.1.1,0,0,1,0,.13s-.07,0-.1,0a.14.14,0,0,1,0-.14m-1.34.78a.22.22,0,0,1,.37,0,.41.41,0,0,1,0,.47.21.21,0,0,1-.36,0,.41.41,0,0,1,0-.47m-.57,1.27-.47.56v0l0,0v0l.47-.55Zm-.61-.09a.07.07,0,0,1,.12,0,.15.15,0,0,1,0,.16.08.08,0,0,1-.12,0,.14.14,0,0,1,0-.15m0,.66a.09.09,0,0,1,.15,0,.16.16,0,0,1,0,.2.08.08,0,0,1-.14,0,.17.17,0,0,1,0-.19m-.25.36a.06.06,0,0,1,.1,0,.11.11,0,0,1,0,.12s-.06,0-.09,0a.13.13,0,0,1,0-.12m-1.25.75a4.34,4.34,0,0,0,.8-.71l0,0a2.66,2.66,0,0,1-.81.72.09.09,0,0,1,0-.05m.06.24a2.89,2.89,0,0,0,.81-.7l.06-.06,0,.05a2.55,2.55,0,0,1-.88.77.14.14,0,0,1,0-.06m.24.25a.06.06,0,0,1,.1,0,.12.12,0,0,1,0,.13.06.06,0,0,1-.1,0,.09.09,0,0,1,0-.12m.45.64a1.12,1.12,0,0,1-.44-.4.11.11,0,0,0,.14,0,.24.24,0,0,0,0-.27.13.13,0,0,0-.21,0,.28.28,0,0,0-.05.16l-.09-.18a2.49,2.49,0,0,0,.82-.68l.09-.11.28.4a2.4,2.4,0,0,0-.55,1.13m.21,0-.06,0a2.19,2.19,0,0,1,.5-1l0,.06a4.15,4.15,0,0,0-.48.94M13.94,17l-.39.51-.79,1c-.27.34-.53.69-.8,1a11.24,11.24,0,0,1-.84,1c.14-.16.27-.33.4-.51l.4-.51c.26-.35.52-.7.79-1s.53-.69.8-1,.54-.67.83-1c-.13.17-.27.33-.4.51m1-.51a.49.49,0,0,1-.44-.22l0,0-.08.1-.09-.1.33-.4a.62.62,0,0,0,.09.26.42.42,0,0,0,.38.22.32.32,0,0,1-.16.18m-.15-.7v0a1,1,0,0,0,.29.39.35.35,0,0,1-.31-.18.4.4,0,0,1-.06-.29l.09-.11v0l.56-.67.07,0Zm1.55-1.91-.48-.67-.06.06.48.68c-.47.55-.7.81-.77.87a1.65,1.65,0,0,0-.49-.74c.88-1,2.64-3.15,3.23-3.69a3.24,3.24,0,0,1,1.29-.82,43.21,43.21,0,0,1-3.2,4.31m.94.07.47-.68-.05-.06-.48.67-.39-.47.55-.7c.43.51.85,1,1.15,1.37a1.65,1.65,0,0,0-.49.74c-.06-.06-.29-.32-.76-.87m1.48,1.87v0l-.67-.81.07,0,.57.67v0l.09.11a.42.42,0,0,1-.07.29.35.35,0,0,1-.31.18.9.9,0,0,0,.3-.39m.41.51-.09-.1,0,0a.49.49,0,0,1-.44.22.32.32,0,0,1-.16-.18.41.41,0,0,0,.37-.22.62.62,0,0,0,.09-.26l.34.4-.09.1m2.46,3.24c-.27-.33-.54-.68-.8-1l-.79-1-.4-.51c-.13-.18-.26-.34-.4-.51.29.3.57.63.84,1s.54.68.8,1l.79,1,.39.51c.13.18.27.35.41.51a11.24,11.24,0,0,1-.84-1m1.35,2a4.17,4.17,0,0,0-.49-.94l0-.06a2.22,2.22,0,0,1,.51,1l-.06,0m.66-.53a.06.06,0,0,1-.1,0,.11.11,0,0,1,0-.13,0,0,0,0,1,.09,0,.11.11,0,0,1,0,.12m.09,0a.27.27,0,0,0,0-.16.13.13,0,0,0-.21,0,.22.22,0,0,0,0,.27.11.11,0,0,0,.14,0,1.19,1.19,0,0,1-.44.4,2.4,2.4,0,0,0-.55-1.13L23,20l.09.11a2.56,2.56,0,0,0,.81.68l-.09.18m.13-.27a2.58,2.58,0,0,1-.89-.77l0-.05.05.06a2.91,2.91,0,0,0,.82.7.14.14,0,0,0,0,.06m.07-.25a2.66,2.66,0,0,1-.82-.72l0,0a3.78,3.78,0,0,0,.8.71.09.09,0,0,0,0,.05m-8.12-6.6a.11.11,0,0,1,.09-.06.12.12,0,0,1,.1.06.14.14,0,0,1,0,.13.17.17,0,0,1,0,.12.13.13,0,0,1-.17,0,.09.09,0,0,0,.08,0A.1.1,0,0,0,16,14a.14.14,0,0,0,0-.15.08.08,0,0,0-.11,0,.1.1,0,0,0,0,.08.18.18,0,0,0,0,.1.22.22,0,0,1,0-.22m-1.08,1.33a.11.11,0,0,0,.18,0,.2.2,0,0,0,0-.23.1.1,0,0,0-.18,0,.19.19,0,0,0,0,.23m0-.2a.07.07,0,0,1,.12,0,.12.12,0,0,1,0,.16.08.08,0,0,1-.13,0,.14.14,0,0,1,0-.16m-2.1,2.9a.3.3,0,0,0,0-.36.17.17,0,0,0-.28,0,.32.32,0,0,0,0,.36.17.17,0,0,0,.28,0m-.21-.3a.1.1,0,0,1,.17,0,.2.2,0,0,1,0,.22.1.1,0,0,1-.17,0,.18.18,0,0,1,0-.22"/></g></g></svg>