<svg xmlns="http://www.w3.org/2000/svg" xmlns:xlink="http://www.w3.org/1999/xlink" viewBox="0 0 33 33"><defs><style>.cls-1{fill:#cd5257;}.cls-2{fill:url(#radial-gradient);}.cls-3,.cls-4{fill:none;stroke:#000;stroke-miterlimit:10;}.cls-3{stroke-width:2px;}.cls-4{stroke-width:0.5px;}.cls-5{font-size:3.35px;font-family:Arial-Black, Arial Black;font-weight:800;}.cls-6{fill:#12110b;}</style><radialGradient id="radial-gradient" cx="16.44" cy="16.93" r="11.49" gradientTransform="translate(0.17 0.17) scale(0.99)" gradientUnits="userSpaceOnUse"><stop offset="0.74" stop-color="#fff" stop-opacity="0"/><stop offset="0.76" stop-color="#fff" stop-opacity="0.01"/><stop offset="0.77" stop-color="#fff" stop-opacity="0.04"/><stop offset="0.79" stop-color="#fff" stop-opacity="0.1"/><stop offset="0.79" stop-color="#fff" stop-opacity="0.18"/><stop offset="0.8" stop-color="#fff" stop-opacity="0.28"/><stop offset="0.81" stop-color="#fff" stop-opacity="0.4"/><stop offset="0.82" stop-color="#fff" stop-opacity="0.5"/><stop offset="0.82" stop-color="#dbc01f"/><stop offset="0.83" stop-color="#f1dc3a"/><stop offset="0.84" stop-color="#f5e13f"/><stop offset="0.84" stop-color="#455560"/><stop offset="0.84" stop-color="#465661"/><stop offset="0.86" stop-color="#77838b"/><stop offset="0.88" stop-color="#a0a9ae"/><stop offset="0.9" stop-color="#c3c8cb"/><stop offset="0.93" stop-color="#dde0e2"/><stop offset="0.95" stop-color="#f0f1f2"/><stop offset="0.97" stop-color="#fbfcfc"/><stop offset="1" stop-color="#fff"/></radialGradient></defs><title>Asset 2</title><g id="Layer_2" data-name="Layer 2"><g id="Layer_1-2" data-name="Layer 1"><circle class="cls-1" cx="16.47" cy="16.33" r="15.33"/><circle class="cls-2" cx="16.44" cy="16.92" r="11.37"/><circle class="cls-3" cx="16.5" cy="16.5" r="15.5"/><circle class="cls-4" cx="16.62" cy="13.8" r="2.78"/><text class="cls-5" transform="matrix(1, 0.01, -0.01, 1, 15.5, 14.98)">2</text><text/><path class="cls-6" d="M13.27,21.29c-.33,0-.58.31-.94.39a1.76,1.76,0,0,1-1.67-1c.7.26,1-.46,1.8-.27a1.07,1.07,0,0,1,.86.78A1.16,1.16,0,0,0,12,20.94a1.44,1.44,0,0,1,1.29.35m.38-.22A1.21,1.21,0,0,0,13.11,19a1.06,1.06,0,0,1-.11.9c-.2.41,0,.68.55,1.15a1.67,1.67,0,0,0,0-1.06c.15,0,.28.68.14,1.06m.12,1a1.29,1.29,0,0,1,1.47-.2,1.2,1.2,0,0,0-1.16-.53c-.85.06-1,.92-1.78.87a1.9,1.9,0,0,0,2.07.51c.35-.19.49-.65.84-.71a1.57,1.57,0,0,0-1.44.06m1.62-.48a1.32,1.32,0,0,0-1.31-1.9,1.22,1.22,0,0,1,.22,1c-.06.49.27.69,1,1a1.86,1.86,0,0,0-.44-1.07c.17,0,.55.6.54,1m-4.56-1.91a1.1,1.1,0,0,1,1.2.43,1,1,0,0,0-.67-.86c-.67-.3-1.1.31-1.7-.05A1.65,1.65,0,0,0,11,20.38c.33,0,.62-.3.92-.21a1.37,1.37,0,0,0-1.13-.53m1.59.35a1.14,1.14,0,0,0-.25-2,1,1,0,0,1-.21.82c-.24.35-.07.63.37,1.13a1.61,1.61,0,0,0,.09-1c.13.07.17.68,0,1M10,18.15a1,1,0,0,1,.94.71.94.94,0,0,0-.35-.95c-.51-.45-1.07,0-1.5-.52A1.51,1.51,0,0,0,10,18.85c.3.09.64-.09.88.08a1.24,1.24,0,0,0-.85-.78m1.29.62A1.05,1.05,0,0,0,11.65,17a.93.93,0,0,1-.42.67c-.31.24-.24.54,0,1.1a1.44,1.44,0,0,0,.36-.84c.1.09,0,.65-.28.88M9.79,16.82a1,1,0,0,1,.81.73.88.88,0,0,0-.25-.9c-.43-.46-1-.12-1.33-.6a1.41,1.41,0,0,0,.68,1.42c.28.1.6,0,.8.14a1.14,1.14,0,0,0-.71-.79m1.07.72a1,1,0,0,0,.46-1.65.87.87,0,0,1-.44.58c-.31.2-.27.48-.09,1a1.35,1.35,0,0,0,.4-.75c.09.09,0,.58-.33.8m-1.16-2a.85.85,0,0,1,.6.8.8.8,0,0,0-.06-.86c-.31-.48-.86-.27-1.1-.77a1.3,1.3,0,0,0,.37,1.4c.23.14.55.08.7.26a1,1,0,0,0-.51-.83m.84.84a.9.9,0,0,0,.7-1.4.8.8,0,0,1-.5.44c-.31.13-.32.39-.25.91.17,0,.46-.48.49-.61.06.1-.18.53-.44.66m-.62-2.11a.79.79,0,0,1,.35.84.73.73,0,0,0,.14-.77c-.17-.5-.7-.44-.8-.93a1.2,1.2,0,0,0,0,1.32c.17.17.47.19.56.39a1,1,0,0,0-.26-.85m.58.9a.82.82,0,0,0,.94-1.07.75.75,0,0,1-.55.27c-.3.05-.37.27-.42.74.15,0,.51-.31.57-.42,0,.18-.37.44-.54.48m-.16-1.9a.71.71,0,0,1,.1.82.65.65,0,0,0,.3-.64c0-.48-.5-.55-.48-1A1.07,1.07,0,0,0,10,13.58c.11.19.36.28.39.47a.84.84,0,0,0,0-.8m.26.9a.73.73,0,0,0,1.06-.72.65.65,0,0,1-.54.12c-.27,0-.38.14-.54.55a1.07,1.07,0,0,0,.6-.24c0,.09-.42.29-.58.29M11,12.36a.63.63,0,0,1-.11.72.57.57,0,0,0,.41-.47c.1-.42-.3-.59-.16-1a1,1,0,0,0-.54.91c.05.19.24.33.23.5a.78.78,0,0,0,.17-.69m0,.84a.66.66,0,0,0,1.09-.36.61.61,0,0,1-.49,0c-.22-.1-.36,0-.6.33a.85.85,0,0,0,.57-.06c0,.09-.43.16-.57.12m.65-1.44a.56.56,0,0,1-.13.63A.53.53,0,0,0,11.9,12c.1-.36-.23-.54-.09-.87a.83.83,0,0,0-.52.78c0,.16.19.29.16.45a.67.67,0,0,0,.19-.6m0,.73a.58.58,0,0,0,1-.25.5.5,0,0,1-.43-.05c-.2-.1-.33,0-.55.26a.85.85,0,0,0,.5,0c0,.07-.38.11-.5.06m.65-1.18a.41.41,0,0,1-.17.45.37.37,0,0,0,.33-.25c.12-.25-.11-.42,0-.64a.62.62,0,0,0-.47.51c0,.13.11.24.07.35a.52.52,0,0,0,.21-.42m-.12.54a.44.44,0,0,0,.76-.07.46.46,0,0,1-.32-.09c-.13-.1-.24,0-.43.13a.69.69,0,0,0,.37,0c0,.05-.29,0-.38,0m.44-.46a.58.58,0,0,0,.86-.53.52.52,0,0,1-.43.08c-.21,0-.31.1-.44.41.1,0,.41-.11.47-.17s-.33.22-.46.21m7,9.9c.33,0,.58.31.93.39a1.76,1.76,0,0,0,1.68-1c-.7.26-1-.46-1.8-.27a1.1,1.1,0,0,0-.87.78,1.17,1.17,0,0,1,1.34-.23,1.42,1.42,0,0,0-1.28.35M19.36,20a1.74,1.74,0,0,0,0,1.06c.54-.47.76-.74.56-1.15a1.11,1.11,0,0,1-.12-.9,1.22,1.22,0,0,0-.54,2.05c-.13-.38,0-1,.14-1.06m-1.7,2c.35.06.5.52.84.71a1.91,1.91,0,0,0,2.08-.51c-.82,0-.94-.81-1.79-.87a1.18,1.18,0,0,0-1.15.53,1.29,1.29,0,0,1,1.47.2A1.59,1.59,0,0,0,17.66,22M18,20.51c-.14.13-.51.83-.43,1.07.72-.28,1.05-.48,1-1a1.22,1.22,0,0,1,.22-1,1.32,1.32,0,0,0-1.31,1.9c0-.44.36-1.05.53-1m2.9-.34c.29-.09.58.19.92.21a1.67,1.67,0,0,0,1.38-1.22c-.6.36-1-.25-1.71.05a1,1,0,0,0-.66.86A1.09,1.09,0,0,1,22,19.64a1.35,1.35,0,0,0-1.12.53M20.46,19a1.54,1.54,0,0,0,.09,1c.44-.5.61-.78.37-1.13A1.06,1.06,0,0,1,20.7,18a1.14,1.14,0,0,0-.24,2c-.18-.33-.14-.94,0-1M22,18.93c.23-.17.57,0,.88-.08a1.54,1.54,0,0,0,.88-1.46c-.44.49-1,.07-1.5.52a.94.94,0,0,0-.35.95,1,1,0,0,1,.94-.71,1.24,1.24,0,0,0-.85.78m-.72-1a1.43,1.43,0,0,0,.35.84c.25-.56.33-.86,0-1.1a1,1,0,0,1-.43-.67,1.06,1.06,0,0,0,.34,1.81c-.25-.23-.39-.79-.28-.88m1.09-.28c.2-.17.53,0,.8-.14a1.42,1.42,0,0,0,.69-1.42c-.36.48-.9.14-1.34.6a.86.86,0,0,0-.24.9.94.94,0,0,1,.81-.73,1.14,1.14,0,0,0-.72.79m-.69-.87c0,.14.23.68.4.75.19-.54.23-.82-.08-1a.87.87,0,0,1-.44-.58A1,1,0,0,0,22,17.54c-.28-.22-.42-.71-.34-.8m1-.39c.15-.18.47-.12.69-.26a1.29,1.29,0,0,0,.38-1.4c-.24.5-.79.29-1.1.77a.81.81,0,0,0-.07.86.86.86,0,0,1,.61-.8,1,1,0,0,0-.51.83m-.77-.65c0,.13.32.58.49.61.07-.52.06-.78-.25-.91a.77.77,0,0,1-.5-.44.89.89,0,0,0,.69,1.4c-.25-.13-.5-.56-.43-.66m.8-.6c.09-.2.38-.22.55-.39a1.16,1.16,0,0,0,0-1.32c-.09.49-.63.43-.79.93a.73.73,0,0,0,.14.77.77.77,0,0,1,.35-.84.92.92,0,0,0-.26.85m-.86-.43c.05.11.42.43.57.42-.05-.47-.12-.69-.43-.74a.7.7,0,0,1-.54-.27.81.81,0,0,0,.94,1.07c-.18,0-.57-.3-.54-.48m.67-.62c0-.19.29-.28.4-.47a1.06,1.06,0,0,0-.3-1.15c0,.45-.45.52-.47,1a.66.66,0,0,0,.29.64.73.73,0,0,1,.11-.82.87.87,0,0,0,0,.8m-.81-.19a1,1,0,0,0,.6.24c-.16-.41-.27-.59-.55-.55a.67.67,0,0,1-.54-.12.74.74,0,0,0,1.07.72c-.16,0-.59-.2-.58-.29m.36-.81c0-.17.18-.31.22-.5a.93.93,0,0,0-.53-.91c.14.38-.26.55-.17,1a.59.59,0,0,0,.41.47.63.63,0,0,1-.1-.72.76.76,0,0,0,.17.69m-.75,0a.86.86,0,0,0,.57.06c-.23-.3-.37-.43-.6-.33a.61.61,0,0,1-.49,0,.66.66,0,0,0,1.09.36c-.13,0-.55,0-.57-.12m.12-.72c0-.16.13-.29.16-.45a.84.84,0,0,0-.52-.78c.14.33-.2.51-.09.87a.53.53,0,0,0,.39.39.57.57,0,0,1-.14-.63.68.68,0,0,0,.2.6m-.66.07a.85.85,0,0,0,.5,0c-.22-.26-.35-.36-.54-.26a.5.5,0,0,1-.43.05.58.58,0,0,0,1,.25c-.12,0-.49,0-.51-.06m.07-.7c0-.11.07-.22.07-.35a.62.62,0,0,0-.48-.51c.14.22-.08.39,0,.64a.37.37,0,0,0,.33.25.41.41,0,0,1-.17-.45.5.5,0,0,0,.21.42m-.48.13a.71.71,0,0,0,.38,0c-.2-.17-.31-.23-.44-.13a.44.44,0,0,1-.31.09.43.43,0,0,0,.75.07c-.08,0-.35.06-.38,0m-.52-.68c.06.06.38.21.48.17-.14-.31-.23-.45-.44-.41a.52.52,0,0,1-.43-.08.58.58,0,0,0,.86.53c-.13,0-.47-.13-.47-.21M15.93,22.1a3.72,3.72,0,0,1,.45.33,2.79,2.79,0,0,1,.37.4,2.46,2.46,0,0,1,.28.46l.29-.16a2.17,2.17,0,0,0-.38-.46,3.24,3.24,0,0,0-.46-.37A2.49,2.49,0,0,0,16,22a2.16,2.16,0,0,0-.55-.16,2,2,0,0,1,.51.23m.95-.07a2.49,2.49,0,0,0-.51.27,3.92,3.92,0,0,0-.46.37,2.17,2.17,0,0,0-.38.46l.29.16a2.46,2.46,0,0,1,.28-.46,2.79,2.79,0,0,1,.37-.4,3.72,3.72,0,0,1,.45-.33,2,2,0,0,1,.51-.23,2.16,2.16,0,0,0-.55.16"/></g></g></svg>