<svg xmlns="http://www.w3.org/2000/svg" xmlns:xlink="http://www.w3.org/1999/xlink" viewBox="0 0 33 33"><defs><style>.cls-1{fill:#daa520;}.cls-2{fill:url(#radial-gradient);}.cls-3,.cls-4{fill:none;stroke:#000;stroke-miterlimit:10;}.cls-3{stroke-width:2px;}.cls-4{stroke-width:0.5px;}.cls-5{font-size:3.29px;font-family:Arial-Black, Arial Black;font-weight:800;}.cls-6{fill:#12110b;}</style><radialGradient id="radial-gradient" cx="16.83" cy="17.02" r="12.11" gradientTransform="translate(0.64 0.95) scale(0.94 0.94)" gradientUnits="userSpaceOnUse"><stop offset="0.74" stop-color="#fff" stop-opacity="0"/><stop offset="0.76" stop-color="#fff" stop-opacity="0.01"/><stop offset="0.77" stop-color="#fff" stop-opacity="0.04"/><stop offset="0.79" stop-color="#fff" stop-opacity="0.1"/><stop offset="0.79" stop-color="#fff" stop-opacity="0.18"/><stop offset="0.8" stop-color="#fff" stop-opacity="0.28"/><stop offset="0.81" stop-color="#fff" stop-opacity="0.4"/><stop offset="0.82" stop-color="#fff" stop-opacity="0.5"/><stop offset="0.82" stop-color="#dbc01f"/><stop offset="0.83" stop-color="#f1dc3a"/><stop offset="0.84" stop-color="#f5e13f"/><stop offset="0.84" stop-color="#455560"/><stop offset="0.84" stop-color="#465661"/><stop offset="0.86" stop-color="#77838b"/><stop offset="0.88" stop-color="#a0a9ae"/><stop offset="0.9" stop-color="#c3c8cb"/><stop offset="0.93" stop-color="#dde0e2"/><stop offset="0.95" stop-color="#f0f1f2"/><stop offset="0.97" stop-color="#fbfcfc"/><stop offset="1" stop-color="#fff"/></radialGradient></defs><title>Asset 10</title><g id="Layer_2" data-name="Layer 2"><g id="Layer_1-2" data-name="Layer 1"><circle class="cls-1" cx="16.47" cy="16.67" r="15.2"/><circle class="cls-2" cx="16.44" cy="16.92" r="11.37"/><circle class="cls-3" cx="16.5" cy="16.5" r="15.5"/><circle class="cls-4" cx="17.09" cy="21.55" r="2.41"/><text class="cls-5" transform="matrix(1, 0.01, -0.01, 1, 15.97, 22.8)">9</text><text/><path class="cls-6" d="M16.51,13.64c0-.16,0-.26.08-.26s.09.1.09.26,0,.26-.08.26-.09-.1-.09-.26m-1.46,1.1a.22.22,0,1,0-.21.22.22.22,0,0,0,.21-.22m.2,2.12a.16.16,0,0,1,0-.32.16.16,0,0,1,0,.32m0-.11a0,0,0,0,0,.05-.05.05.05,0,1,0-.1,0,0,0,0,0,0,.05.05m-.18-.6a.86.86,0,0,0,.26,0s0,0,0,0a0,0,0,0,0,0,0l-.19-.12a.91.91,0,0,1-.08.18s0,0,0,0h0m-1.27.73A.16.16,0,0,1,14,17a.16.16,0,1,1-.32,0,.16.16,0,0,1,.16-.16m0,.11a0,0,0,0,0-.05.05s0,.06.05.05a.05.05,0,0,0,0-.1m-.43-.46a1.91,1.91,0,0,0,.34-.1l-.23-.12a2.15,2.15,0,0,0-.11.22M16.66,16h.46s0,0,0,0,0,0,0,0a2.81,2.81,0,0,0-.45-.32l-.05,0a3.05,3.05,0,0,0-.27.33h.29m-.06-.93.14.2.12-.28-.16-.21-.1.21,0,0Zm-.71,1.54a.17.17,0,0,1,.17-.16.16.16,0,0,1,0,.32.17.17,0,0,1-.17-.16m.12,0a.05.05,0,0,0,.1,0,0,0,0,1,0-.1,0M14.53,17a.17.17,0,1,1,.16-.17.17.17,0,0,1-.16.17m0-.11a.06.06,0,0,0,.05-.06s0-.05-.06-.05a0,0,0,0,0,0,.05.05.05,0,0,0,.06.06m-2.26-3.17h0l.22.39a1.74,1.74,0,0,1,.11.18v0a1.12,1.12,0,0,1,.12-.44,1.58,1.58,0,0,0-.42-.09m6.34,1.15a.22.22,0,0,0,0-.44.23.23,0,0,0-.22.22.22.22,0,0,0,.22.22m-.2,1.75a.17.17,0,0,1-.16.17.18.18,0,0,1-.17-.17.17.17,0,0,1,.17-.16.16.16,0,0,1,.16.16m-.11,0a.05.05,0,1,0-.1,0,0,0,0,0,0,.05.05.05.05,0,0,0,.05-.05m1.48-.31a1.69,1.69,0,0,0,.34.1,1,1,0,0,0-.12-.23l-.22.13m-2.18.26a.17.17,0,1,1-.17-.16.17.17,0,0,1,.17.16m-.12,0s0-.05,0,0a0,0,0,0,0-.05,0,0,0,0,0,0,.05.05,0,0,0,0,0,0-.05m1-.5-.11-.21L18.1,16a1.18,1.18,0,0,0,.34.07Zm1.1.86a.17.17,0,1,1,.17.16.16.16,0,0,1-.17-.16m.11,0a.05.05,0,0,0,.05.05.06.06,0,0,0,.06-.06s0-.05-.06-.05a.06.06,0,0,0-.05.06m-.51-.16a.17.17,0,1,1-.17-.16.17.17,0,0,1,.17.16m-.11,0s0,0-.06,0,0,0,0,.06,0,.05.06.05.05,0,.05-.06m1.42-.38c0,.08-.42,1.1-.46,1.36s-1.24-.41-3.23-.4-3.17.74-3.22.48-.49-1.26-.5-1.34,0-.08.12-.18A9.39,9.39,0,0,0,11.9,13.7c.12-.26.82-.31,1.13.1,1.17-.25,1,.88.94.74s-.4-.12-.54.05a.74.74,0,0,0,.56,1,.65.65,0,0,0,.8-.39.42.42,0,0,1-.38-.41.44.44,0,0,1,.13-.32,2.43,2.43,0,0,0-.22-.75.27.27,0,0,0-.18,0,.08.08,0,0,0,0,0v.07l-.06,0a.25.25,0,0,1-.17-.3.36.36,0,0,1,.25-.29.62.62,0,0,1,.11-.57l0,0,0,0a.69.69,0,0,1,.38.42.41.41,0,0,1,.32.07.37.37,0,0,1,.16.28v0h-.06c-.07,0-.31,0-.31.15a4,4,0,0,0,.15.72.43.43,0,0,1,.34.41.42.42,0,0,1-.18.36.84.84,0,0,0,.84.07,1,1,0,0,0,.35-.85c0-.19-.11-.32-.23-.33s-.24.09-.29.33c0,.08-.06.11-.09.11s-.08,0-.13-.08-.34-.77.05-1.12a.71.71,0,0,1,.63-.06,1.14,1.14,0,0,1,.27-1.32l0,0,0,0A1.24,1.24,0,0,1,17,13.1a.54.54,0,0,1,.45,0,.57.57,0,0,1,.29.36,1.32,1.32,0,0,1,0,.78v0c0,.1-.08.11-.11.11a.16.16,0,0,1-.12-.14c0-.07-.2-.27-.33-.26s-.1.12-.1.22a1.16,1.16,0,0,0,.6,1,.64.64,0,0,0,.68-.15.42.42,0,0,1-.17-.33.44.44,0,0,1,.34-.43,6.59,6.59,0,0,0,.13-.72c0-.14-.25-.15-.32-.15h-.06v-.05a.36.36,0,0,1,.15-.28.42.42,0,0,1,.32-.08.72.72,0,0,1,.37-.44h0l0,0a.62.62,0,0,1,.12.56.39.39,0,0,1,.26.28.26.26,0,0,1-.16.31l-.06,0,0-.07,0,0a.25.25,0,0,0-.21,0,2.62,2.62,0,0,0-.19.73.43.43,0,0,1-.23.74.67.67,0,0,0,.82.37c.55-.12.71-.75.55-1s-.48-.21-.56-.07-.25-1,.92-.75c.3-.42,1-.39,1.13-.14a9.48,9.48,0,0,0-1.2,2.69c.14.1.14.1.13.17m-1.16-.77a.82.82,0,0,0,.31,0,.7.7,0,0,0,.29-.13.69.69,0,0,0,.22-.23,1.08,1.08,0,0,0,.13-.29.94.94,0,0,0,0-.16c0-.05,0-.1,0-.16a.51.51,0,0,0-.11-.31.43.43,0,0,0-.12-.11l-.15-.07a.61.61,0,0,0-.27,0,.44.44,0,0,1,.08-.11A1.08,1.08,0,0,1,19.9,14a.58.58,0,0,1,.39,0l.09,0,.08.07a1,1,0,0,1,.11.17,1.05,1.05,0,0,1,.07.4,1.15,1.15,0,0,1,0,.26l-.17.47,0,.07a1.72,1.72,0,0,1-.26.33,1,1,0,0,1-.36.23,1,1,0,0,0,.37-.21,1.49,1.49,0,0,0,.23-.27l-.26.73.84-2,.32-.58c-.06-.18-.68.08-.68.08a1,1,0,0,1,.17.7l-.09.26v-.05a1,1,0,0,0-.08-.42A.72.72,0,0,0,20.5,14a.47.47,0,0,0-.19-.12.56.56,0,0,0-.22,0,.79.79,0,0,0-.22.06.71.71,0,0,0-.18.12.36.36,0,0,0-.13.19v0l.05,0a.48.48,0,0,1,.29,0,.41.41,0,0,1,.25.15.48.48,0,0,1,.1.28.92.92,0,0,1,0,.16.4.4,0,0,1,0,.15.77.77,0,0,1-.12.28.74.74,0,0,1-.2.23.92.92,0,0,1-.28.14,1.1,1.1,0,0,1-.31,0m-6.32-1a.54.54,0,0,1,.1-.3.41.41,0,0,1,.25-.18h.16l.16,0a.58.58,0,0,0-.32-.07.38.38,0,0,0-.16.06.77.77,0,0,0-.13.12.8.8,0,0,0-.08.16.85.85,0,0,0,0,.17,1.84,1.84,0,0,0,0,.33,1.4,1.4,0,0,0,.3.61,1.2,1.2,0,0,0,.57.34,1.34,1.34,0,0,1-.53-.37,1.46,1.46,0,0,1-.28-.59,1.66,1.66,0,0,1,0-.32M15,16.16l0,0h0a1,1,0,0,0,.26-.06s0,0,0,0a.05.05,0,0,0,0,0l-.22-.13v0s0,.12-.09.19a0,0,0,0,0,0,.05m0-.39a.4.4,0,0,1-.09.2.57.57,0,0,1-.16.15,1,1,0,0,1-.21.08.78.78,0,0,1-.22,0h-.22a.78.78,0,0,1-.22,0,1.3,1.3,0,0,1-.43-.15,1.09,1.09,0,0,0,.42.2,1.41,1.41,0,0,0,.46,0,.87.87,0,0,0,.44-.13A.55.55,0,0,0,15,16a.46.46,0,0,0,.06-.22m.49.17a.83.83,0,0,0,.47,0,.93.93,0,0,0,.41-.23.65.65,0,0,0,.15-.18l.06-.1a.19.19,0,0,0,0-.08v0a.07.07,0,0,1,0,0l0,.05a.33.33,0,0,1-.06.1,1.21,1.21,0,0,1-.16.16,1.23,1.23,0,0,1-.39.21l-.22,0-.23,0-.21-.07-.2-.11.19.13a1,1,0,0,0,.21.09m1-2.61a.31.31,0,0,0-.11.25l-.05,0a.27.27,0,0,0-.12,0,.65.65,0,0,0-.24,0,.52.52,0,0,0-.22.07.33.33,0,0,0-.14.19.26.26,0,0,1,.15-.17.39.39,0,0,1,.21-.06.58.58,0,0,1,.23,0l.11,0a.18.18,0,0,1,.07.05c0,.14.05.27.12.3l.06.75h.06L16.63,14c.08,0,.12-.18.11-.31h0a.54.54,0,0,1,.38-.15.5.5,0,0,1,.21,0,.31.31,0,0,1,.17.13.57.57,0,0,0-.16-.15.79.79,0,0,0-.22-.06.83.83,0,0,0-.22,0,.48.48,0,0,0-.16.08c0-.12,0-.22-.12-.24l-.09-1.11Zm0,1.73.06.09.14.2.14-.34-.2-.26-.09.2Zm-.22,1s0,0,0,0h.77a.07.07,0,0,0,.05,0s0,0,0-.06c-.43-.34-.46-.32-.48-.31l0,0a1.71,1.71,0,0,0-.31.38m1.16-.12a.83.83,0,0,0,.47,0,.88.88,0,0,0,.22-.1,1.1,1.1,0,0,0,.18-.14.82.82,0,0,1-.2.12l-.21.08-.22,0-.22,0a1.16,1.16,0,0,1-.4-.2.81.81,0,0,1-.16-.16l-.07-.09,0-.05a.11.11,0,0,1,0,0s0,.07,0,.11l.06.1a1.29,1.29,0,0,0,.16.17,1,1,0,0,0,.41.22m.55.13h0a1.3,1.3,0,0,0,.38.08h.06l0,0-.13-.24h0Zm.48-.11a.55.55,0,0,0,.17.17,1,1,0,0,0,.45.12,1.44,1.44,0,0,0,.46-.05A1.09,1.09,0,0,0,20,16a1.16,1.16,0,0,1-.42.17l-.23,0h-.22a.78.78,0,0,1-.22,0,.74.74,0,0,1-.21-.07.8.8,0,0,1-.17-.15.61.61,0,0,1-.09-.2.44.44,0,0,0,.07.22m1.93-1.1a1.37,1.37,0,0,1-.26.59,1.21,1.21,0,0,1-.53.39,1.05,1.05,0,0,0,.56-.36,1.35,1.35,0,0,0,.29-.6,1.32,1.32,0,0,0,0-.34.85.85,0,0,0,0-.17.54.54,0,0,0-.09-.15.37.37,0,0,0-.13-.12.44.44,0,0,0-.16-.06.62.62,0,0,0-.33.08l.16,0a1,1,0,0,1,.17,0,.44.44,0,0,1,.25.17.68.68,0,0,1,.11.3,1.13,1.13,0,0,1,0,.32m-1.23,1.09a.95.95,0,0,1-.58-.23.48.48,0,0,1-.16-.26v0h0a1.65,1.65,0,0,1-.36.16,1.34,1.34,0,0,1-.39.07.8.8,0,0,1-.37-.11,1,1,0,0,1-.29-.28,1.1,1.1,0,0,0,.27.3l.18.1.21,0a1.45,1.45,0,0,0,.41-.06,2.07,2.07,0,0,0,.34-.15.62.62,0,0,0,.17.25.92.92,0,0,0,.29.16.87.87,0,0,0,.32.06,1,1,0,0,0,.33-.06.89.89,0,0,1-.32,0m-.6-.57a.26.26,0,0,1-.05-.09.08.08,0,0,1,0,0l0-.05a.13.13,0,0,0,0,.06.43.43,0,0,1,0,0l.05.1a.52.52,0,0,0,.14.16.44.44,0,0,0,.19.1h.21a.78.78,0,0,1-.21,0l-.18-.1a.65.65,0,0,1-.13-.16m.09-1.08c0-.06,0-.12.05-.18l0-.18c0-.12.07-.25.1-.37s0-.14.05-.21a.17.17,0,0,1,.1,0h.1l.11,0a.16.16,0,0,1,.08.06.27.27,0,0,0-.08-.07l-.1,0H19l0-.12c0-.12.06-.24.08-.37l-.1.37,0,.11-.08,0-.11,0h-.12a.2.2,0,0,0-.11,0,.2.2,0,0,1,.11,0,.25.25,0,0,1,.12,0l.1,0a.27.27,0,0,1,.08.07l-.06.22-.09.36,0,.19a1.16,1.16,0,0,0,0,.18m.06-.74s0,.11,0,.19c0-.15.06-.28.06-.31s-.2-.17-.37-.16a.29.29,0,0,1,.43,0,.51.51,0,0,1,.24-.49s.09.4,0,.53c.21,0,.4.16.3.24a.24.24,0,0,0-.36,0,.66.66,0,0,0-.1.26.38.38,0,0,1,.12-.19.44.44,0,0,1,.32,0l0,0a.13.13,0,0,0,0-.14.22.22,0,0,0-.22-.19h-.1l0-.09a.53.53,0,0,0,0-.47.64.64,0,0,0-.28.38v.09l-.08,0a.28.28,0,0,0-.27,0,.38.38,0,0,0-.1.13c.23,0,.36.1.37.25M18.61,15a.31.31,0,0,0,.31-.31.33.33,0,0,0-.32-.31.3.3,0,0,0-.3.31.31.31,0,0,0,.31.31M15,15.2a.78.78,0,0,0,.66.29c.66,0,.72-.74.72-.74a1.14,1.14,0,0,0,0-.73c-.12-.35-.72-.42-.8,0-.06-.27,0-1,.71-.65.06,0,.17,0,.11-.15a1.2,1.2,0,0,1,.1-1.19,1.16,1.16,0,0,1,.27,1.16c0,.11.07.23.15.13.24-.29.7,0,.66.62-.18-.45-.69-.37-.73,0a1.43,1.43,0,0,0,.13.79s.18.72.76.71a.72.72,0,0,0,.67-.34.88.88,0,0,1-.54.23.77.77,0,0,1-.28-.06,1.28,1.28,0,0,1-.67-1.1c0-.29.13-.34.21-.34a.58.58,0,0,1,.46.37h0v0a1.18,1.18,0,0,0,0-.71.46.46,0,0,0-.23-.29.48.48,0,0,0-.37,0,.12.12,0,0,1-.12,0,.11.11,0,0,1,0-.11A1.09,1.09,0,0,0,16.52,12a1,1,0,0,0-.19,1.16.11.11,0,0,1,0,.11.09.09,0,0,1-.11,0h0c-.14,0-.41-.1-.56,0-.33.29-.08.89,0,1h0c.08-.32.27-.42.42-.42s.31.15.34.44a1.09,1.09,0,0,1-.4,1,.93.93,0,0,1-1-.06m-.6-1.84h-.2l-.1.05a.27.27,0,0,0-.08.07.27.27,0,0,1,.08-.07l.11,0h.1a.17.17,0,0,1,.1,0,1.6,1.6,0,0,1,.05.21c0,.12.08.24.11.36l.06.19.06.18c0-.07,0-.13-.05-.19l0-.18c0-.12-.06-.25-.1-.37l-.06-.21a.12.12,0,0,1,.07-.07l.11-.05h.12a.23.23,0,0,1,.11,0,.2.2,0,0,0-.11,0h-.12l-.12,0-.07,0,0-.11-.12-.36.09.36,0,.12m.14.7a1.14,1.14,0,0,0-.18-.54.25.25,0,0,0-.36.05c-.1-.08.08-.29.3-.25-.14-.12-.08-.5-.06-.53a.52.52,0,0,1,.25.48.32.32,0,0,1,.44,0c-.18,0-.37.11-.37.18s0,.15.07.3a1.62,1.62,0,0,1,0-.18c0-.15.13-.25.36-.27a.28.28,0,0,0-.1-.12.29.29,0,0,0-.27,0l-.08,0v-.08a.63.63,0,0,0-.29-.38.6.6,0,0,0,0,.48l.05.09h-.11a.22.22,0,0,0-.21.2.13.13,0,0,0,0,.14.1.1,0,0,1,.06-.05.36.36,0,0,1,.29,0c.08,0,.15.24.21.49m.26,1a.3.3,0,0,0,.3-.31.31.31,0,0,0-.31-.31.3.3,0,0,0-.3.31.31.31,0,0,0,.31.31m-.51.68h.21a.45.45,0,0,0,.19-.11.37.37,0,0,0,.13-.17.41.41,0,0,0,.05-.09s0,0,0-.06a.43.43,0,0,0,0,0l0,0a.08.08,0,0,1,0,.05.41.41,0,0,1-.05.09.51.51,0,0,1-.13.16.62.62,0,0,1-.17.11l-.21.05m-.07.27a.87.87,0,0,1-.32,0,.7.7,0,0,0,.32,0,1,1,0,0,0,.33-.06.81.81,0,0,0,.28-.17.7.7,0,0,0,.17-.25,2,2,0,0,0,.34.13,1.13,1.13,0,0,0,.41.05l.21,0,.18-.1a1,1,0,0,0,.25-.32.84.84,0,0,1-.27.29.63.63,0,0,1-.37.12,1,1,0,0,1-.39-.05,2.39,2.39,0,0,1-.37-.15l0,0v0a.48.48,0,0,1-.16.26.78.78,0,0,1-.26.17,1.09,1.09,0,0,1-.31.08m-.9.31-.28-.72a1.38,1.38,0,0,0,.23.26,1.07,1.07,0,0,0,.38.2.94.94,0,0,1-.37-.22,1.35,1.35,0,0,1-.26-.32l0-.07L12.84,15a2.17,2.17,0,0,1,0-.25,1,1,0,0,1,.07-.41.59.59,0,0,1,.1-.17.27.27,0,0,1,.08-.07l.08-.05a.61.61,0,0,1,.4,0,.59.59,0,0,1,.17.1.52.52,0,0,1,.1.11.53.53,0,0,0-.28,0,.51.51,0,0,0-.15.07l-.11.11a.45.45,0,0,0-.1.31.81.81,0,0,0,0,.16.75.75,0,0,0,0,.16,1.11,1.11,0,0,0,.14.29.8.8,0,0,0,.22.23,1.34,1.34,0,0,0,.3.12,1.08,1.08,0,0,0,.31,0,1.1,1.1,0,0,1-.31,0,.72.72,0,0,1-.28-.13.77.77,0,0,1-.22-.22,1.39,1.39,0,0,1-.12-.28.4.4,0,0,1,0-.15.88.88,0,0,1,0-.16.56.56,0,0,1,.1-.28.4.4,0,0,1,.24-.16.57.57,0,0,1,.29,0h.05v-.05a.3.3,0,0,0-.13-.18.76.76,0,0,0-.19-.12.8.8,0,0,0-.21-.05.61.61,0,0,0-.23,0,.46.46,0,0,0-.18.13.52.52,0,0,0-.11.19.91.91,0,0,0-.07.43v0l-.1-.25a1,1,0,0,1,.15-.7s-.62-.25-.68-.06l.33.56Zm0,.26s.36-.08.38-.13v0a1,1,0,0,0-.26-.14h0a.71.71,0,0,0-.12.28h0m.44.05.38-.11c.27-.07.53-.12.79-.17l.8-.12.41,0h.2a.34.34,0,0,1,.1,0h-.3l-.41,0-.8.11a7.55,7.55,0,0,0-.8.16l-.39.1a1.77,1.77,0,0,0-.38.15h0v0l.08.25,0,0-.07-.22a2.13,2.13,0,0,1,.35-.14m2.77-.36-.37,0s0,0,0,0a.93.93,0,0,0,.22.15s.18-.2.16-.2m-.14.52s-.19.19-.17.19h.37s0,0,0,0a1.77,1.77,0,0,0-.22-.16m-2.29,0s.12-.23.1-.23l-.36.11s0,0,0,0,.24.11.26.09m-.34,0a.19.19,0,0,0-.19.19.2.2,0,0,0,.19.2A.19.19,0,0,0,14,17a.18.18,0,0,0-.19-.19m.24.48.36-.1a0,0,0,0,0,0,0,1.62,1.62,0,0,0-.26-.09,2.29,2.29,0,0,0-.11.23m.49-.26a.2.2,0,0,0,.19-.2.19.19,0,0,0-.2-.19.2.2,0,1,0,0,.39m.33-.39a1.09,1.09,0,0,0,.14-.21l-.37.06s0,0,0,0,.23.14.24.12m-.08.47a2.73,2.73,0,0,0,.37,0s0,0,0,0a1.69,1.69,0,0,0-.24-.12s-.16.21-.14.21m.47-.26a.18.18,0,0,0,.19-.19.19.19,0,0,0-.19-.19.18.18,0,0,0-.19.19.18.18,0,0,0,.19.19m.39-.35s.15-.22.13-.22l-.37.06a0,0,0,0,0,0,0,1.65,1.65,0,0,0,.25.12m-.13.51.37-.06s0,0,0,0a1.2,1.2,0,0,0-.24-.13s-.16.21-.14.22m.55-.23a.18.18,0,0,0,.19-.19.19.19,0,0,0-.19-.19.2.2,0,0,0-.2.19.19.19,0,0,0,.2.19m.67.3h0a2.28,2.28,0,0,0-.37,0l-.38,0-.77.08-.76.13-.37.1a2.3,2.3,0,0,0-.34.12l-.09-.24-.05,0,.1.27,0,0,0,0a2.13,2.13,0,0,1,.35-.14l.37-.1c.25-.06.5-.1.76-.14s.51-.07.76-.09l.38,0c.13,0,.25,0,.37,0m0-.33a.19.19,0,0,0,.19-.2.19.19,0,0,0-.19-.19h-.07a.2.2,0,0,0-.12.19.18.18,0,0,0,.14.18h.05m2.85-.16-.36-.09s.1.2.11.22.18-.06.26-.09a0,0,0,0,0,0,0m-.1.34a.2.2,0,1,0,.39,0,.21.21,0,0,0-.2-.19.19.19,0,0,0-.19.2m-.41.16a0,0,0,0,0,0,0l.37.09a1,1,0,0,0-.12-.22s-.17.05-.25.09m.07-.32A.2.2,0,1,0,19,17a.2.2,0,0,0,.19-.2m-.31-.34-.37,0a.85.85,0,0,0,.14.21s.17-.07.24-.12,0,0,0,0m-.51.55s0,0,0,0l.38,0a1.72,1.72,0,0,0-.15-.21,1,1,0,0,0-.23.13m.09-.36a.19.19,0,0,0-.2-.19.2.2,0,0,0-.19.19.21.21,0,0,0,.2.2.2.2,0,0,0,.19-.2m-.35-.31a2.94,2.94,0,0,0-.37-.05s.12.19.13.21a.83.83,0,0,0,.24-.13s0,0,0,0m-.48.59s0,0,0,0L18,17s-.12-.19-.14-.2-.16.08-.24.13m0-.33a.19.19,0,0,0-.2-.19.2.2,0,1,0,.2.19m-.34-.34a2.67,2.67,0,0,0-.38,0,1.37,1.37,0,0,0,.17.19,1.42,1.42,0,0,0,.22-.15s0,0,0,0m-.22.51a.87.87,0,0,0-.21.16s0,0,0,0h.38a1,1,0,0,0-.18-.18m2.84.48h-.05l-.09.24-.33-.12-.38-.08c-.25-.05-.51-.08-.76-.11s-.51-.05-.77-.06H17l-.19,0h.38l.38,0,.77.08q.38,0,.75.12c.13,0,.25.05.37.09a3,3,0,0,1,.36.13l0,0,0,0Zm.21-.62h0a3,3,0,0,0-.39-.14l-.4-.09c-.26-.06-.53-.1-.79-.14l-.81-.08-.4,0h0l.4,0,.8.1c.27,0,.53.09.8.15l.39.1a2.09,2.09,0,0,1,.35.13l-.07.22.06,0,.07-.25ZM20,16.2v0h0a1.83,1.83,0,0,0-.25.15v0c0,.05.36.12.38.12h0s0-.12-.13-.27m-3.1.39a.16.16,0,0,1-.16.17h-.05a.16.16,0,0,1-.11-.15.16.16,0,0,1,.09-.15l.07,0a.16.16,0,0,1,.16.16m-.11,0a.05.05,0,0,0-.1,0,0,0,0,1,0,.1,0m4.05-2.37A1.62,1.62,0,0,0,21,14l.22-.39h0a1.89,1.89,0,0,0-.41.1,1.41,1.41,0,0,1,.12.44v0m-2.11,3.45-.32-.06-.33,0a11.38,11.38,0,0,0-1.31-.06c-.43,0-.87,0-1.3.09l-.16,0-.17,0-.32.05-.16,0-.16,0-.16,0-.15.05h.16l.16,0,.33,0,.32,0h.32l1.3,0c.43,0,.86,0,1.29,0h.32l.32,0,.33,0,.16,0h.16l-.31-.1-.32-.08"/></g></g></svg>